<svg width="407" height="193" viewBox="0 0 407 193" fill="none" xmlns="http://www.w3.org/2000/svg">
<path d="M356.981 56.553L350.438 64.5591L358.451 71.109L364.995 63.1029L356.981 56.553Z" fill="url(#paint0_linear_607_10)"/>
<path d="M156.23 13.1901C156.23 13.1901 200.63 -18.2699 272.55 15.9901C344.48 50.2801 394.5 26.1001 406.3 11.5101C406.3 11.5101 372.02 76.6901 266.38 27.7901C228.72 5.88006 183.77 3.07006 156.23 13.1901Z" fill="url(#paint1_linear_607_10)"/>
<path style="mix-blend-mode:multiply" d="M248.97 19.18C254.33 21.41 259.63 23.97 264.8 26.89C270.9 23.82 278.23 21.79 283.1 20.66C279.64 19.24 276.13 17.69 272.56 15.98C270.54 15.02 268.55 14.11 266.57 13.25C259.89 14.77 252.83 17.54 248.97 19.17V19.18Z" fill="url(#paint2_linear_607_10)"/>
<path d="M359.66 27.7901C359.66 27.7901 315.27 -3.6699 243.33 30.6101C171.41 64.8901 121.39 40.7201 109.59 26.1101C109.59 26.1101 143.87 91.3001 249.53 42.4201C287.18 20.5001 332.13 17.6901 359.67 27.8001" fill="url(#paint3_linear_607_10)"/>
<path style="mix-blend-mode:multiply" d="M298.5 39.9701C303.17 41.3901 309.92 42.9001 314.01 43.6701C323.77 39.5501 329.34 34.8601 331.36 32.9401C329.53 32.7801 327.67 32.5701 325.79 32.3301C315.13 37.0501 303.09 38.8601 298.5 39.9701Z" fill="url(#paint4_linear_607_10)"/>
<path style="mix-blend-mode:multiply" d="M212.4 55.9398C219.68 54.0698 227.42 51.5698 235.64 48.3498C226.94 46.5698 219.7 43.7098 215.07 41.5698C208.86 43.4198 202.87 44.8298 197.1 45.8598C203.58 50.7698 208.77 53.9698 212.4 55.9398Z" fill="url(#paint5_linear_607_10)"/>
<path d="M88.7998 26.67C88.7998 26.67 133.2 -4.79002 205.12 29.49C277.05 63.77 327.07 39.6 338.88 24.99C338.88 24.99 304.59 90.18 198.94 41.29C161.3 19.37 116.33 16.56 88.7998 26.67Z" fill="url(#paint6_linear_607_10)"/>
<path style="mix-blend-mode:multiply" d="M189.81 22.9902C189.81 22.9902 195.81 25.1302 202.43 28.2302C202.43 28.2302 193.32 29.3602 183.04 33.3102C183.04 33.3102 171.48 28.7102 167.28 27.5802C167.28 27.5802 178.68 23.7802 189.8 22.9902H189.81Z" fill="url(#paint7_linear_607_10)"/>
<path d="M250.07 28.9203C250.07 28.9203 205.69 -2.53975 133.76 31.7303C61.82 66.0103 11.8 41.8503 0 27.2403C0 27.2403 34.29 92.4303 139.94 43.5403C177.59 21.6203 222.55 18.8103 250.08 28.9303" fill="url(#paint8_linear_607_10)"/>
<path style="mix-blend-mode:multiply" d="M120.25 37.6001L115.9 39.2501C115.9 39.2501 119.46 46.0101 123.89 50.3101C123.89 50.3101 131.92 47.1601 134.49 45.9801L120.24 37.6001H120.25Z" fill="url(#paint9_linear_607_10)"/>
<path d="M147.36 45.4601C128 41.2201 114.91 32.6901 109.59 26.1001C109.59 26.1001 117.4 40.9301 137.03 51.1401L147.36 45.4501V45.4601Z" fill="url(#paint10_linear_607_10)"/>
<path d="M321.52 189.03C321.52 190.74 320.13 192.14 318.42 192.14C316.71 192.14 315.31 190.75 315.31 189.03C315.31 187.31 316.7 185.92 318.42 185.92C320.14 185.92 321.52 187.31 321.52 189.03ZM340.48 156.75C339.29 156.75 336.85 156.84 336.69 156.84C336.46 156.84 333.94 156.75 332.16 156.75C331.73 156.75 331.54 156.84 331.54 157.06C331.54 157.2 331.72 157.38 331.85 157.38C332.21 157.38 332.86 157.42 333.18 157.48C334.46 157.65 334.69 158.28 334.77 159.57C334.83 160.28 334.87 163.19 334.87 163.19C334.87 167.2 333.92 170.43 331.34 172.7C329.45 174.36 326.16 175.42 322.75 175.42C321.96 175.42 149.98 175.49 149.27 175.42C147.13 175.26 145.27 174.7 143.24 173.34C140.84 171.78 139.13 169.42 139.13 163.76C139.13 160.27 139.13 160.56 139.17 159.57C139.26 158.22 139.48 157.7 140.55 157.48C140.99 157.38 141.26 157.38 141.52 157.38C141.65 157.38 141.84 157.2 141.84 157.06C141.84 156.84 141.65 156.75 141.2 156.75C140.01 156.75 137.57 156.84 137.4 156.84C137.17 156.84 134.65 156.75 132.88 156.75C132.43 156.75 132.26 156.84 132.26 157.06C132.26 157.2 132.43 157.38 132.57 157.38C132.91 157.38 133.58 157.42 133.89 157.48C135.18 157.65 135.4 158.28 135.48 159.57C135.58 160.78 135.58 161.86 135.58 167.77V170.68C135.58 180.5 134.37 182.48 131.85 185.03C131.5 185.34 130.97 185.79 130.48 186.06C130.12 186.29 130 186.47 130 186.7C130 186.87 130.17 186.91 130.25 186.91C130.39 186.91 130.48 186.86 130.52 186.86C130.92 186.64 131.58 186.24 132.12 185.88C135.26 183.77 136.99 181.97 137.82 180.04C138.42 178.66 138.74 177.35 138.92 175.56C142.03 177.63 146.29 178.12 148.82 178.24C149.46 178.27 321.23 178.24 321.6 178.24C324.88 178.24 329.18 177.93 333.22 175.4C334.8 174.41 335.91 173.17 336.69 171.8C338.1 169.31 338.4 166.37 338.4 163.64V162.66C338.4 160.97 338.41 160.28 338.44 159.55C338.53 158.2 338.75 157.68 339.82 157.46C340.25 157.36 340.53 157.36 340.78 157.36C340.92 157.36 341.1 157.18 341.1 157.04C341.1 156.82 340.92 156.73 340.48 156.73V156.75ZM78.7299 152.99C78.7299 154.36 79.8499 155.49 81.2199 155.49C82.5899 155.49 83.6999 154.36 83.6999 152.99C83.6999 151.62 82.5999 150.52 81.2199 150.52C79.8399 150.52 78.7299 151.62 78.7299 152.99ZM122.33 156.75C121.14 156.75 118.7 156.84 118.52 156.84C118.37 156.84 117.15 156.8 115.84 156.77C113.92 156.71 111.53 156.63 109.76 156.63C101.86 156.63 99.0199 158.56 98.0099 159.27C96.6299 160.23 94.8599 162.3 94.8599 164.75C94.8599 171.3 101.76 176.31 110.72 176.31C111.64 176.31 112.41 176.04 112.41 175.59C112.41 175.22 112.03 174.93 110.7 174.93C104.59 174.93 99.7799 171.66 99.7799 167.42C99.7799 165.9 99.9699 162.8 103.32 160.32C106.67 157.82 110.52 158.01 111.98 158.01C113.04 158.01 114.14 158.12 114.78 158.25C115.05 158.3 116.01 158.51 116.53 158.8C116.57 159.03 116.6 159.27 116.62 159.56C116.71 160.77 116.71 161.85 116.71 167.76V170.67C116.71 180.49 115.52 182.47 112.99 185.02C112.64 185.33 112.1 185.78 111.62 186.05C111.27 186.28 111.13 186.46 111.13 186.69C111.13 186.86 111.3 186.9 111.39 186.9C111.52 186.9 111.62 186.85 111.65 186.85C112.05 186.63 112.72 186.23 113.26 185.87C116.39 183.76 118.13 181.96 118.96 180.03C120.12 177.35 120.25 174.97 120.25 168.78V167.75C120.25 161.84 120.25 160.76 120.3 159.55C120.38 158.2 120.6 157.68 121.67 157.46C122.1 157.36 122.37 157.36 122.65 157.36C122.78 157.36 122.96 157.18 122.96 157.04C122.96 156.82 122.78 156.73 122.33 156.73V156.75ZM73.7599 150.51C72.3899 150.51 71.2799 151.61 71.2799 152.98C71.2799 154.35 72.3899 155.48 73.7599 155.48C75.1299 155.48 76.2399 154.35 76.2399 152.98C76.2399 151.61 75.1299 150.51 73.7599 150.51ZM89.7899 170.07C89.7899 176.32 86.1699 183.71 77.5799 183.71C75.9199 183.71 73.7999 183.3 72.6699 182.65L70.5799 181.33C68.5299 179.86 65.1299 175.63 65.1299 169.54C65.1299 161.49 70.4299 156.51 77.4499 156.51C86.0399 156.51 89.7999 164.47 89.7999 170.08L89.7899 170.07ZM86.5999 169.13C86.5999 161.52 82.9199 158.47 77.7299 158.47C72.8099 158.47 68.3099 162.26 68.3099 170.51C68.3099 180.53 74.0299 181.69 76.8299 181.69C82.4499 181.69 86.5999 177.13 86.5999 169.13Z" fill="url(#paint11_linear_607_10)"/>
<path d="M208.43 93.37C208.43 93.04 208.84 92.91 209.48 92.91C212.9 92.91 216.51 93.1 217.23 93.1C217.83 93.1 220.72 92.91 224.01 92.91C224.92 92.91 225.18 93.1 225.18 93.37C225.18 93.76 224.86 93.84 224.54 93.84C224.01 93.84 222.76 93.84 221.98 94.23C221.57 94.42 221.12 94.95 221.12 95.8C221.12 96.65 221.7 98.96 222.37 101.85C223.35 106.05 230.19 130.16 231.17 133.64H231.3L245.24 96.19C246.23 93.5 246.48 93.17 246.88 93.17C247.33 93.17 247.74 94.01 248.52 96.26L261.6 133.51H261.87C263.64 127.47 269.68 108.42 271.98 100.01C272.64 97.57 272.7 96.66 272.7 95.8C272.7 94.62 271.98 93.84 268.95 93.84C268.62 93.84 268.36 93.63 268.36 93.37C268.36 93.04 268.69 92.91 269.47 92.91C272.83 92.91 275.58 93.1 276.18 93.1C276.64 93.1 279.47 92.91 281.5 92.91C282.09 92.91 282.43 93.04 282.43 93.31C282.43 93.63 282.24 93.84 281.84 93.84C281.56 93.84 280.33 93.9 279.6 94.16C277.63 94.89 276.57 97.64 275.32 101.26C272.43 109.6 265.8 130.49 263.24 137.84C261.53 142.71 261.2 143.49 260.48 143.49C259.82 143.49 259.42 142.64 258.5 140.08L245.63 103.55H245.5C243.13 109.87 234.13 133.91 231.76 140.02C230.71 142.78 230.38 143.49 229.59 143.49C228.93 143.49 228.61 142.77 227.29 138.3L215.59 99.34C214.54 95.85 213.69 94.88 211.99 94.22C211.12 93.89 209.48 93.83 209.03 93.83C208.7 93.83 208.43 93.76 208.43 93.36V93.37ZM165.79 93.44C165.79 93.04 166.13 92.92 166.85 92.92C169.8 92.92 173.94 93.11 174.27 93.11C174.99 93.11 179.99 92.92 182.02 92.92C186.16 92.92 190.57 93.32 194.05 95.8C195.68 96.99 198.57 100.21 198.57 104.74C198.57 109.61 196.54 114.46 190.62 119.92C196.01 126.81 200.48 132.66 204.29 136.74C207.84 140.48 210.67 141.21 212.3 141.47C213.55 141.66 214.48 141.66 214.87 141.66C215.2 141.66 215.46 141.86 215.46 142.06C215.46 142.45 215.07 142.59 213.88 142.59H209.22C205.54 142.59 203.9 142.26 202.19 141.34C199.36 139.83 197.06 136.61 193.32 131.69C190.57 128.07 187.47 123.67 186.17 121.96C185.9 121.69 185.71 121.56 185.31 121.56L177.22 121.43C176.89 121.43 176.76 121.62 176.76 121.95V123.52C176.76 129.83 176.76 135.02 177.09 137.78C177.28 139.69 177.68 141.13 179.64 141.39C180.56 141.52 182.02 141.66 182.61 141.66C183 141.66 183.14 141.86 183.14 142.06C183.14 142.39 182.81 142.59 182.08 142.59C178.47 142.59 174.33 142.39 174 142.39C173.94 142.39 169.8 142.59 167.83 142.59C167.11 142.59 166.78 142.46 166.78 142.06C166.78 141.86 166.91 141.66 167.3 141.66C167.89 141.66 168.68 141.52 169.27 141.39C170.58 141.13 170.92 139.69 171.18 137.78C171.5 135.02 171.5 129.83 171.5 123.52V111.96C171.5 101.71 171.5 99.86 171.37 97.77C171.24 95.53 170.72 94.48 168.55 94.01C168.02 93.89 166.91 93.83 166.31 93.83C166.06 93.83 165.79 93.69 165.79 93.43V93.44ZM176.77 117.68C176.77 118.01 176.9 118.27 177.23 118.47C178.22 119.06 181.24 119.52 184.14 119.52C185.71 119.52 187.55 119.33 189.07 118.27C191.37 116.69 193.07 113.15 193.07 108.15C193.07 99.94 188.73 95.02 181.7 95.02C179.73 95.02 177.96 95.21 177.29 95.41C176.97 95.54 176.77 95.8 176.77 96.2V117.68ZM282.32 141.33C286.06 140.85 287.68 137.76 289.15 133.68L307.6 83.19C308.58 80.51 308.91 80.02 309.4 80.02C309.89 80.02 310.2 80.42 311.17 82.95C312.4 86.04 325.16 119.62 330.12 131.97C333.06 139.21 335.41 140.51 337.12 141C338.34 141.4 339.56 141.48 340.37 141.48C340.86 141.48 341.19 141.56 341.19 141.97C341.19 142.46 340.44 142.62 339.55 142.62C338.33 142.62 332.4 142.62 326.79 142.46C325.25 142.38 324.35 142.38 324.35 141.9C324.35 141.57 324.61 141.41 324.93 141.32C325.42 141.15 325.91 140.43 325.42 139.13L317.86 119.13C317.7 118.8 317.54 118.63 317.12 118.63H299.65C299.23 118.63 298.99 118.89 298.83 119.29L293.94 133.68C293.22 135.71 292.81 137.67 292.81 139.14C292.81 140.75 294.52 141.49 295.9 141.49H296.72C297.28 141.49 297.53 141.65 297.53 141.98C297.53 142.47 297.04 142.63 296.31 142.63C294.35 142.63 290.87 142.39 289.97 142.39C289.07 142.39 284.6 142.63 280.79 142.63C279.73 142.63 279.25 142.47 279.25 141.98C279.25 141.65 279.58 141.49 279.98 141.49C280.54 141.49 281.67 141.41 282.33 141.33H282.32ZM300.54 115.72H316.06C316.46 115.72 316.46 115.47 316.38 115.15L308.66 93.2C308.26 91.99 307.84 91.99 307.44 93.2L300.28 115.15C300.12 115.56 300.28 115.72 300.53 115.72H300.54ZM142.66 123.2H128.54C128.2 123.2 128 123.39 127.88 123.72L123.93 135.35C123.35 137 123.02 138.58 123.02 139.75C123.02 141.07 124.4 141.65 125.51 141.65H126.17C126.63 141.65 126.83 141.78 126.83 142.05C126.83 142.44 126.43 142.58 125.85 142.58C124.27 142.58 121.44 142.38 120.71 142.38C119.98 142.38 116.37 142.58 113.29 142.58C112.43 142.58 112.04 142.45 112.04 142.05C112.04 141.78 112.3 141.65 112.63 141.65C113.1 141.65 114.02 141.59 114.54 141.51C117.57 141.13 118.88 138.63 120.05 135.34L134.98 94.54C135.76 92.37 136.02 91.98 136.41 91.98C136.8 91.98 137.07 92.3 137.86 94.34C138.84 96.84 149.16 123.97 153.17 133.97C155.53 139.81 157.44 140.86 158.83 141.27C159.81 141.6 160.8 141.66 161.45 141.66C161.85 141.66 162.11 141.73 162.11 142.06C162.11 142.45 161.51 142.59 160.8 142.59C159.81 142.59 155.02 142.59 150.48 142.46C149.23 142.39 148.51 142.39 148.51 142C148.51 141.74 148.71 141.61 148.97 141.53C149.37 141.4 149.77 140.82 149.37 139.76L143.25 123.59C143.12 123.34 143 123.2 142.65 123.2H142.66ZM142.07 120.37L135.82 102.63C135.5 101.65 135.18 101.65 134.84 102.63L129.05 120.37C128.92 120.71 129.05 120.84 129.26 120.84H141.8C142.12 120.84 142.12 120.64 142.06 120.37H142.07ZM65.3701 81.82C65.3701 81.33 65.7801 81.17 66.6701 81.17C70.3301 81.17 75.4401 81.41 75.8601 81.41C77.8101 81.41 80.9901 81.17 84.7201 81.17C98.0601 81.17 100.98 89.3 100.98 93.37C100.98 100.03 97.1601 104.02 93.3401 107.99C99.3601 109.87 107.41 115.64 107.41 125.14C107.41 133.85 100.58 142.87 86.6701 142.87C85.7801 142.87 83.1801 142.7 80.8201 142.62C78.4601 142.46 76.1801 142.38 75.8601 142.38C75.7001 142.38 74.3101 142.38 72.6101 142.46C70.9901 142.46 69.1201 142.62 67.9001 142.62C67.0101 142.62 66.6001 142.46 66.6001 141.97C66.6001 141.73 66.7501 141.48 67.2401 141.48C67.9801 141.48 68.9501 141.32 69.6801 141.15C71.3101 140.83 71.7101 139.04 72.0401 136.68C72.4501 133.27 72.4501 126.85 72.4501 119.04V104.73C72.4501 92.05 72.4501 89.77 72.2901 87.17C72.1201 84.41 71.4701 83.11 68.7901 82.53C68.1501 82.37 66.7501 82.29 66.0301 82.29C65.7001 82.29 65.3701 82.12 65.3701 81.8V81.82ZM78.9401 106.54C78.9401 107.11 79.1101 107.27 79.5101 107.43C80.0001 107.51 81.4601 107.75 84.4801 107.75C89.0301 107.75 90.1701 107.59 91.8801 105.64C93.5901 103.68 94.8001 100.77 94.8001 97.43C94.8001 90.68 91.7901 83.44 83.8301 83.44C82.9301 83.44 81.2301 83.52 79.9201 83.85C79.2001 84.01 78.9401 84.26 78.9401 84.75V106.54ZM78.9401 115.15C78.9401 121.42 78.9401 131.49 79.0301 132.71C79.2801 136.68 79.2801 137.82 81.8001 139.05C83.9901 140.11 87.4801 140.27 88.9501 140.27C93.3301 140.27 100.41 137.92 100.41 128.72C100.41 123.85 98.7901 116.77 92.5301 112.47C89.7601 110.6 87.7301 110.36 85.7701 110.11C84.7101 109.95 80.6401 109.95 79.4301 109.95C79.1001 109.95 78.9301 110.11 78.9301 110.52V115.15H78.9401Z" fill="url(#paint12_linear_607_10)"/>
<path d="M353.84 186.97C353.84 184.15 355.99 182.11 358.92 182.11C361.85 182.11 364 184.15 364 186.97C364 189.79 361.85 191.77 358.92 191.77C355.99 191.77 353.84 189.67 353.84 186.97ZM363.06 186.92C363.06 184.55 361.29 182.94 358.92 182.94C356.55 182.94 354.78 184.54 354.78 186.92C354.78 189.3 356.55 190.95 358.97 190.95C361.39 190.95 363.06 189.24 363.06 186.92ZM357.04 186.15C357.04 185.32 356.98 184.94 356.98 184.66C356.98 184.33 356.81 184.28 356.37 184.28C356.31 184.28 356.2 184.22 356.2 184.17C356.2 184.06 356.31 184.01 356.48 184.01H356.76C356.87 184.01 357.31 184.06 357.48 184.06C357.98 184.06 358.2 184.01 358.64 184.01C359.58 184.01 360.96 184.17 360.96 185.5C360.96 186.05 360.79 186.49 359.97 187.16L360.91 188.32C361.63 189.2 361.85 189.26 361.96 189.26C362.07 189.26 362.13 189.32 362.13 189.37C362.13 189.48 362.07 189.54 361.74 189.54C361.02 189.54 360.64 189.6 359.81 188.49L359.04 187.44H358.04V187.93C358.04 189.03 358.1 189.09 358.15 189.14C358.26 189.2 358.54 189.25 358.7 189.25C358.81 189.25 358.86 189.25 358.86 189.36C358.86 189.47 358.75 189.53 358.64 189.53H358.42C358.31 189.53 357.81 189.47 357.54 189.47C357.38 189.47 356.82 189.53 356.71 189.53H356.43C356.32 189.53 356.21 189.53 356.21 189.42C356.21 189.31 356.32 189.25 356.43 189.25C356.763 189.25 356.947 189.14 356.98 188.92C356.98 188.64 357.04 188.26 357.04 187.38V186.16V186.15ZM358.03 186.81C358.2 186.92 358.53 186.98 358.86 186.98C359.03 186.98 359.25 186.93 359.41 186.81C359.69 186.64 359.91 186.37 359.91 185.82C359.91 185.05 359.41 184.49 358.53 184.49C358.47 184.49 358.14 184.49 358.03 184.6V186.81Z" fill="#003DA6"/>
<defs>
<linearGradient id="paint0_linear_607_10" x1="357.721" y1="71.1102" x2="357.721" y2="56.5602" gradientUnits="userSpaceOnUse">
<stop stop-color="#8C004E"/>
<stop offset="1" stop-color="#D7007A"/>
</linearGradient>
<linearGradient id="paint1_linear_607_10" x1="178.89" y1="-35.3899" x2="383.65" y2="60.09" gradientUnits="userSpaceOnUse">
<stop stop-color="#00A5E5"/>
<stop offset="0.09" stop-color="#00C0F3"/>
<stop offset="0.17" stop-color="#B9E5FB"/>
<stop offset="0.25" stop-color="#00C0F3"/>
<stop offset="0.33" stop-color="#00A5E5"/>
<stop offset="0.5" stop-color="#003854"/>
<stop offset="0.64" stop-color="#00A5E5"/>
<stop offset="0.73" stop-color="#005679"/>
<stop offset="0.83" stop-color="#00C0F3"/>
<stop offset="0.93" stop-color="#B9E5FB"/>
<stop offset="1" stop-color="#00A5E5"/>
</linearGradient>
<linearGradient id="paint2_linear_607_10" x1="266.03" y1="26.9" x2="266.03" y2="13.27" gradientUnits="userSpaceOnUse">
<stop stop-color="#333333"/>
<stop offset="1" stop-color="#999999"/>
</linearGradient>
<linearGradient id="paint3_linear_607_10" x1="109.59" y1="37.6001" x2="359.66" y2="37.6001" gradientUnits="userSpaceOnUse">
<stop stop-color="#BA8748"/>
<stop offset="0.18" stop-color="#CE9461"/>
<stop offset="0.23" stop-color="#FEDBB4"/>
<stop offset="0.3" stop-color="#BA8748"/>
<stop offset="0.47" stop-color="#3D2901"/>
<stop offset="0.62" stop-color="#BA8748"/>
<stop offset="0.75" stop-color="#CFA565"/>
<stop offset="0.82" stop-color="#FEDBB4"/>
<stop offset="0.88" stop-color="#CFA565"/>
<stop offset="1" stop-color="#BA8748"/>
</linearGradient>
<linearGradient id="paint4_linear_607_10" x1="314.94" y1="43.6601" x2="314.94" y2="32.3301" gradientUnits="userSpaceOnUse">
<stop stop-color="#333333"/>
<stop offset="1" stop-color="#999999"/>
</linearGradient>
<linearGradient id="paint5_linear_607_10" x1="216.37" y1="41.5698" x2="216.37" y2="55.9398" gradientUnits="userSpaceOnUse">
<stop stop-color="#333333"/>
<stop offset="1" stop-color="#999999"/>
</linearGradient>
<linearGradient id="paint6_linear_607_10" x1="88.7998" y1="36.48" x2="338.88" y2="36.48" gradientUnits="userSpaceOnUse">
<stop offset="0.14" stop-color="#006CB7"/>
<stop offset="0.31" stop-color="#001841"/>
<stop offset="0.58" stop-color="#0066B3"/>
<stop offset="0.73" stop-color="#0091D0"/>
<stop offset="0.8" stop-color="#92C5EB"/>
<stop offset="0.88" stop-color="#0091D0"/>
<stop offset="1" stop-color="#00599A"/>
</linearGradient>
<linearGradient id="paint7_linear_607_10" x1="184.86" y1="22.9902" x2="184.86" y2="33.3102" gradientUnits="userSpaceOnUse">
<stop stop-color="#333333"/>
<stop offset="1" stop-color="#999999"/>
</linearGradient>
<linearGradient id="paint8_linear_607_10" x1="19.77" y1="-15.1598" x2="225.82" y2="80.9302" gradientUnits="userSpaceOnUse">
<stop stop-color="#D9BB93"/>
<stop offset="0.26" stop-color="#F0E5D5"/>
<stop offset="0.37" stop-color="#D9BB93"/>
<stop offset="0.53" stop-color="#493F2E"/>
<stop offset="0.68" stop-color="#D9BB93"/>
<stop offset="0.79" stop-color="#F0E5D5"/>
<stop offset="1" stop-color="#D9BB93"/>
</linearGradient>
<linearGradient id="paint9_linear_607_10" x1="126.13" y1="41.0001" x2="121.54" y2="48.9501" gradientUnits="userSpaceOnUse">
<stop stop-color="#333333"/>
<stop offset="1" stop-color="#999999"/>
</linearGradient>
<linearGradient id="paint10_linear_607_10" x1="107.86" y1="35.9001" x2="147.8" y2="42.9501" gradientUnits="userSpaceOnUse">
<stop stop-color="#BA8748"/>
<stop offset="1" stop-color="#CE9461"/>
</linearGradient>
<linearGradient id="paint11_linear_607_10" x1="203.12" y1="192.14" x2="203.12" y2="150.52" gradientUnits="userSpaceOnUse">
<stop offset="0.14" stop-color="#006CB7"/>
<stop offset="0.31" stop-color="#00467D"/>
<stop offset="0.58" stop-color="#0066B3"/>
<stop offset="0.73" stop-color="#0091D0"/>
<stop offset="0.8" stop-color="#92C5EB"/>
<stop offset="0.88" stop-color="#0091D0"/>
<stop offset="1" stop-color="#00599A"/>
</linearGradient>
<linearGradient id="paint12_linear_607_10" x1="203.28" y1="143.5" x2="203.28" y2="80.03" gradientUnits="userSpaceOnUse">
<stop offset="0.14" stop-color="#006CB7"/>
<stop offset="0.31" stop-color="#00467D"/>
<stop offset="0.49" stop-color="#0066B3"/>
<stop offset="0.65" stop-color="#0091D0"/>
<stop offset="0.75" stop-color="#92C5EB"/>
<stop offset="0.85" stop-color="#0091D0"/>
<stop offset="1" stop-color="#00599A"/>
</linearGradient>
</defs>
</svg>
