<svg width="476" height="110" viewBox="0 0 476 110" fill="none" xmlns="http://www.w3.org/2000/svg">
<g clip-path="url(#clip0_634_2)">
<path d="M7.40021 29.4504C7.4002 30.1035 7.2065 30.7419 6.84344 31.2848C6.48039 31.8277 5.96436 32.2507 5.36078 32.5001C4.7572 32.7496 4.09323 32.8144 3.45282 32.6862C2.81241 32.5581 2.22435 32.2428 1.76324 31.7803C1.30213 31.3178 0.988685 30.7289 0.862486 30.0881C0.736286 29.4473 0.803077 28.7834 1.05438 28.1806C1.30568 27.5778 1.73011 27.0631 2.27411 26.7017C2.8181 26.3403 3.45719 26.1484 4.11029 26.1504C4.54318 26.1504 4.97183 26.2358 5.37164 26.4018C5.77145 26.5677 6.13449 26.811 6.44012 27.1176C6.74576 27.4241 6.9879 27.788 7.15265 28.1883C7.3174 28.5886 7.40152 29.0175 7.40021 29.4504Z" fill="#999999"/>
<path d="M40.7099 29.4504C40.7099 30.1031 40.5163 30.7411 40.1537 31.2838C39.7911 31.8265 39.2758 32.2494 38.6728 32.4992C38.0698 32.749 37.4062 32.8143 36.766 32.687C36.1259 32.5597 35.538 32.2454 35.0765 31.7839C34.6149 31.3223 34.3006 30.7343 34.1733 30.0942C34.0459 29.4541 34.1114 28.7905 34.3611 28.1875C34.6109 27.5845 35.0338 27.0692 35.5765 26.7066C36.1191 26.3439 36.7571 26.1504 37.4098 26.1504C37.8436 26.1491 38.2733 26.2335 38.6742 26.3989C39.0752 26.5643 39.4396 26.8073 39.7463 27.114C40.0529 27.4207 40.296 27.785 40.4613 28.186C40.6267 28.587 40.7112 29.0167 40.7099 29.4504Z" fill="#999999"/>
<path d="M74.0102 29.4504C74.0102 30.1035 73.8164 30.7419 73.4533 31.2848C73.0903 31.8277 72.5742 32.2507 71.9706 32.5001C71.3671 32.7496 70.7031 32.8144 70.0627 32.6862C69.4223 32.5581 68.8342 32.2428 68.3731 31.7803C67.912 31.3178 67.5985 30.7289 67.4723 30.0881C67.3461 29.4473 67.4129 28.7834 67.6642 28.1806C67.9155 27.5778 68.3401 27.0631 68.8841 26.7017C69.4281 26.3403 70.0671 26.1484 70.7202 26.1504C71.153 26.1504 71.5817 26.2358 71.9815 26.4018C72.3813 26.5677 72.7445 26.811 73.0501 27.1176C73.3557 27.4241 73.5979 27.788 73.7626 28.1883C73.9274 28.5886 74.0115 29.0175 74.0102 29.4504Z" fill="#999999"/>
<path d="M107.33 29.4504C107.33 30.1031 107.136 30.7411 106.774 31.2838C106.411 31.8265 105.896 32.2494 105.293 32.4992C104.69 32.749 104.026 32.8143 103.386 32.687C102.746 32.5597 102.158 32.2454 101.697 31.7839C101.235 31.3223 100.921 30.7343 100.793 30.0942C100.666 29.4541 100.731 28.7905 100.981 28.1875C101.231 27.5845 101.654 27.0692 102.197 26.7066C102.739 26.3439 103.377 26.1504 104.03 26.1504C104.464 26.1491 104.893 26.2335 105.294 26.3989C105.695 26.5643 106.06 26.8073 106.366 27.114C106.673 27.4207 106.916 27.785 107.081 28.186C107.247 28.587 107.331 29.0167 107.33 29.4504Z" fill="#999999"/>
<path d="M140.62 29.4504C140.62 30.1035 140.426 30.7419 140.063 31.2848C139.7 31.8277 139.184 32.2507 138.581 32.5001C137.977 32.7496 137.313 32.8144 136.673 32.6862C136.032 32.5581 135.444 32.2428 134.983 31.7803C134.522 31.3178 134.208 30.7289 134.082 30.0881C133.956 29.4473 134.023 28.7834 134.274 28.1806C134.525 27.5778 134.95 27.0631 135.494 26.7017C136.038 26.3403 136.677 26.1484 137.33 26.1504C137.763 26.1504 138.192 26.2358 138.591 26.4018C138.991 26.5677 139.354 26.811 139.66 27.1176C139.966 27.4241 140.208 27.788 140.372 28.1883C140.537 28.5886 140.621 29.0175 140.62 29.4504Z" fill="#999999"/>
<path d="M173.93 29.4504C173.93 30.1031 173.737 30.7411 173.374 31.2838C173.011 31.8265 172.496 32.2494 171.893 32.4992C171.29 32.749 170.627 32.8143 169.986 32.687C169.346 32.5597 168.758 32.2454 168.297 31.7839C167.835 31.3223 167.521 30.7343 167.393 30.0942C167.266 29.4541 167.332 28.7905 167.581 28.1875C167.831 27.5845 168.254 27.0692 168.797 26.7066C169.339 26.3439 169.977 26.1504 170.63 26.1504C171.064 26.1491 171.494 26.2335 171.895 26.3989C172.296 26.5643 172.66 26.8073 172.966 27.114C173.273 27.4207 173.516 27.785 173.682 28.186C173.847 28.587 173.931 29.0167 173.93 29.4504Z" fill="#999999"/>
<path d="M207.23 29.4504C207.23 30.1035 207.036 30.7419 206.673 31.2848C206.31 31.8277 205.794 32.2507 205.19 32.5001C204.587 32.7496 203.923 32.8144 203.282 32.6862C202.642 32.5581 202.054 32.2428 201.593 31.7803C201.132 31.3178 200.818 30.7289 200.692 30.0881C200.566 29.4473 200.633 28.7834 200.884 28.1806C201.135 27.5778 201.56 27.0631 202.104 26.7017C202.648 26.3403 203.287 26.1484 203.94 26.1504C204.373 26.1504 204.801 26.2358 205.201 26.4018C205.601 26.5677 205.964 26.811 206.27 27.1176C206.575 27.4241 206.818 27.788 206.982 28.1883C207.147 28.5886 207.231 29.0175 207.23 29.4504Z" fill="#999999"/>
<path d="M240.53 29.4504C240.53 30.1035 240.336 30.7419 239.973 31.2848C239.61 31.8277 239.094 32.2507 238.491 32.5001C237.887 32.7496 237.223 32.8144 236.583 32.6862C235.942 32.5581 235.354 32.2428 234.893 31.7803C234.432 31.3178 234.119 30.7289 233.992 30.0881C233.866 29.4473 233.933 28.7834 234.184 28.1806C234.436 27.5778 234.86 27.0631 235.404 26.7017C235.948 26.3403 236.587 26.1484 237.24 26.1504C237.673 26.1504 238.102 26.2358 238.502 26.4018C238.901 26.5677 239.264 26.811 239.57 27.1176C239.876 27.4241 240.118 27.788 240.283 28.1883C240.447 28.5886 240.531 29.0175 240.53 29.4504Z" fill="#999999"/>
<path d="M273.84 29.4504C273.84 30.1031 273.647 30.7411 273.284 31.2838C272.921 31.8265 272.406 32.2494 271.803 32.4992C271.2 32.749 270.537 32.8143 269.896 32.687C269.256 32.5597 268.668 32.2454 268.207 31.7839C267.745 31.3223 267.431 30.7343 267.304 30.0942C267.176 29.4541 267.242 28.7905 267.491 28.1875C267.741 27.5845 268.164 27.0692 268.707 26.7066C269.25 26.3439 269.888 26.1504 270.54 26.1504C270.974 26.1491 271.404 26.2335 271.805 26.3989C272.206 26.5643 272.57 26.8073 272.877 27.114C273.183 27.4207 273.426 27.785 273.592 28.186C273.757 28.587 273.842 29.0167 273.84 29.4504Z" fill="#999999"/>
<path d="M307.14 29.4504C307.14 30.1035 306.946 30.7419 306.583 31.2848C306.22 31.8277 305.704 32.2507 305.101 32.5001C304.497 32.7496 303.833 32.8144 303.193 32.6862C302.552 32.5581 301.964 32.2428 301.503 31.7803C301.042 31.3178 300.728 30.7289 300.602 30.0881C300.476 29.4473 300.543 28.7834 300.794 28.1806C301.045 27.5778 301.47 27.0631 302.014 26.7017C302.558 26.3403 303.197 26.1484 303.85 26.1504C304.283 26.1504 304.712 26.2358 305.111 26.4018C305.511 26.5677 305.874 26.811 306.18 27.1176C306.486 27.4241 306.728 27.788 306.893 28.1883C307.057 28.5886 307.141 29.0175 307.14 29.4504Z" fill="#999999"/>
<path d="M340.45 29.4504C340.45 30.1031 340.257 30.7411 339.894 31.2838C339.531 31.8265 339.016 32.2494 338.413 32.4992C337.81 32.749 337.146 32.8143 336.506 32.687C335.866 32.5597 335.278 32.2454 334.817 31.7839C334.355 31.3223 334.041 30.7343 333.913 30.0942C333.786 29.4541 333.852 28.7905 334.101 28.1875C334.351 27.5845 334.774 27.0692 335.317 26.7066C335.859 26.3439 336.497 26.1504 337.15 26.1504C337.584 26.1491 338.014 26.2335 338.415 26.3989C338.816 26.5643 339.18 26.8073 339.486 27.114C339.793 27.4207 340.036 27.785 340.202 28.186C340.367 28.587 340.451 29.0167 340.45 29.4504Z" fill="#999999"/>
<path d="M7.40021 54.7001C7.40218 55.3537 7.21017 55.9931 6.84833 56.5373C6.48648 57.0815 5.97114 57.506 5.36773 57.757C4.76433 58.008 4.09999 58.0742 3.45892 57.9472C2.81785 57.8202 2.2289 57.5057 1.76678 57.0436C1.30467 56.5815 0.99023 55.9926 0.863218 55.3515C0.736206 54.7104 0.802396 54.0461 1.0534 53.4427C1.30441 52.8393 1.72892 52.324 2.27313 51.9621C2.81734 51.6003 3.45676 51.4082 4.11029 51.4102C4.98285 51.4102 5.81959 51.7568 6.43658 52.3738C7.05358 52.9908 7.40021 53.8276 7.40021 54.7001Z" fill="#999999"/>
<path d="M40.7099 54.7001C40.7119 55.3533 40.52 55.9923 40.1586 56.5363C39.7972 57.0803 39.2825 57.5048 38.6797 57.7561C38.0769 58.0074 37.4131 58.0742 36.7723 57.948C36.1315 57.8218 35.5425 57.5082 35.08 57.0471C34.6175 56.586 34.3021 55.9981 34.174 55.3577C34.0458 54.7172 34.1107 54.0532 34.3601 53.4496C34.6096 52.8461 35.0326 52.33 35.5755 51.967C36.1184 51.6039 36.7567 51.4102 37.4098 51.4102C37.8427 51.4089 38.2716 51.493 38.6719 51.6577C39.0722 51.8225 39.4362 52.0646 39.7427 52.3702C40.0493 52.6759 40.2926 53.039 40.4585 53.4388C40.6245 53.8386 40.7099 54.2673 40.7099 54.7001Z" fill="#999999"/>
<path d="M107.33 54.7001C107.332 55.3533 107.14 55.9923 106.779 56.5363C106.417 57.0803 105.903 57.5048 105.3 57.7561C104.697 58.0074 104.033 58.0742 103.392 57.948C102.752 57.8218 102.163 57.5082 101.7 57.0471C101.238 56.586 100.922 55.9981 100.794 55.3577C100.666 54.7172 100.731 54.0532 100.98 53.4496C101.23 52.8461 101.653 52.33 102.196 51.967C102.738 51.6039 103.377 51.4102 104.03 51.4102C104.463 51.4089 104.892 51.493 105.292 51.6577C105.692 51.8225 106.056 52.0646 106.363 52.3702C106.669 52.6759 106.913 53.039 107.079 53.4388C107.245 53.8386 107.33 54.2673 107.33 54.7001Z" fill="#999999"/>
<path d="M140.62 54.7001C140.622 55.3537 140.43 55.9931 140.068 56.5373C139.706 57.0815 139.191 57.506 138.587 57.757C137.984 58.008 137.32 58.0742 136.679 57.9472C136.038 57.8202 135.449 57.5057 134.987 57.0436C134.525 56.5815 134.21 55.9926 134.083 55.3515C133.956 54.7104 134.022 54.0461 134.273 53.4427C134.524 52.8393 134.949 52.324 135.493 51.9621C136.037 51.6003 136.676 51.4082 137.33 51.4102C138.203 51.4102 139.039 51.7568 139.656 52.3738C140.273 52.9908 140.62 53.8276 140.62 54.7001Z" fill="#999999"/>
<path d="M207.23 54.7001C207.232 55.3537 207.04 55.9931 206.678 56.5373C206.316 57.0815 205.801 57.506 205.197 57.757C204.594 58.008 203.93 58.0742 203.289 57.9472C202.647 57.8202 202.059 57.5057 201.596 57.0436C201.134 56.5815 200.82 55.9926 200.693 55.3515C200.566 54.7104 200.632 54.0461 200.883 53.4427C201.134 52.8393 201.559 52.324 202.103 51.9621C202.647 51.6003 203.286 51.4082 203.94 51.4102C204.812 51.4102 205.649 51.7568 206.266 52.3738C206.883 52.9908 207.23 53.8276 207.23 54.7001Z" fill="#999999"/>
<path d="M240.53 54.7001C240.532 55.3537 240.34 55.9931 239.978 56.5373C239.616 57.0815 239.101 57.506 238.498 57.757C237.894 58.008 237.23 58.0742 236.589 57.9472C235.948 57.8202 235.359 57.5057 234.897 57.0436C234.435 56.5815 234.12 55.9926 233.993 55.3515C233.866 54.7104 233.932 54.0461 234.183 53.4427C234.434 52.8393 234.859 52.324 235.403 51.9621C235.947 51.6003 236.587 51.4082 237.24 51.4102C238.113 51.4102 238.949 51.7568 239.566 52.3738C240.183 52.9908 240.53 53.8276 240.53 54.7001Z" fill="#999999"/>
<path d="M307.14 54.7001C307.142 55.3537 306.95 55.9931 306.588 56.5373C306.226 57.0815 305.711 57.506 305.107 57.757C304.504 58.008 303.84 58.0742 303.199 57.9472C302.558 57.8202 301.969 57.5057 301.507 57.0436C301.044 56.5815 300.73 55.9926 300.603 55.3515C300.476 54.7104 300.542 54.0461 300.793 53.4427C301.044 52.8393 301.469 52.324 302.013 51.9621C302.557 51.6003 303.197 51.4082 303.85 51.4102C304.723 51.4102 305.559 51.7568 306.176 52.3738C306.793 52.9908 307.14 53.8276 307.14 54.7001Z" fill="#999999"/>
<path d="M340.45 54.7001C340.452 55.3533 340.26 55.9923 339.899 56.5363C339.537 57.0803 339.023 57.5048 338.42 57.7561C337.817 58.0074 337.153 58.0742 336.512 57.948C335.872 57.8218 335.283 57.5082 334.82 57.0471C334.358 56.586 334.042 55.9981 333.914 55.3577C333.786 54.7172 333.851 54.0532 334.1 53.4496C334.35 52.8461 334.773 52.33 335.316 51.967C335.859 51.6039 336.497 51.4102 337.15 51.4102C337.583 51.4089 338.012 51.493 338.412 51.6577C338.813 51.8225 339.176 52.0646 339.483 52.3702C339.79 52.6759 340.033 53.039 340.199 53.4388C340.365 53.8386 340.45 54.2673 340.45 54.7001Z" fill="#999999"/>
<path d="M7.40021 4.2805C7.4002 4.93361 7.2065 5.57202 6.84344 6.11491C6.48039 6.65781 5.96436 7.08077 5.36078 7.33025C4.7572 7.57972 4.09323 7.64449 3.45282 7.51634C2.81241 7.3882 2.22435 7.07291 1.76324 6.6104C1.30213 6.14788 0.988685 5.55893 0.862486 4.91814C0.736286 4.27734 0.803077 3.61352 1.05438 3.0107C1.30568 2.40788 1.73011 1.89319 2.27411 1.53178C2.8181 1.17038 3.45719 0.978505 4.11029 0.980484C4.54318 0.980482 4.97183 1.06592 5.37164 1.23189C5.77145 1.39785 6.13449 1.64108 6.44012 1.94765C6.74576 2.25421 6.9879 2.61807 7.15265 3.01839C7.3174 3.4187 7.40152 3.84761 7.40021 4.2805Z" fill="#999999"/>
<path d="M74.0102 4.2805C74.0102 4.93361 73.8164 5.57202 73.4533 6.11491C73.0903 6.65781 72.5742 7.08077 71.9706 7.33025C71.3671 7.57972 70.7031 7.64449 70.0627 7.51634C69.4223 7.3882 68.8342 7.07291 68.3731 6.6104C67.912 6.14788 67.5985 5.55893 67.4723 4.91814C67.3461 4.27734 67.4129 3.61352 67.6642 3.0107C67.9155 2.40788 68.3401 1.89319 68.8841 1.53178C69.4281 1.17038 70.0671 0.978505 70.7202 0.980484C71.153 0.980482 71.5817 1.06592 71.9815 1.23189C72.3813 1.39785 72.7445 1.64108 73.0501 1.94765C73.3557 2.25421 73.5979 2.61807 73.7626 3.01839C73.9274 3.4187 74.0115 3.84761 74.0102 4.2805Z" fill="#999999"/>
<path d="M107.33 4.2805C107.33 4.93318 107.136 5.57119 106.774 6.11388C106.411 6.65656 105.896 7.07953 105.293 7.3293C104.69 7.57907 104.026 7.64441 103.386 7.51707C102.746 7.38974 102.158 7.07545 101.697 6.61394C101.235 6.15242 100.921 5.56444 100.793 4.9243C100.666 4.28416 100.731 3.62062 100.981 3.01762C101.231 2.41463 101.654 1.89925 102.197 1.53664C102.739 1.17403 103.377 0.980484 104.03 0.980484C104.464 0.979164 104.893 1.06362 105.294 1.22899C105.695 1.39436 106.06 1.63741 106.366 1.94411C106.673 2.2508 106.916 2.6151 107.081 3.01607C107.247 3.41704 107.331 3.84677 107.33 4.2805Z" fill="#999999"/>
<path d="M173.93 4.2805C173.93 4.93318 173.737 5.57119 173.374 6.11388C173.011 6.65656 172.496 7.07953 171.893 7.3293C171.29 7.57907 170.627 7.64441 169.986 7.51707C169.346 7.38974 168.758 7.07545 168.297 6.61394C167.835 6.15242 167.521 5.56444 167.393 4.9243C167.266 4.28416 167.332 3.62062 167.581 3.01762C167.831 2.41463 168.254 1.89925 168.797 1.53664C169.339 1.17403 169.977 0.980484 170.63 0.980484C171.064 0.979164 171.494 1.06362 171.895 1.22899C172.296 1.39436 172.66 1.63741 172.966 1.94411C173.273 2.2508 173.516 2.6151 173.682 3.01607C173.847 3.41704 173.931 3.84677 173.93 4.2805Z" fill="#999999"/>
<path d="M207.23 4.2805C207.23 4.93361 207.036 5.57202 206.673 6.11491C206.31 6.65781 205.794 7.08077 205.19 7.33025C204.587 7.57972 203.923 7.64449 203.282 7.51634C202.642 7.3882 202.054 7.07291 201.593 6.6104C201.132 6.14788 200.818 5.55893 200.692 4.91814C200.566 4.27734 200.633 3.61352 200.884 3.0107C201.135 2.40788 201.56 1.89319 202.104 1.53178C202.648 1.17038 203.287 0.978505 203.94 0.980484C204.373 0.980482 204.801 1.06592 205.201 1.23189C205.601 1.39785 205.964 1.64108 206.27 1.94765C206.575 2.25421 206.818 2.61807 206.982 3.01839C207.147 3.4187 207.231 3.84761 207.23 4.2805Z" fill="#999999"/>
<path d="M273.84 4.2805C273.84 4.93318 273.647 5.57119 273.284 6.11388C272.921 6.65656 272.406 7.07953 271.803 7.3293C271.2 7.57907 270.537 7.64441 269.896 7.51707C269.256 7.38974 268.668 7.07545 268.207 6.61394C267.745 6.15242 267.431 5.56444 267.304 4.9243C267.176 4.28416 267.242 3.62062 267.491 3.01762C267.741 2.41463 268.164 1.89925 268.707 1.53664C269.25 1.17403 269.888 0.980484 270.54 0.980484C270.974 0.979164 271.404 1.06362 271.805 1.22899C272.206 1.39436 272.57 1.63741 272.877 1.94411C273.183 2.2508 273.426 2.6151 273.592 3.01607C273.757 3.41704 273.842 3.84677 273.84 4.2805Z" fill="#999999"/>
<path d="M307.14 4.2805C307.14 4.93361 306.946 5.57202 306.583 6.11491C306.22 6.65781 305.704 7.08077 305.101 7.33025C304.497 7.57972 303.833 7.64449 303.193 7.51634C302.552 7.3882 301.964 7.07291 301.503 6.6104C301.042 6.14788 300.728 5.55893 300.602 4.91814C300.476 4.27734 300.543 3.61352 300.794 3.0107C301.045 2.40788 301.47 1.89319 302.014 1.53178C302.558 1.17038 303.197 0.978505 303.85 0.980484C304.283 0.980482 304.712 1.06592 305.111 1.23189C305.511 1.39785 305.874 1.64108 306.18 1.94765C306.486 2.25421 306.728 2.61807 306.893 3.01839C307.057 3.4187 307.141 3.84761 307.14 4.2805Z" fill="#999999"/>
<path d="M7.40021 79.9902C7.40218 80.6437 7.21017 81.2831 6.84833 81.8273C6.48648 82.3716 5.97114 82.7961 5.36773 83.0471C4.76433 83.2981 4.09999 83.3643 3.45892 83.2373C2.81785 83.1103 2.2289 82.7958 1.76678 82.3337C1.30467 81.8715 0.99023 81.2826 0.863218 80.6416C0.736206 80.0005 0.802396 79.3361 1.0534 78.7327C1.30441 78.1293 1.72892 77.6141 2.27313 77.2522C2.81734 76.8904 3.45676 76.6982 4.11029 76.7002C4.54234 76.7002 4.97016 76.7853 5.36932 76.9507C5.76848 77.116 6.13108 77.3583 6.43658 77.6638C6.74209 77.9693 6.9845 78.332 7.14984 78.7312C7.31518 79.1303 7.40021 79.5582 7.40021 79.9902Z" fill="#999999"/>
<path d="M40.7099 79.9902C40.7119 80.6433 40.52 81.2823 40.1586 81.8263C39.7972 82.3703 39.2825 82.7948 38.6797 83.0461C38.0769 83.2974 37.4131 83.3642 36.7723 83.238C36.1315 83.1118 35.5425 82.7983 35.08 82.3372C34.6175 81.8761 34.3021 81.2881 34.174 80.6477C34.0458 80.0073 34.1107 79.3432 34.3601 78.7397C34.6096 78.1361 35.0326 77.6201 35.5755 77.257C36.1184 76.894 36.7567 76.7002 37.4098 76.7002C38.2833 76.7002 39.1212 77.0465 39.7398 77.6632C40.3584 78.2799 40.7072 79.1167 40.7099 79.9902Z" fill="#999999"/>
<path d="M74.0102 79.9902C74.0122 80.6437 73.82 81.2831 73.4582 81.8273C73.0963 82.3716 72.581 82.7961 71.9776 83.0471C71.3742 83.2981 70.7099 83.3643 70.0688 83.2373C69.4277 83.1103 68.8388 82.7958 68.3766 82.3337C67.9145 81.8715 67.6001 81.2826 67.4731 80.6416C67.3461 80.0005 67.4123 79.3361 67.6633 78.7327C67.9143 78.1293 68.3388 77.6141 68.883 77.2522C69.4272 76.8904 70.0666 76.6982 70.7202 76.7002C71.1522 76.7002 71.58 76.7853 71.9792 76.9507C72.3783 77.116 72.7411 77.3583 73.0466 77.6638C73.3521 77.9693 73.5944 78.332 73.7597 78.7312C73.925 79.1303 74.0102 79.5582 74.0102 79.9902Z" fill="#999999"/>
<path d="M107.33 79.9902C107.332 80.6433 107.14 81.2823 106.779 81.8263C106.417 82.3703 105.903 82.7948 105.3 83.0461C104.697 83.2974 104.033 83.3642 103.392 83.238C102.752 83.1118 102.163 82.7983 101.7 82.3372C101.238 81.8761 100.922 81.2881 100.794 80.6477C100.666 80.0073 100.731 79.3432 100.98 78.7397C101.23 78.1361 101.653 77.6201 102.196 77.257C102.738 76.894 103.377 76.7002 104.03 76.7002C104.903 76.7002 105.741 77.0465 106.36 77.6632C106.978 78.2799 107.327 79.1167 107.33 79.9902Z" fill="#999999"/>
<path d="M140.62 79.9902C140.622 80.6437 140.43 81.2831 140.068 81.8273C139.706 82.3716 139.191 82.7961 138.587 83.0471C137.984 83.2981 137.32 83.3643 136.679 83.2373C136.038 83.1103 135.449 82.7958 134.987 82.3337C134.525 81.8715 134.21 81.2826 134.083 80.6416C133.956 80.0005 134.022 79.3361 134.273 78.7327C134.524 78.1293 134.949 77.6141 135.493 77.2522C136.037 76.8904 136.676 76.6982 137.33 76.7002C137.762 76.7002 138.19 76.7853 138.589 76.9507C138.988 77.116 139.351 77.3583 139.656 77.6638C139.962 77.9693 140.204 78.332 140.37 78.7312C140.535 79.1303 140.62 79.5582 140.62 79.9902Z" fill="#999999"/>
<path d="M173.93 79.9902C173.932 80.6433 173.74 81.2823 173.379 81.8263C173.017 82.3703 172.503 82.7948 171.9 83.0461C171.297 83.2974 170.633 83.3642 169.992 83.238C169.352 83.1118 168.763 82.7983 168.3 82.3372C167.838 81.8761 167.522 81.2881 167.394 80.6477C167.266 80.0073 167.331 79.3432 167.58 78.7397C167.83 78.1361 168.253 77.6201 168.796 77.257C169.339 76.894 169.977 76.7002 170.63 76.7002C171.504 76.7002 172.341 77.0465 172.96 77.6632C173.578 78.2799 173.927 79.1167 173.93 79.9902Z" fill="#999999"/>
<path d="M207.23 79.9902C207.232 80.6437 207.04 81.2831 206.678 81.8273C206.316 82.3716 205.801 82.7961 205.197 83.0471C204.594 83.2981 203.93 83.3643 203.289 83.2373C202.647 83.1103 202.059 82.7958 201.596 82.3337C201.134 81.8715 200.82 81.2826 200.693 80.6416C200.566 80.0005 200.632 79.3361 200.883 78.7327C201.134 78.1293 201.559 77.6141 202.103 77.2522C202.647 76.8904 203.286 76.6982 203.94 76.7002C204.812 76.7028 205.647 77.0503 206.263 77.6668C206.88 78.2832 207.227 79.1185 207.23 79.9902Z" fill="#999999"/>
<path d="M240.53 79.9902C240.532 80.6437 240.34 81.2831 239.978 81.8273C239.616 82.3716 239.101 82.7961 238.498 83.0471C237.894 83.2981 237.23 83.3643 236.589 83.2373C235.948 83.1103 235.359 82.7958 234.897 82.3337C234.435 81.8715 234.12 81.2826 233.993 80.6416C233.866 80.0005 233.932 79.3361 234.183 78.7327C234.434 78.1293 234.859 77.6141 235.403 77.2522C235.947 76.8904 236.587 76.6982 237.24 76.7002C237.672 76.7002 238.1 76.7853 238.499 76.9507C238.898 77.116 239.261 77.3583 239.566 77.6638C239.872 77.9693 240.114 78.332 240.28 78.7312C240.445 79.1303 240.53 79.5582 240.53 79.9902Z" fill="#999999"/>
<path d="M273.84 79.9902C273.842 80.6433 273.65 81.2823 273.289 81.8263C272.928 82.3703 272.413 82.7948 271.81 83.0461C271.207 83.2974 270.543 83.3642 269.903 83.238C269.262 83.1118 268.673 82.7983 268.21 82.3372C267.748 81.8761 267.433 81.2881 267.304 80.6477C267.176 80.0073 267.241 79.3432 267.491 78.7397C267.74 78.1361 268.163 77.6201 268.706 77.257C269.249 76.894 269.887 76.7002 270.54 76.7002C271.414 76.7002 272.252 77.0465 272.87 77.6632C273.489 78.2799 273.838 79.1167 273.84 79.9902Z" fill="#999999"/>
<path d="M307.14 79.9902C307.142 80.6437 306.95 81.2831 306.588 81.8273C306.226 82.3716 305.711 82.7961 305.107 83.0471C304.504 83.2981 303.84 83.3643 303.199 83.2373C302.558 83.1103 301.969 82.7958 301.507 82.3337C301.044 81.8715 300.73 81.2826 300.603 80.6416C300.476 80.0005 300.542 79.3361 300.793 78.7327C301.044 78.1293 301.469 77.6141 302.013 77.2522C302.557 76.8904 303.197 76.6982 303.85 76.7002C304.282 76.7002 304.71 76.7853 305.109 76.9507C305.508 77.116 305.871 77.3583 306.176 77.6638C306.482 77.9693 306.724 78.332 306.89 78.7312C307.055 79.1303 307.14 79.5582 307.14 79.9902Z" fill="#999999"/>
<path d="M340.45 79.9902C340.452 80.6433 340.26 81.2823 339.899 81.8263C339.537 82.3703 339.023 82.7948 338.42 83.0461C337.817 83.2974 337.153 83.3642 336.512 83.238C335.872 83.1118 335.283 82.7983 334.82 82.3372C334.358 81.8761 334.042 81.2881 333.914 80.6477C333.786 80.0073 333.851 79.3432 334.1 78.7397C334.35 78.1361 334.773 77.6201 335.316 77.257C335.859 76.894 336.497 76.7002 337.15 76.7002C338.024 76.7002 338.861 77.0465 339.48 77.6632C340.099 78.2799 340.447 79.1167 340.45 79.9902Z" fill="#999999"/>
<path d="M40.7099 105.21C40.7099 105.863 40.5163 106.501 40.1537 107.044C39.7911 107.586 39.2758 108.009 38.6728 108.259C38.0698 108.509 37.4062 108.574 36.766 108.447C36.1259 108.319 35.538 108.005 35.0765 107.544C34.6149 107.082 34.3006 106.494 34.1733 105.854C34.0459 105.214 34.1114 104.55 34.3611 103.947C34.6109 103.344 35.0338 102.829 35.5765 102.466C36.1191 102.104 36.7571 101.91 37.4098 101.91C37.8436 101.909 38.2733 101.993 38.6742 102.159C39.0752 102.324 39.4396 102.567 39.7463 102.874C40.0529 103.18 40.296 103.545 40.4613 103.946C40.6267 104.347 40.7112 104.776 40.7099 105.21Z" fill="#999999"/>
<path d="M74.0102 105.21C74.0102 105.863 73.8164 106.502 73.4533 107.045C73.0903 107.587 72.5742 108.01 71.9706 108.26C71.3671 108.509 70.7031 108.574 70.0627 108.446C69.4223 108.318 68.8342 108.003 68.3731 107.54C67.912 107.078 67.5985 106.489 67.4723 105.848C67.3461 105.207 67.4129 104.543 67.6642 103.94C67.9155 103.338 68.3401 102.823 68.8841 102.461C69.4281 102.1 70.0671 101.908 70.7202 101.91C71.153 101.91 71.5817 101.996 71.9815 102.162C72.3813 102.328 72.7445 102.571 73.0501 102.877C73.3557 103.184 73.5979 103.548 73.7626 103.948C73.9274 104.348 74.0115 104.777 74.0102 105.21Z" fill="#999999"/>
<path d="M140.62 105.21C140.62 105.863 140.426 106.502 140.063 107.045C139.7 107.587 139.184 108.01 138.581 108.26C137.977 108.509 137.313 108.574 136.673 108.446C136.032 108.318 135.444 108.003 134.983 107.54C134.522 107.078 134.208 106.489 134.082 105.848C133.956 105.207 134.023 104.543 134.274 103.94C134.525 103.338 134.95 102.823 135.494 102.461C136.038 102.1 136.677 101.908 137.33 101.91C137.763 101.91 138.192 101.996 138.591 102.162C138.991 102.328 139.354 102.571 139.66 102.877C139.966 103.184 140.208 103.548 140.372 103.948C140.537 104.348 140.621 104.777 140.62 105.21Z" fill="#999999"/>
<path d="M173.93 105.21C173.93 105.863 173.737 106.501 173.374 107.044C173.011 107.586 172.496 108.009 171.893 108.259C171.29 108.509 170.627 108.574 169.986 108.447C169.346 108.319 168.758 108.005 168.297 107.544C167.835 107.082 167.521 106.494 167.393 105.854C167.266 105.214 167.332 104.55 167.581 103.947C167.831 103.344 168.254 102.829 168.797 102.466C169.339 102.104 169.977 101.91 170.63 101.91C171.064 101.909 171.494 101.993 171.895 102.159C172.296 102.324 172.66 102.567 172.966 102.874C173.273 103.18 173.516 103.545 173.682 103.946C173.847 104.347 173.931 104.776 173.93 105.21Z" fill="#999999"/>
<path d="M240.53 105.21C240.53 105.863 240.336 106.502 239.973 107.045C239.61 107.587 239.094 108.01 238.491 108.26C237.887 108.509 237.223 108.574 236.583 108.446C235.942 108.318 235.354 108.003 234.893 107.54C234.432 107.078 234.119 106.489 233.992 105.848C233.866 105.207 233.933 104.543 234.184 103.94C234.436 103.338 234.86 102.823 235.404 102.461C235.948 102.1 236.587 101.908 237.24 101.91C237.673 101.91 238.102 101.996 238.502 102.162C238.901 102.328 239.264 102.571 239.57 102.877C239.876 103.184 240.118 103.548 240.283 103.948C240.447 104.348 240.531 104.777 240.53 105.21Z" fill="#999999"/>
<path d="M273.84 105.21C273.84 105.863 273.647 106.501 273.284 107.044C272.921 107.586 272.406 108.009 271.803 108.259C271.2 108.509 270.537 108.574 269.896 108.447C269.256 108.319 268.668 108.005 268.207 107.544C267.745 107.082 267.431 106.494 267.304 105.854C267.176 105.214 267.242 104.55 267.491 103.947C267.741 103.344 268.164 102.829 268.707 102.466C269.25 102.104 269.888 101.91 270.54 101.91C270.974 101.909 271.404 101.993 271.805 102.159C272.206 102.324 272.57 102.567 272.877 102.874C273.183 103.18 273.426 103.545 273.592 103.946C273.757 104.347 273.842 104.776 273.84 105.21Z" fill="#999999"/>
<path d="M340.45 105.21C340.45 105.863 340.257 106.501 339.894 107.044C339.531 107.586 339.016 108.009 338.413 108.259C337.81 108.509 337.146 108.574 336.506 108.447C335.866 108.319 335.278 108.005 334.817 107.544C334.355 107.082 334.041 106.494 333.913 105.854C333.786 105.214 333.852 104.55 334.101 103.947C334.351 103.344 334.774 102.829 335.317 102.466C335.859 102.104 336.497 101.91 337.15 101.91C337.584 101.909 338.014 101.993 338.415 102.159C338.816 102.324 339.18 102.567 339.486 102.874C339.793 103.18 340.036 103.545 340.202 103.946C340.367 104.347 340.451 104.776 340.45 105.21Z" fill="#999999"/>
<path d="M337.193 0.0504106L332.916 4.3291L337.194 8.60634L341.471 4.32765L337.193 0.0504106Z" fill="#003DA6"/>
<path d="M70.5934 50.3295L66.3154 54.6074L70.5934 58.8854L74.8714 54.6075L70.5934 50.3295Z" fill="#003DA6"/>
<path d="M170.751 50.3703L166.473 54.6475L170.75 58.9262L175.029 54.649L170.751 50.3703Z" fill="#00A7E1"/>
<path d="M270.617 50.5242L266.337 54.8008L270.614 59.0803L274.893 54.8037L270.617 50.5242Z" fill="#B0876F"/>
<path d="M4.24302 100.87L-0.0341797 105.148L4.24455 109.426L8.52175 105.147L4.24302 100.87Z" fill="#B0876F"/>
<path d="M104.197 101.013L99.9194 105.291L104.197 109.569L108.475 105.291L104.197 101.013Z" fill="#00A7E1"/>
<path d="M204.057 100.946L199.78 105.225L204.059 109.502L208.336 105.223L204.057 100.946Z" fill="#8D0E57"/>
<path d="M303.816 100.905L299.538 105.183L303.816 109.461L308.094 105.183L303.816 100.905Z" fill="#003DA6"/>
<path d="M237.332 0.101939L233.054 4.37988L237.332 8.65787L241.61 4.37993L237.332 0.101939Z" fill="#8D0E57"/>
<path d="M137.337 -0.0826317L133.059 4.19531L137.337 8.4733L141.615 4.19536L137.337 -0.0826317Z" fill="#00A7E1"/>
<path d="M37.536 0.0343261L33.2573 4.31152L37.5346 8.59026L41.8133 4.31306L37.536 0.0343261Z" fill="#8D0E57"/>
<path d="M374.39 29.4504C374.39 30.1035 374.196 30.7419 373.833 31.2848C373.47 31.8277 372.954 32.2507 372.351 32.5001C371.747 32.7496 371.083 32.8144 370.443 32.6862C369.802 32.5581 369.214 32.2428 368.753 31.7803C368.292 31.3178 367.978 30.7289 367.852 30.0881C367.726 29.4473 367.793 28.7834 368.044 28.1806C368.295 27.5778 368.72 27.0631 369.264 26.7017C369.808 26.3403 370.447 26.1484 371.1 26.1504C371.533 26.1504 371.962 26.2358 372.361 26.4018C372.761 26.5677 373.124 26.811 373.43 27.1176C373.736 27.4241 373.978 27.788 374.143 28.1883C374.307 28.5886 374.391 29.0175 374.39 29.4504Z" fill="#999999"/>
<path d="M407.69 29.4504C407.688 30.1006 407.493 30.7358 407.13 31.2755C406.768 31.8152 406.253 32.2353 405.652 32.4828C405.051 32.7303 404.389 32.794 403.752 32.666C403.114 32.5379 402.529 32.2238 402.07 31.7632C401.611 31.3027 401.299 30.7165 401.172 30.0786C401.046 29.4406 401.112 28.7796 401.361 28.179C401.611 27.5785 402.032 27.0652 402.573 26.7042C403.114 26.3431 403.75 26.1504 404.4 26.1504C404.833 26.1504 405.261 26.2358 405.661 26.4018C406.061 26.5677 406.424 26.811 406.73 27.1176C407.035 27.4241 407.278 27.788 407.442 28.1883C407.607 28.5886 407.691 29.0175 407.69 29.4504Z" fill="#999999"/>
<path d="M441 29.4504C441 30.1031 440.806 30.7411 440.444 31.2838C440.081 31.8265 439.566 32.2494 438.963 32.4992C438.36 32.749 437.696 32.8143 437.056 32.687C436.416 32.5597 435.828 32.2454 435.366 31.7839C434.905 31.3223 434.591 30.7343 434.463 30.0942C434.336 29.4541 434.401 28.7905 434.651 28.1875C434.901 27.5845 435.324 27.0692 435.867 26.7066C436.409 26.3439 437.047 26.1504 437.7 26.1504C438.134 26.1491 438.563 26.2335 438.964 26.3989C439.365 26.5643 439.73 26.8073 440.036 27.114C440.343 27.4207 440.586 27.785 440.751 28.186C440.917 28.587 441.001 29.0167 441 29.4504Z" fill="#999999"/>
<path d="M474.33 29.4504C474.33 30.1031 474.136 30.7411 473.774 31.2838C473.411 31.8265 472.896 32.2494 472.293 32.4992C471.69 32.749 471.026 32.8143 470.386 32.687C469.746 32.5597 469.158 32.2454 468.697 31.7839C468.235 31.3223 467.921 30.7343 467.793 30.0942C467.666 29.4541 467.731 28.7905 467.981 28.1875C468.231 27.5845 468.654 27.0692 469.197 26.7066C469.739 26.3439 470.377 26.1504 471.03 26.1504C471.464 26.1491 471.893 26.2335 472.294 26.3989C472.695 26.5643 473.06 26.8073 473.366 27.114C473.673 27.4207 473.916 27.785 474.081 28.186C474.247 28.587 474.331 29.0167 474.33 29.4504Z" fill="#999999"/>
<path d="M407.69 54.7001C407.69 55.3508 407.497 55.9869 407.135 56.528C406.774 57.069 406.26 57.4907 405.659 57.7397C405.058 57.9887 404.396 58.0539 403.758 57.9269C403.12 57.8 402.534 57.4866 402.073 57.0265C401.613 56.5664 401.3 55.9802 401.173 55.342C401.046 54.7038 401.111 54.0423 401.36 53.4411C401.609 52.8399 402.031 52.3261 402.572 51.9646C403.113 51.6031 403.749 51.4102 404.4 51.4102C405.272 51.4102 406.109 51.7568 406.726 52.3737C407.343 52.9907 407.69 53.8276 407.69 54.7001Z" fill="#999999"/>
<path d="M441 54.7001C441.002 55.3533 440.81 55.9923 440.449 56.5363C440.087 57.0803 439.572 57.5048 438.97 57.7561C438.367 58.0074 437.703 58.0742 437.062 57.948C436.421 57.8218 435.833 57.5082 435.37 57.0471C434.908 56.586 434.592 55.9981 434.464 55.3577C434.336 54.7172 434.401 54.0532 434.65 53.4496C434.9 52.8461 435.323 52.33 435.865 51.967C436.408 51.6039 437.047 51.4102 437.7 51.4102C438.133 51.4089 438.562 51.493 438.962 51.6577C439.362 51.8225 439.726 52.0646 440.033 52.3702C440.339 52.6759 440.582 53.039 440.748 53.4388C440.914 53.8386 441 54.2673 441 54.7001Z" fill="#999999"/>
<path d="M374.39 4.2805C374.39 4.93361 374.196 5.57202 373.833 6.11491C373.47 6.65781 372.954 7.08077 372.351 7.33025C371.747 7.57972 371.083 7.64449 370.443 7.51634C369.802 7.3882 369.214 7.07291 368.753 6.6104C368.292 6.14788 367.978 5.55893 367.852 4.91814C367.726 4.27734 367.793 3.61352 368.044 3.0107C368.295 2.40788 368.72 1.89319 369.264 1.53178C369.808 1.17038 370.447 0.978505 371.1 0.980484C371.533 0.980482 371.962 1.06592 372.361 1.23189C372.761 1.39785 373.124 1.64108 373.43 1.94765C373.736 2.25421 373.978 2.61807 374.143 3.01839C374.307 3.4187 374.391 3.84761 374.39 4.2805Z" fill="#999999"/>
<path d="M407.69 4.28049C407.688 4.93076 407.493 5.56584 407.13 6.10556C406.768 6.64528 406.253 7.06542 405.652 7.3129C405.051 7.56038 404.389 7.6241 403.752 7.49603C403.114 7.36796 402.529 7.05383 402.07 6.59332C401.611 6.13281 401.299 5.54658 401.172 4.90866C401.046 4.27074 401.112 3.60974 401.361 3.00916C401.611 2.40857 402.032 1.89534 402.573 1.53427C403.114 1.1732 403.75 0.980472 404.4 0.980469C404.833 0.980467 405.261 1.06591 405.661 1.23187C406.061 1.39784 406.424 1.64107 406.73 1.94763C407.035 2.2542 407.278 2.61806 407.442 3.01837C407.607 3.41869 407.691 3.8476 407.69 4.28049Z" fill="#999999"/>
<path d="M474.33 4.2805C474.33 4.93318 474.136 5.57119 473.774 6.11388C473.411 6.65656 472.896 7.07953 472.293 7.3293C471.69 7.57907 471.026 7.64441 470.386 7.51707C469.746 7.38974 469.158 7.07545 468.697 6.61394C468.235 6.15242 467.921 5.56444 467.793 4.9243C467.666 4.28416 467.731 3.62062 467.981 3.01762C468.231 2.41463 468.654 1.89925 469.197 1.53664C469.739 1.17403 470.377 0.980484 471.03 0.980484C471.464 0.979164 471.893 1.06362 472.294 1.22899C472.695 1.39436 473.06 1.63741 473.366 1.94411C473.673 2.2508 473.916 2.6151 474.081 3.01607C474.247 3.41704 474.331 3.84677 474.33 4.2805Z" fill="#999999"/>
<path d="M374.39 79.9902C374.392 80.6437 374.2 81.2831 373.838 81.8273C373.476 82.3716 372.961 82.7961 372.357 83.0471C371.754 83.2981 371.09 83.3643 370.449 83.2373C369.808 83.1103 369.219 82.7958 368.757 82.3337C368.294 81.8715 367.98 81.2826 367.853 80.6416C367.726 80.0005 367.792 79.3361 368.043 78.7327C368.294 78.1293 368.719 77.6141 369.263 77.2522C369.807 76.8904 370.447 76.6982 371.1 76.7002C371.972 76.7028 372.807 77.0503 373.424 77.6668C374.04 78.2832 374.387 79.1185 374.39 79.9902Z" fill="#999999"/>
<path d="M407.69 79.9902C407.69 80.6409 407.497 81.277 407.135 81.818C406.774 82.3591 406.26 82.7807 405.659 83.0298C405.058 83.2788 404.396 83.3439 403.758 83.217C403.12 83.09 402.534 82.7767 402.073 82.3166C401.613 81.8565 401.3 81.2702 401.173 80.632C401.046 79.9939 401.111 79.3323 401.36 78.7312C401.609 78.13 402.031 77.6162 402.572 77.2547C403.113 76.8932 403.749 76.7002 404.4 76.7002C404.832 76.7002 405.26 76.7853 405.659 76.9507C406.058 77.116 406.421 77.3583 406.726 77.6638C407.032 77.9693 407.274 78.332 407.439 78.7312C407.605 79.1303 407.69 79.5582 407.69 79.9902Z" fill="#999999"/>
<path d="M441 79.9902C441.002 80.6433 440.81 81.2823 440.449 81.8263C440.087 82.3703 439.572 82.7948 438.97 83.0461C438.367 83.2974 437.703 83.3642 437.062 83.238C436.421 83.1118 435.833 82.7983 435.37 82.3372C434.908 81.8761 434.592 81.2881 434.464 80.6477C434.336 80.0073 434.401 79.3432 434.65 78.7397C434.9 78.1361 435.323 77.6201 435.865 77.257C436.408 76.894 437.047 76.7002 437.7 76.7002C438.573 76.7002 439.411 77.0465 440.03 77.6632C440.648 78.2799 440.997 79.1167 441 79.9902Z" fill="#999999"/>
<path d="M474.33 79.9902C474.332 80.6433 474.14 81.2823 473.779 81.8263C473.417 82.3703 472.903 82.7948 472.3 83.0461C471.697 83.2974 471.033 83.3642 470.392 83.238C469.752 83.1118 469.163 82.7983 468.7 82.3372C468.238 81.8761 467.922 81.2881 467.794 80.6477C467.666 80.0073 467.731 79.3432 467.98 78.7397C468.23 78.1361 468.653 77.6201 469.196 77.257C469.738 76.894 470.377 76.7002 471.03 76.7002C471.903 76.7002 472.741 77.0465 473.36 77.6632C473.978 78.2799 474.327 79.1167 474.33 79.9902Z" fill="#999999"/>
<path d="M374.39 105.21C374.39 105.863 374.196 106.502 373.833 107.045C373.47 107.587 372.954 108.01 372.351 108.26C371.747 108.509 371.083 108.574 370.443 108.446C369.802 108.318 369.214 108.003 368.753 107.54C368.292 107.078 367.978 106.489 367.852 105.848C367.726 105.207 367.793 104.543 368.044 103.94C368.295 103.338 368.72 102.823 369.264 102.461C369.808 102.1 370.447 101.908 371.1 101.91C371.533 101.91 371.962 101.996 372.361 102.162C372.761 102.328 373.124 102.571 373.43 102.877C373.736 103.184 373.978 103.548 374.143 103.948C374.307 104.348 374.391 104.777 374.39 105.21Z" fill="#999999"/>
<path d="M441 105.21C441 105.863 440.806 106.501 440.444 107.044C440.081 107.586 439.566 108.009 438.963 108.259C438.36 108.509 437.696 108.574 437.056 108.447C436.416 108.319 435.828 108.005 435.366 107.544C434.905 107.082 434.591 106.494 434.463 105.854C434.336 105.214 434.401 104.55 434.651 103.947C434.901 103.344 435.324 102.829 435.867 102.466C436.409 102.104 437.047 101.91 437.7 101.91C438.134 101.909 438.563 101.993 438.964 102.159C439.365 102.324 439.73 102.567 440.036 102.874C440.343 103.18 440.586 103.545 440.751 103.946C440.917 104.347 441.001 104.776 441 105.21Z" fill="#999999"/>
<path d="M474.33 105.21C474.33 105.863 474.136 106.501 473.774 107.044C473.411 107.586 472.896 108.009 472.293 108.259C471.69 108.509 471.026 108.574 470.386 108.447C469.746 108.319 469.158 108.005 468.697 107.544C468.235 107.082 467.921 106.494 467.793 105.854C467.666 105.214 467.731 104.55 467.981 103.947C468.231 103.344 468.654 102.829 469.197 102.466C469.739 102.104 470.377 101.91 471.03 101.91C471.464 101.909 471.893 101.993 472.294 102.159C472.695 102.324 473.06 102.567 473.366 102.874C473.673 103.18 473.916 103.545 474.081 103.946C474.247 104.347 474.331 104.776 474.33 105.21Z" fill="#999999"/>
<path d="M371.084 50.4095L366.806 54.6875L371.084 58.9655L375.362 54.6875L371.084 50.4095Z" fill="#003DA6"/>
<path d="M404.47 101.026L400.194 105.306L404.473 109.582L408.75 105.303L404.47 101.026Z" fill="#00A7E1"/>
<path d="M471.15 50.5325L466.872 54.8105L471.15 59.0885L475.428 54.8105L471.15 50.5325Z" fill="#B0876F"/>
<path d="M437.909 0.116041L433.629 4.39258L437.906 8.67206L442.185 4.39552L437.909 0.116041Z" fill="#00A7E1"/>
</g>
<defs>
<clipPath id="clip0_634_2">
<rect width="475.35" height="109.48" fill="white"/>
</clipPath>
</defs>
</svg>
