<?xml version="1.0" encoding="UTF-8"?>
<svg id="Layer_2" data-name="Layer 2" xmlns="http://www.w3.org/2000/svg" xmlns:xlink="http://www.w3.org/1999/xlink" viewBox="0 0 297.69 135.74">
  <defs>
    <style>
      .cls-1 {
        fill: #00a7e1;
      }

      .cls-2 {
        clip-path: url(#clippath);
      }
    </style>
    <clipPath id="clippath">
      <path class="cls-1" d="M228.9,89.3c-1.79-.75-3.33-1.79-5.46-2.22-1.04,1.52-2.07,3.04-2.48,5.21,1.98,.66,3.47,1.82,5.46,2.47,1.28-1.2,1.38-3.57,2.98-4.46,1.98,.58,3.31,1.83,4.98,2.73,1.09-1.73,2.44-3.18,2.98-5.45-1.89-.85-3.45-2.03-5.47-2.73-1.32,1.14-1.69,3.26-2.98,4.46m-166.34-5.95c1.56,1.25,3.6,2.04,5.47,2.98,1.09-1.48,1.89-3.25,2.48-5.21-1.4-1.51-3.44-2.36-5.71-2.98-1.12,1.36-1.78,3.18-2.24,5.21m198.38-1.48c1.66,.91,3.14,1.98,4.96,2.71,1.21-1.51,2.31-3.14,2.99-5.2-1.85-.9-3.35-2.1-5.47-2.72-1.19,1.38-2.24,2.89-2.48,5.21m-1.74-38.21c-2.54,.11-2.38,6.04-3.23,8.18-1.77-1.79-1.98-5.12-5.22-5.46-.21,1.02-.64,1.85-.5,3.21,3.26,.98,4.8,3.65,5.97,6.72,1.55-2.6,.66-7.61,2.48-9.93,.65-.06,.9,.28,1.16,.62,.24,.33,.49,.65,1.08,.62,.64-2.2-.33-3.97-1.67-3.97-.02,0-.04,0-.07,0m26.57,0c1.7,.95,2.92,2.37,4.71,3.23,1.22-1.44,2.37-2.95,2.74-5.21-1.57-1.32-3.02-2.78-5.22-3.48-.74,1.82-2.21,2.92-2.23,5.46m-171.31-3.47c-2.07-.67-3.32-2.15-5.72-2.48-.73,1.75-1.6,3.35-1.99,5.44,1.91,.91,3.46,2.17,5.71,2.73,1.22-1.01,1.34-3.13,2.48-4.21,2.28,.38,3.39,1.92,5.47,2.49,.74-1.75,1.85-3.11,1.98-5.47-1.35-1.54-3.67-2.11-5.7-2.98-.89,1.36-1.28,3.19-2.24,4.47m96.8-1.73c1.76,1.21,3.81,2.16,5.72,3.22,1.07-1.5,1.79-3.35,2.23-5.46-1.59-1.46-3.81-2.31-5.96-3.22-.82,1.66-1.64,3.32-1.99,5.46m-69.24,2.98c-1.72-2.84-3.09-6.03-6.7-6.96-2.2,2.52,.4,5.21,2.48,4.48,2.1,1.54,2.94,4.32,4.47,6.44,2.04-2.24,.16-8.43,2.48-10.42,.64-.04,1.05,.37,1.4,.79,.42,.5,.77,.99,1.34,.7-.33-2.96-1.03-4.08-1.82-4.08-1.81,0-4.12,5.86-3.65,9.06m-56.37-7.45c-1.94-.72-3.64-1.67-5.46-2.48-.71,1.85-1.95,3.18-1.99,5.7,1.84,.81,3.53,1.77,5.21,2.73,.95-1.37,1.28-3.35,2.48-4.47,1.93,.73,3.53,1.78,5.22,2.73,.88-1.85,1.98-3.47,2.48-5.71-2.03-.78-3.61-2-5.71-2.72-.81,1.35-1.28,3.04-2.24,4.22m162.13,.74c-6.24,2.12-15.66,3.82-16.4,10.42,.6,1.39,1.94,2.04,3.24,2.74,.38-.87,1.24-1.23,1.24-2.49-.81-.83-2.55-.76-2.74-2.23,4.05-3.44,9.74-4.67,15.15-6.44,13.47-4.44,28.3-8.27,42.46-11.92,2.25-.58,6.91-.4,6.95-3.97-15.97,3.85-34.12,8.54-49.91,13.9m-17.15-8.68c1.24-.62,2.02-3.38,1-4.7-.48,.66,0,2.28-1.23,2.21-3.13-2.11,.95-7.74-.75-10.67-1.14,3.54-3.6,11.68,.99,13.16m-17.13-14.13c-2.24,1.73-1.79,6.12-2.48,9.43-1.75-2.57-2.6-6-6.21-6.71-1.44,2.32-.03,5.66,2.49,4.23,1.42,1.96,2.62,4.17,3.96,6.2,1.9-2.4-.02-8.62,2.49-10.42,1.41-.17,1.36,1.12,2.48,1.25,1.19-1.74,.11-4.02-2.1-4.02-.2,0-.41,.02-.63,.06m-108.73,5.2c-.07,.76-1.25,1.7-.5,2.48,.06-.2,.21-.29,.5-.25,8.56-3.1,19.14-5.61,28.07-8.44,2.88-.91,7.24-.78,8.2-4.22-12.15,3.43-24.25,6.89-36.26,10.43m82.95-4.72c1.36,2.95,1.4,7.2,1.98,11.66,1.82,13.87,6.34,30.6,4.23,43.66,2.44-2.13,3.46-6.38,3.47-10.17,.05-12.97-3.72-27.91-5.22-39.7,1.25,.13,2.16,2.81,3.23,1.5-1.97-4.37-3.68-9.05-5.96-13.14,.03,1.77-2.49,4.55-1.73,6.19m-107.52-.48c-3.41,.88-7.38,1.66-11.43,2.97-4.02,1.29-11.06,2.28-11.42,5.94h.74c6.69-2.71,14.79-4.93,22.6-6.94,5.97-1.53,11.61-3.25,17.14-4.97,1.57-.49,4.52-.44,4.47-2.98-6.53,1.32-13.76,3.79-22.09,5.97m99.32,47.12c2.35-.97,7.04-.13,7.2,2.73-.62,.3-1.23,.42-1.83,.42-2.25,0-4.27-1.8-5.37-3.16m-93.12-1.98c.01-2.32,3.39-5.13,4.72-4.97,2,.24,2.35,3.48,2.48,6.2-1.51,.97-2.98,2-4.46,2.98-1.6-.92-2.75-2.46-2.74-4.21M46.92,28.28c.36,8.49,1.13,16.51,.99,24.06-.14,6.77-3.12,9.05-7.7,12.16-2.8,1.89-5.53,3.33-8.19,4.71-9.5,4.9-28.42,9.54-30.04-4.71-.57-4.91,1.19-8.17,2.23-13.15,.64-.12,1.91,.05,2.48-.76,1.03-2.38,3.39-7.04,1.48-9.92-1.13,.93-.27,3.86-1.74,4.47-8.42-1.41-3.22-14.59-2.72-20.83-3.51,6.26-6.18,21.88,0,27.04-4.98,8.45-5.56,23.21,2.72,27.54,3.48,1.82,8.43,1.8,13.17,.74,9.01-2.03,20.71-8.9,25.58-14.63,1.97-2.32,2.45-6.18,3.98-8.45-.18,8.04,3.24,14.65,9.94,14.39,5.98-.23,7.89-5.68,11.42-8.94-.84,10.33,11.18,9.15,16.88,5.46,2.04,1.18,3.98,2.26,6.46,2.25,5.75-.03,9.34-4.8,12.67-7.45-.08,2.13,.72,4,1.49,4.95,5.29,6.53,17.47-.75,21.36-4.22-.76,6.84,6.46,8.3,10.44,4.72,2.02-1.84,2.21-4.32,3.72-5.46,.01,3.92,2.55,5.88,5.46,5.7,3.89-.2,4.55-4.1,6.7-5.96,3.61,8.29,14.45,.99,19.37-1.22,.87,.77,1.28,2.03,1.73,3.23,0,0-8.74,7.04-6.24,19.08,1.1,5.28,6.24,9.67,11.68,10.92,8.03,1.87,18.15-1.86,24.58-4.96,5.44-2.6,11.25-5.81,13.66-8.19,2.35-2.31,5.28-9.38,2.23-11.9-2.9-2.4-16.43-.4-16.63-5.21-.06-1.51,2.71-4.13,4.22-5.46,2.03-1.8,4.09-3.41,6.95-2.97,1.74,3.23,2.63,6.3,4.96,8.69,5.72,5.79,16.67,8.03,27.31,7.43,11.59-.65,22.72-5.82,30.55-8.69-1.42,8.29,8.56,8.71,11.92,4.23,1.21-1.62,2.25-5.88,2.23-8.18,0-2.58-1.23-5.34-2.97-6.46-2.16,3.62-1.01,6.81,.75,9.93-3.78,3.51-12.18,1.38-9.19-5.21-7.78,2.74-18.54,7.77-30.04,8.67-10.33,.83-21.13-.82-27.57-6.21-3.09-2.57-4.58-6.48-6.21-10.41-4.55,.57-8.42,3.45-11.42,7.2-2.21,2.77-4.99,8.08-4.23,12.14,1.29,6.75,13.99,2.67,17.89,7.2-6.61,4.12-19.65,11.79-31.04,12.64-8.78,.67-16.36-3.32-17.38-10.67,0,0-1.91-6.89,4.75-12.63,2.22,2.03,4.77,4.23,7.7,2.96,2.68-1.15,3.95-8.37,3.23-11.65-.96-4.37-6.94-4.18-11.42-2.99-.91-4.71-1.78-9.47-2.48-14.37l-.25-2c-.95-6.88-2.61-14.42-2.98-21.08,1.17,.21,2.3,2.92,3.23,1.73-2.07-4.47-4.06-9.01-6.71-12.9-.84,1.64-1.55,3.41-1.99,5.46,2.21,3.12,2.1,8.37,2.73,13.14,1.42,10.75,3.61,22.13,5.21,32.27-3.89,3.42-15.76,7.92-16.89-1-1.67,2.13-2.13,7.11-6.21,7.42-3.38,.26-6.05-2.92-4.47-6.43-2.38,.72-2.73,4.92-5.47,6.94-4.22,3.12-11.17,.18-8.44-5.71-5.14,2.06-11.96,9.69-19.86,6.69-2.49-.92-4.04-3.55-3.73-7.7-4.52,2.97-7.89,9.37-15.64,7.46,1.21-2.3,2.97-5.11,3.23-8.93,.21-3.08-.89-7.88-3.23-8.18-1.23-.16-4.03,1.88-4.96,2.98-2.86,3.35-4.36,9.48-3.73,14.14-6.06,2.96-13.81-.41-11.42-8.19-4.18,2.63-5.74,8.96-11.92,9.69-2.88,.32-5.53-.8-7.21-2.74-3.05-3.52-2.41-10.27-2.73-17.34-.66-14.51-.92-33.28-3.47-44.67-3.28,6.63-1.2,17.97-.74,28.28"/>
    </clipPath>
  </defs>
  <g id="Layer_1-2" data-name="Layer 1">
    <g>
      <path class="cls-1" d="M2.64,123.28c0-3.98,0-4.71-.05-5.54-.05-.89-.26-1.31-1.12-1.49-.21-.05-.65-.08-1.02-.08-.29,0-.45-.05-.45-.23s.18-.24,.57-.24c1.39,0,3.03,.08,3.55,.08,1.28,0,2.3-.08,3.19-.08,4.73,0,5.57,2.53,5.57,3.92,0,2.14-1.24,3.43-2.67,4.58,2.14,.73,4.75,2.59,4.75,5.65,0,2.8-2.17,5.7-6.98,5.7-.31,0-1.07-.05-1.83-.08-.78-.05-1.57-.08-1.96-.08-.29,0-.86,0-1.49,.03-.6,0-1.28,.05-1.8,.05-.34,0-.53-.08-.53-.26,0-.13,.11-.21,.42-.21,.39,0,.71-.05,.93-.1,.53-.1,.66-.68,.76-1.44,.13-1.1,.13-3.16,.13-5.57v-4.6Zm3.14,.44c0,.21,.07,.26,.18,.29,.23,.05,.63,.08,1.23,.08,.86,0,1.44-.11,1.88-.5,.68-.55,1.07-1.49,1.07-2.77,0-1.75-1.02-4.05-3.27-4.05-.36,0-.6,0-.86,.06-.18,.05-.23,.15-.23,.44v6.46Zm3.45,2.09c-.55-.4-1.15-.58-2.17-.63-.47-.03-.74-.03-1.13-.03-.11,0-.16,.05-.16,.18v6.19c0,1.73,.07,2.17,.91,2.51,.71,.29,1.31,.31,1.91,.31,1.17,0,3.16-.63,3.16-3.35,0-1.62-.54-3.82-2.53-5.2m9.59-.73c0-3.37,.03-4-.02-4.71-.05-.79-.26-.99-.99-1.2-.18-.05-.57-.08-.89-.08-.26,0-.39-.08-.39-.23s.16-.21,.5-.21c1.22,0,2.77,.05,3.45,.05,.57,0,2.11-.05,2.95-.05,.34,0,.49,.05,.49,.21s-.13,.23-.37,.23c-.26,0-.39,.03-.68,.08-.6,.11-.78,.42-.83,1.2-.05,.7-.05,1.33-.05,4.71v3.11c0,3.24,.63,4.49,1.75,5.39,1.02,.81,2.12,.89,2.9,.89,.99,0,2.17-.29,3.09-1.18,1.28-1.2,1.33-3.13,1.33-5.41v-2.8c0-3.37-.02-4-.05-4.71-.05-.76-.23-.99-.97-1.2-.18-.05-.57-.08-.83-.08s-.39-.08-.39-.23,.15-.21,.47-.21c1.18,0,2.72,.05,2.75,.05,.26,0,1.8-.05,2.69-.05,.31,0,.47,.05,.47,.21s-.13,.23-.39,.23-.39,.03-.68,.08c-.62,.11-.78,.42-.84,1.2-.03,.7-.05,1.33-.05,4.71v2.38c0,2.48-.26,5.09-2.19,6.69-1.62,1.36-3.38,1.59-4.86,1.59-1.2,0-3.58-.05-5.26-1.51-1.18-1.02-2.09-2.67-2.09-5.88v-3.26Zm19.56,0c0-3.37,0-4-.03-4.71-.05-.76-.29-1.02-.78-1.18-.26-.08-.55-.11-.84-.11-.24,0-.37-.05-.37-.26,0-.13,.18-.18,.55-.18,.86,0,2.43,.05,3.08,.05,.57,0,2.07-.05,2.95-.05,.29,0,.47,.05,.47,.18,0,.21-.13,.26-.37,.26s-.42,.03-.68,.08c-.63,.11-.81,.42-.86,1.2-.06,.7-.06,1.33-.06,4.71v3.92c0,2.14,0,3.92,.11,4.86,.08,.6,.24,.94,.92,1.05,.31,.05,.83,.08,1.17,.08,.26,0,.37,.13,.37,.23,0,.16-.18,.23-.44,.23-1.52,0-3.09-.08-3.71-.08-.53,0-2.09,.08-3.01,.08-.28,0-.44-.08-.44-.23,0-.1,.08-.23,.36-.23,.34,0,.61-.03,.81-.08,.47-.1,.6-.42,.68-1.07,.11-.91,.11-2.69,.11-4.83v-3.92Zm12.94,3.92c0,2.85,0,4.26,.5,4.68,.39,.34,1.28,.47,3.06,.47,1.23,0,2.11-.02,2.69-.63,.29-.29,.52-.91,.57-1.33,.03-.21,.08-.34,.26-.34,.16,0,.21,.23,.21,.5s-.16,1.91-.34,2.56c-.15,.5-.26,.6-1.46,.6-1.64,0-2.98-.02-4.13-.08-1.15-.02-2.11-.05-3.06-.05-.27,0-.76,.03-1.31,.03-.55,.02-1.12,.05-1.6,.05-.28,0-.44-.08-.44-.23,0-.1,.08-.23,.37-.23,.34,0,.6-.03,.81-.08,.47-.1,.6-.52,.68-1.18,.1-.94,.1-2.69,.1-4.73v-3.92c0-3.37,0-4-.02-4.71-.05-.76-.26-.99-.99-1.2-.18-.05-.47-.08-.76-.08-.26,0-.39-.08-.39-.23s.15-.21,.49-.21c1.07,0,2.53,.05,3.16,.05,.55,0,2.43-.05,3.32-.05,.34,0,.5,.05,.5,.21s-.13,.23-.42,.23c-.27,0-.63,.03-.89,.08-.63,.11-.81,.42-.86,1.2-.05,.7-.05,1.33-.05,4.71v3.92Zm10.56-3.92c0-3.37,0-4-.03-4.71-.05-.76-.26-.99-.99-1.2-.18-.05-.57-.08-.92-.08-.23,0-.39-.08-.39-.23s.19-.21,.53-.21c1.2,0,2.67,.05,3.32,.05,.7,0,2.35-.05,3.73-.05,2.87,0,6.74,0,9.25,2.53,1.15,1.15,2.17,3.01,2.17,5.65,0,2.8-1.2,4.91-2.51,6.19-1.05,1.04-3.48,2.61-7.71,2.61-.84,0-1.83-.08-2.74-.13-.92-.08-1.76-.13-2.33-.13-.26,0-.76,.03-1.31,.03-.54,.02-1.12,.05-1.6,.05-.28,0-.44-.08-.44-.23,0-.1,.08-.23,.37-.23,.34,0,.6-.03,.81-.08,.47-.1,.6-.52,.68-1.18,.11-.94,.11-2.69,.11-4.73v-3.92Zm3.08,2.45c0,2.35,.02,4.05,.05,4.5,.03,.55,.08,1.33,.26,1.57,.29,.42,1.2,.89,3.01,.89,2.09,0,3.64-.36,5.02-1.52,1.49-1.23,1.96-3.21,1.96-5.51,0-2.83-1.13-4.66-2.14-5.54-2.12-1.88-4.63-2.11-6.43-2.11-.47,0-1.23,.05-1.41,.16-.21,.08-.29,.18-.29,.44-.02,.76-.02,2.59-.02,4.34v2.8Zm17.58-2.45c0-3.37,0-4-.02-4.71-.05-.76-.29-1.02-.79-1.18-.26-.08-.55-.11-.83-.11-.24,0-.37-.05-.37-.26,0-.13,.18-.18,.55-.18,.86,0,2.43,.05,3.08,.05,.57,0,2.07-.05,2.95-.05,.29,0,.47,.05,.47,.18,0,.21-.13,.26-.37,.26s-.42,.03-.68,.08c-.62,.11-.81,.42-.86,1.2-.05,.7-.05,1.33-.05,4.71v3.92c0,2.14,0,3.92,.1,4.86,.08,.6,.23,.94,.92,1.05,.31,.05,.83,.08,1.17,.08,.26,0,.37,.13,.37,.23,0,.16-.18,.23-.45,.23-1.52,0-3.08-.08-3.71-.08-.52,0-2.09,.08-3.01,.08-.28,0-.44-.08-.44-.23,0-.1,.08-.23,.37-.23,.33,0,.6-.03,.81-.08,.47-.1,.6-.42,.68-1.07,.1-.91,.1-2.69,.1-4.83v-3.92Zm11.3,7.34c.05,1.72,.34,2.25,.78,2.4,.39,.13,.84,.16,1.2,.16,.26,0,.39,.11,.39,.23,0,.19-.21,.23-.52,.23-1.49,0-2.56-.08-2.98-.08-.21,0-1.31,.08-2.48,.08-.31,0-.52-.02-.52-.23,0-.13,.16-.23,.36-.23,.32,0,.74-.03,1.05-.1,.6-.16,.68-.76,.71-2.7l.21-13.17c0-.45,.16-.76,.39-.76,.29,0,.6,.34,.99,.73,.29,.29,3.74,3.82,7.09,7.08,1.57,1.55,4.62,4.68,4.96,4.99h.1l-.23-9.88c-.03-1.36-.24-1.75-.79-1.96-.33-.13-.88-.13-1.2-.13-.29,0-.37-.1-.37-.23,0-.18,.23-.21,.58-.21,1.2,0,2.43,.05,2.93,.05,.26,0,1.12-.05,2.25-.05,.32,0,.52,.03,.52,.21,0,.13-.13,.23-.39,.23-.24,0-.42,0-.71,.08-.62,.18-.81,.57-.84,1.83l-.26,14.01c0,.5-.18,.71-.36,.71-.39,0-.7-.23-.94-.47-1.43-1.34-4.31-4.08-6.71-6.41-2.51-2.41-4.94-5.1-5.39-5.49h-.08l.26,9.07Zm33.54,1.54c0,.6,0,.63-.29,.79-1.54,.76-3.82,.99-5.62,.99-5.64,0-10.64-2.56-10.64-8.7,0-3.55,1.91-6.04,4.02-7.27,2.2-1.28,4.27-1.44,6.2-1.44,1.59,0,3.6,.26,4.08,.37,.47,.08,1.28,.21,1.83,.24,.26,.02,.31,.1,.31,.26,0,.26-.15,.87-.15,3.66,0,.34-.13,.49-.32,.49-.16,0-.2-.1-.23-.29-.05-.49-.19-1.2-.79-1.83-.68-.7-2.41-1.7-4.99-1.7-1.25,0-2.85,.03-4.44,1.31-1.28,1.05-2.12,2.69-2.12,5.41,0,4.79,3.09,8.26,8,8.26,.6,0,1.07,0,1.62-.24,.34-.16,.45-.39,.45-.79v-2.04c0-1.1,0-1.93-.03-2.61-.02-.76-.26-.99-.99-1.2-.19-.05-.58-.08-.89-.08-.21,0-.36-.11-.36-.24,0-.18,.18-.21,.5-.21,1.21,0,2.85,.05,3.53,.05,.74,0,1.94-.05,2.69-.05,.32,0,.47,.03,.47,.21,0,.13-.13,.24-.29,.24-.18,0-.37,.02-.63,.08-.63,.11-.86,.42-.89,1.2-.02,.68-.02,1.56-.02,2.67v2.45Zm17.5-16.81l-3.9,.1c-1.51,.05-2.14,.18-2.53,.76-.26,.39-.4,.71-.45,.92-.06,.2-.13,.31-.29,.31-.18,0-.24-.13-.24-.42,0-.42,.5-2.8,.55-3.01,.08-.34,.16-.5,.31-.5,.21,0,.47,.26,1.13,.32,.76,.08,1.75,.13,2.61,.13h10.35c.84,0,1.41-.08,1.8-.13,.4-.08,.61-.13,.71-.13,.18,0,.21,.16,.21,.55,0,.55-.08,2.35-.08,3.03-.03,.26-.07,.42-.23,.42-.21,0-.27-.13-.29-.53l-.02-.29c-.05-.68-.76-1.41-3.09-1.46l-3.29-.08v10.72c0,2.4,0,4.47,.13,5.59,.08,.74,.23,1.31,1.02,1.42,.37,.05,.94,.1,1.33,.1,.29,0,.42,.08,.42,.21,0,.18-.21,.26-.5,.26-1.72,0-3.37-.08-4.1-.08-.6,0-2.25,.08-3.29,.08-.34,0-.52-.08-.52-.26,0-.13,.1-.21,.42-.21,.39,0,.71-.05,.94-.1,.53-.1,.68-.68,.76-1.44,.13-1.1,.13-3.16,.13-5.57v-10.72Zm25.69,8.73s.13-.03,.13-.16v-.47c0-3.37-.02-4.18-.06-4.89-.05-.76-.26-.99-.99-1.2-.19-.05-.58-.08-.89-.08-.26,0-.39-.08-.39-.23s.16-.21,.49-.21c1.23,0,2.85,.05,3.45,.05,.55,0,2.06-.05,2.95-.05,.34,0,.5,.05,.5,.21s-.16,.23-.42,.23c-.19,0-.39,.03-.68,.08-.6,.11-.79,.42-.84,1.2-.05,.7-.05,1.33-.05,4.71v3.92c0,2.04,0,3.79,.1,4.75,.08,.63,.21,1.05,.92,1.15,.31,.05,.81,.08,1.18,.08,.24,0,.37,.13,.37,.23,0,.16-.18,.23-.47,.23-1.49,0-3-.08-3.63-.08-.52,0-2.14,.08-3.04,.08-.31,0-.5-.08-.5-.23,0-.1,.1-.23,.37-.23,.37,0,.63-.03,.84-.08,.47-.1,.6-.52,.68-1.18,.11-.94,.11-2.64,.11-4.68v-1.7c0-.08-.08-.13-.13-.13h-8.68c-.08,0-.16,.03-.16,.13v1.7c0,2.04,.03,3.74,.13,4.71,.08,.63,.21,1.05,.89,1.15,.31,.05,.83,.08,1.17,.08,.26,0,.37,.13,.37,.23,0,.16-.18,.23-.47,.23-1.49,0-3.08-.08-3.74-.08-.52,0-2.03,.08-2.95,.08-.29,0-.45-.08-.45-.23,0-.1,.08-.23,.37-.23,.34,0,.6-.03,.81-.08,.47-.1,.6-.52,.68-1.18,.1-.94,.1-2.69,.1-4.73v-3.92c0-3.37,0-4-.02-4.71-.05-.76-.26-.99-.99-1.2-.18-.05-.57-.08-.91-.08-.24,0-.39-.08-.39-.23s.18-.21,.5-.21c1.23,0,2.75,.05,3.37,.05,.55,0,2.14-.05,3.06-.05,.31,0,.47,.05,.47,.21s-.13,.23-.42,.23c-.19,0-.39,.03-.65,.08-.63,.11-.81,.42-.87,1.2-.05,.7-.05,1.52-.05,4.89v.47c0,.13,.08,.16,.16,.16h8.68Zm9.96-.81c0-3.37,0-4-.03-4.71-.05-.76-.26-.99-.99-1.2-.19-.05-.58-.08-.92-.08-.24,0-.39-.08-.39-.23s.18-.21,.52-.21c1.2,0,2.67,.05,3.32,.05,.73,0,5.83,.03,6.27,0,.42-.03,.78-.1,.97-.13,.13-.02,.26-.1,.36-.1,.13,0,.16,.1,.16,.21,0,.16-.13,.42-.18,1.44-.03,.24-.08,1.2-.13,1.47-.02,.1-.07,.36-.26,.36-.15,0-.18-.1-.18-.28,0-.16-.03-.55-.16-.81-.18-.39-.37-.71-1.51-.81-.39-.05-3.14-.11-3.61-.11-.11,0-.16,.08-.16,.21v5.49c0,.14,.03,.24,.16,.24,.53,0,3.5,0,4.02-.05,.55-.05,.89-.11,1.1-.34,.18-.16,.26-.29,.37-.29s.18,.1,.18,.23-.06,.5-.18,1.62c-.06,.44-.11,1.34-.11,1.49,0,.19-.03,.5-.24,.5-.16,0-.21-.08-.21-.18-.03-.23-.03-.52-.08-.81-.13-.44-.42-.78-1.28-.86-.42-.05-3.04-.11-3.61-.11-.1,0-.13,.11-.13,.23v1.78c0,.76-.03,2.64,0,3.29,.05,1.52,.75,1.86,3.11,1.86,.6,0,1.57-.03,2.17-.29,.58-.26,.84-.73,.99-1.65,.05-.24,.1-.34,.26-.34,.18,0,.21,.29,.21,.52,0,.5-.18,2.01-.31,2.45-.16,.57-.37,.57-1.23,.57-1.73,0-3.11-.02-4.23-.08-1.13-.02-1.99-.05-2.67-.05-.26,0-.76,.03-1.31,.03-.54,.02-1.12,.05-1.59,.05-.29,0-.44-.08-.44-.23,0-.1,.08-.23,.36-.23,.34,0,.6-.03,.81-.08,.47-.1,.6-.52,.68-1.18,.11-.94,.11-2.69,.11-4.73v-3.92Zm25.14,2.8c0,2.51,0,4.47,.13,5.57,.08,.76,.24,1.34,1.02,1.44,.37,.05,.94,.1,1.31,.1,.34,0,.44,.08,.44,.21,0,.18-.18,.26-.57,.26-1.65,0-3.3-.08-3.98-.08s-2.33,.08-3.32,.08c-.37,0-.55-.05-.55-.26,0-.13,.11-.21,.4-.21,.39,0,.71-.05,.94-.1,.53-.1,.66-.68,.76-1.44,.13-1.1,.13-3.06,.13-5.57v-4.6c0-3.98,0-4.71-.05-5.54-.05-.89-.26-1.31-1.12-1.49-.21-.05-.65-.08-1.02-.08-.26,0-.44-.05-.44-.21,0-.21,.2-.26,.6-.26,.68,0,1.44,.03,2.12,.03,.68,.02,1.28,.05,1.65,.05,.99,0,6.3,0,6.9-.03,.5-.02,.81-.02,1.07-.1,.16-.05,.29-.16,.42-.16,.11,0,.18,.11,.18,.23,0,.18-.13,.49-.21,1.18-.03,.26-.07,1.8-.13,2.12-.02,.21-.08,.37-.26,.37s-.23-.13-.26-.42c0-.21,0-.63-.15-1-.18-.36-.73-.76-1.73-.78l-4.02-.08c-.16,0-.24,.08-.24,.36v6.53c0,.16,.02,.23,.19,.23l3.34-.02c.45,0,.81,0,1.18-.03,.5-.02,.86-.13,1.13-.47,.13-.16,.18-.26,.34-.26,.1,0,.16,.08,.16,.23s-.13,.81-.21,1.62c-.05,.52-.11,1.72-.11,1.9,0,.24,0,.5-.26,.5-.16,0-.21-.18-.21-.37s-.05-.5-.16-.81c-.13-.36-.52-.83-1.33-.94-.65-.08-3.43-.08-3.87-.08-.13,0-.19,.05-.19,.23v2.11Zm10.66-2.8c0-3.37,.03-4-.03-4.71-.05-.79-.26-.99-.99-1.2-.18-.05-.57-.08-.89-.08-.26,0-.39-.08-.39-.23s.16-.21,.5-.21c1.23,0,2.77,.05,3.45,.05,.58,0,2.12-.05,2.96-.05,.34,0,.49,.05,.49,.21s-.13,.23-.36,.23c-.26,0-.4,.03-.68,.08-.6,.11-.78,.42-.84,1.2-.05,.7-.05,1.33-.05,4.71v3.11c0,3.24,.63,4.49,1.76,5.39,1.02,.81,2.12,.89,2.9,.89,.99,0,2.17-.29,3.08-1.18,1.28-1.2,1.33-3.13,1.33-5.41v-2.8c0-3.37-.03-4-.05-4.71-.06-.76-.24-.99-.97-1.2-.19-.05-.58-.08-.84-.08s-.39-.08-.39-.23,.16-.21,.47-.21c1.17,0,2.71,.05,2.74,.05,.26,0,1.8-.05,2.7-.05,.31,0,.47,.05,.47,.21s-.13,.23-.4,.23-.38,.03-.68,.08c-.62,.11-.78,.42-.84,1.2-.03,.7-.05,1.33-.05,4.71v2.38c0,2.48-.26,5.09-2.2,6.69-1.62,1.36-3.37,1.59-4.86,1.59-1.21,0-3.58-.05-5.25-1.51-1.17-1.02-2.09-2.67-2.09-5.88v-3.26Zm23.13-5.08l-3.42,.08c-1.34,.02-1.89,.18-2.23,.68-.23,.31-.34,.6-.39,.76-.05,.18-.11,.29-.26,.29s-.21-.13-.21-.36c0-.37,.45-2.51,.5-2.7,.05-.29,.13-.42,.26-.42,.18,0,.42,.18,.99,.26,.68,.08,1.54,.1,2.3,.1h9.33c.73,0,1.22-.05,1.57-.1,.36-.05,.54-.11,.62-.11,.16,0,.18,.13,.18,.47,0,.47-.05,2.12-.05,2.69-.03,.24-.08,.37-.21,.37-.18,0-.23-.11-.26-.44l-.02-.24c-.05-.57-.65-1.25-2.72-1.28l-2.9-.06v9c0,2.04,.03,3.79,.13,4.75,.08,.63,.21,1.05,.89,1.15,.31,.05,.84,.08,1.17,.08,.27,0,.37,.13,.37,.23,0,.16-.19,.23-.45,.23-1.52,0-3.06-.08-3.71-.08-.52,0-2.09,.08-3,.08-.29,0-.45-.08-.45-.23,0-.1,.08-.23,.37-.23,.34,0,.62-.03,.81-.08,.47-.1,.61-.52,.68-1.18,.1-.94,.1-2.69,.1-4.73v-9Zm11.71,5.08c0-3.37,.02-4-.03-4.71-.05-.79-.26-.99-.99-1.2-.18-.05-.57-.08-.89-.08-.26,0-.4-.08-.4-.23s.16-.21,.5-.21c1.23,0,2.77,.05,3.45,.05,.58,0,2.12-.05,2.96-.05,.33,0,.49,.05,.49,.21s-.13,.23-.36,.23c-.26,0-.39,.03-.68,.08-.6,.11-.78,.42-.83,1.2-.05,.7-.05,1.33-.05,4.71v3.11c0,3.24,.63,4.49,1.75,5.39,1.02,.81,2.11,.89,2.9,.89,.99,0,2.17-.29,3.09-1.18,1.28-1.2,1.33-3.13,1.33-5.41v-2.8c0-3.37-.03-4-.05-4.71-.05-.76-.23-.99-.97-1.2-.18-.05-.57-.08-.84-.08s-.38-.08-.38-.23,.16-.21,.47-.21c1.18,0,2.72,.05,2.75,.05,.26,0,1.8-.05,2.7-.05,.31,0,.46,.05,.46,.21s-.12,.23-.39,.23-.39,.03-.68,.08c-.62,.11-.78,.42-.83,1.2-.03,.7-.06,1.33-.06,4.71v2.38c0,2.48-.26,5.09-2.2,6.69-1.62,1.36-3.37,1.59-4.86,1.59-1.21,0-3.59-.05-5.25-1.51-1.18-1.02-2.09-2.67-2.09-5.88v-3.26Zm19.55,0c0-3.37,0-4-.03-4.71-.05-.76-.26-.99-.99-1.2-.19-.05-.57-.08-.91-.08-.24,0-.4-.08-.4-.23s.18-.21,.52-.21c1.2,0,2.67,.05,3.14,.05,.78,0,2.87-.05,3.58-.05,1.46,0,3.13,.13,4.36,.94,.66,.45,1.62,1.57,1.62,3.06,0,1.65-.94,3.11-3.19,4.92,2.04,2.51,3.66,4.52,5.05,5.9,1.28,1.28,2.09,1.39,2.46,1.46,.24,.05,.36,.05,.55,.05s.29,.13,.29,.23c0,.19-.16,.23-.45,.23h-2.19c-1.28,0-1.91-.13-2.51-.44-.99-.49-1.85-1.54-3.14-3.27-.91-1.2-1.88-2.69-2.17-3.03-.13-.14-.26-.16-.42-.16l-2.07-.05c-.1,0-.18,.05-.18,.18v.32c0,2.06,.02,3.79,.13,4.73,.08,.65,.18,1.07,.89,1.18,.34,.05,.84,.08,1.12,.08,.19,0,.29,.13,.29,.23,0,.16-.18,.23-.47,.23-1.33,0-3.24-.08-3.57-.08-.44,0-1.91,.08-2.82,.08-.29,0-.45-.08-.45-.23,0-.1,.08-.23,.37-.23,.34,0,.6-.03,.81-.08,.47-.1,.6-.52,.68-1.18,.1-.94,.1-2.69,.1-4.73v-3.92Zm2.93,1.73c0,.23,.05,.31,.21,.39,.5,.16,1.17,.21,1.75,.21,.92,0,1.23-.08,1.62-.36,.71-.5,1.49-1.46,1.49-3.29,0-3.13-2.14-3.94-3.5-3.94-.57,0-1.13,.02-1.36,.08-.16,.05-.21,.13-.21,.31v6.62Zm14.22-1.73c0-3.37,0-4-.03-4.71-.05-.76-.26-.99-.99-1.2-.18-.05-.58-.08-.92-.08-.24,0-.39-.08-.39-.23s.18-.21,.52-.21c1.2,0,2.67,.05,3.32,.05,.73,0,5.83,.03,6.28,0,.42-.03,.78-.1,.97-.13,.13-.02,.26-.1,.36-.1,.14,0,.16,.1,.16,.21,0,.16-.13,.42-.18,1.44-.03,.24-.08,1.2-.13,1.47-.02,.1-.07,.36-.26,.36-.15,0-.18-.1-.18-.28,0-.16-.03-.55-.16-.81-.18-.39-.37-.71-1.52-.81-.39-.05-3.13-.11-3.61-.11-.11,0-.16,.08-.16,.21v5.49c0,.14,.03,.24,.16,.24,.53,0,3.5,0,4.03-.05,.55-.05,.88-.11,1.1-.34,.18-.16,.26-.29,.36-.29s.18,.1,.18,.23-.05,.5-.18,1.62c-.05,.44-.1,1.34-.1,1.49,0,.19-.02,.5-.23,.5-.16,0-.21-.08-.21-.18-.03-.23-.03-.52-.08-.81-.13-.44-.42-.78-1.28-.86-.41-.05-3.03-.11-3.61-.11-.1,0-.13,.11-.13,.23v1.78c0,.76-.02,2.64,0,3.29,.05,1.52,.76,1.86,3.12,1.86,.6,0,1.56-.03,2.17-.29,.58-.26,.84-.73,.99-1.65,.05-.24,.1-.34,.26-.34,.18,0,.21,.29,.21,.52,0,.5-.18,2.01-.31,2.45-.16,.57-.36,.57-1.23,.57-1.72,0-3.11-.02-4.23-.08-1.13-.02-1.99-.05-2.67-.05-.26,0-.76,.03-1.31,.03-.55,.02-1.12,.05-1.59,.05-.29,0-.44-.08-.44-.23,0-.1,.08-.23,.37-.23,.34,0,.6-.03,.81-.08,.47-.1,.6-.52,.67-1.18,.11-.94,.11-2.69,.11-4.73v-3.92Z"/>
      <g>
        <path class="cls-1" d="M228.9,89.3c-1.79-.75-3.33-1.79-5.46-2.22-1.04,1.52-2.07,3.04-2.48,5.21,1.98,.66,3.47,1.82,5.46,2.47,1.28-1.2,1.38-3.57,2.98-4.46,1.98,.58,3.31,1.83,4.98,2.73,1.09-1.73,2.44-3.18,2.98-5.45-1.89-.85-3.45-2.03-5.47-2.73-1.32,1.14-1.69,3.26-2.98,4.46m-166.34-5.95c1.56,1.25,3.6,2.04,5.47,2.98,1.09-1.48,1.89-3.25,2.48-5.21-1.4-1.51-3.44-2.36-5.71-2.98-1.12,1.36-1.78,3.18-2.24,5.21m198.38-1.48c1.66,.91,3.14,1.98,4.96,2.71,1.21-1.51,2.31-3.14,2.99-5.2-1.85-.9-3.35-2.1-5.47-2.72-1.19,1.38-2.24,2.89-2.48,5.21m-1.74-38.21c-2.54,.11-2.38,6.04-3.23,8.18-1.77-1.79-1.98-5.12-5.22-5.46-.21,1.02-.64,1.85-.5,3.21,3.26,.98,4.8,3.65,5.97,6.72,1.55-2.6,.66-7.61,2.48-9.93,.65-.06,.9,.28,1.16,.62,.24,.33,.49,.65,1.08,.62,.64-2.2-.33-3.97-1.67-3.97-.02,0-.04,0-.07,0m26.57,0c1.7,.95,2.92,2.37,4.71,3.23,1.22-1.44,2.37-2.95,2.74-5.21-1.57-1.32-3.02-2.78-5.22-3.48-.74,1.82-2.21,2.92-2.23,5.46m-171.31-3.47c-2.07-.67-3.32-2.15-5.72-2.48-.73,1.75-1.6,3.35-1.99,5.44,1.91,.91,3.46,2.17,5.71,2.73,1.22-1.01,1.34-3.13,2.48-4.21,2.28,.38,3.39,1.92,5.47,2.49,.74-1.75,1.85-3.11,1.98-5.47-1.35-1.54-3.67-2.11-5.7-2.98-.89,1.36-1.28,3.19-2.24,4.47m96.8-1.73c1.76,1.21,3.81,2.16,5.72,3.22,1.07-1.5,1.79-3.35,2.23-5.46-1.59-1.46-3.81-2.31-5.96-3.22-.82,1.66-1.64,3.32-1.99,5.46m-69.24,2.98c-1.72-2.84-3.09-6.03-6.7-6.96-2.2,2.52,.4,5.21,2.48,4.48,2.1,1.54,2.94,4.32,4.47,6.44,2.04-2.24,.16-8.43,2.48-10.42,.64-.04,1.05,.37,1.4,.79,.42,.5,.77,.99,1.34,.7-.33-2.96-1.03-4.08-1.82-4.08-1.81,0-4.12,5.86-3.65,9.06m-56.37-7.45c-1.94-.72-3.64-1.67-5.46-2.48-.71,1.85-1.95,3.18-1.99,5.7,1.84,.81,3.53,1.77,5.21,2.73,.95-1.37,1.28-3.35,2.48-4.47,1.93,.73,3.53,1.78,5.22,2.73,.88-1.85,1.98-3.47,2.48-5.71-2.03-.78-3.61-2-5.71-2.72-.81,1.35-1.28,3.04-2.24,4.22m162.13,.74c-6.24,2.12-15.66,3.82-16.4,10.42,.6,1.39,1.94,2.04,3.24,2.74,.38-.87,1.24-1.23,1.24-2.49-.81-.83-2.55-.76-2.74-2.23,4.05-3.44,9.74-4.67,15.15-6.44,13.47-4.44,28.3-8.27,42.46-11.92,2.25-.58,6.91-.4,6.95-3.97-15.97,3.85-34.12,8.54-49.91,13.9m-17.15-8.68c1.24-.62,2.02-3.38,1-4.7-.48,.66,0,2.28-1.23,2.21-3.13-2.11,.95-7.74-.75-10.67-1.14,3.54-3.6,11.68,.99,13.16m-17.13-14.13c-2.24,1.73-1.79,6.12-2.48,9.43-1.75-2.57-2.6-6-6.21-6.71-1.44,2.32-.03,5.66,2.49,4.23,1.42,1.96,2.62,4.17,3.96,6.2,1.9-2.4-.02-8.62,2.49-10.42,1.41-.17,1.36,1.12,2.48,1.25,1.19-1.74,.11-4.02-2.1-4.02-.2,0-.41,.02-.63,.06m-108.73,5.2c-.07,.76-1.25,1.7-.5,2.48,.06-.2,.21-.29,.5-.25,8.56-3.1,19.14-5.61,28.07-8.44,2.88-.91,7.24-.78,8.2-4.22-12.15,3.43-24.25,6.89-36.26,10.43m82.95-4.72c1.36,2.95,1.4,7.2,1.98,11.66,1.82,13.87,6.34,30.6,4.23,43.66,2.44-2.13,3.46-6.38,3.47-10.17,.05-12.97-3.72-27.91-5.22-39.7,1.25,.13,2.16,2.81,3.23,1.5-1.97-4.37-3.68-9.05-5.96-13.14,.03,1.77-2.49,4.55-1.73,6.19m-107.52-.48c-3.41,.88-7.38,1.66-11.43,2.97-4.02,1.29-11.06,2.28-11.42,5.94h.74c6.69-2.71,14.79-4.93,22.6-6.94,5.97-1.53,11.61-3.25,17.14-4.97,1.57-.49,4.52-.44,4.47-2.98-6.53,1.32-13.76,3.79-22.09,5.97m99.32,47.12c2.35-.97,7.04-.13,7.2,2.73-.62,.3-1.23,.42-1.83,.42-2.25,0-4.27-1.8-5.37-3.16m-93.12-1.98c.01-2.32,3.39-5.13,4.72-4.97,2,.24,2.35,3.48,2.48,6.2-1.51,.97-2.98,2-4.46,2.98-1.6-.92-2.75-2.46-2.74-4.21M46.92,28.28c.36,8.49,1.13,16.51,.99,24.06-.14,6.77-3.12,9.05-7.7,12.16-2.8,1.89-5.53,3.33-8.19,4.71-9.5,4.9-28.42,9.54-30.04-4.71-.57-4.91,1.19-8.17,2.23-13.15,.64-.12,1.91,.05,2.48-.76,1.03-2.38,3.39-7.04,1.48-9.92-1.13,.93-.27,3.86-1.74,4.47-8.42-1.41-3.22-14.59-2.72-20.83-3.51,6.26-6.18,21.88,0,27.04-4.98,8.45-5.56,23.21,2.72,27.54,3.48,1.82,8.43,1.8,13.17,.74,9.01-2.03,20.71-8.9,25.58-14.63,1.97-2.32,2.45-6.18,3.98-8.45-.18,8.04,3.24,14.65,9.94,14.39,5.98-.23,7.89-5.68,11.42-8.94-.84,10.33,11.18,9.15,16.88,5.46,2.04,1.18,3.98,2.26,6.46,2.25,5.75-.03,9.34-4.8,12.67-7.45-.08,2.13,.72,4,1.49,4.95,5.29,6.53,17.47-.75,21.36-4.22-.76,6.84,6.46,8.3,10.44,4.72,2.02-1.84,2.21-4.32,3.72-5.46,.01,3.92,2.55,5.88,5.46,5.7,3.89-.2,4.55-4.1,6.7-5.96,3.61,8.29,14.45,.99,19.37-1.22,.87,.77,1.28,2.03,1.73,3.23,0,0-8.74,7.04-6.24,19.08,1.1,5.28,6.24,9.67,11.68,10.92,8.03,1.87,18.15-1.86,24.58-4.96,5.44-2.6,11.25-5.81,13.66-8.19,2.35-2.31,5.28-9.38,2.23-11.9-2.9-2.4-16.43-.4-16.63-5.21-.06-1.51,2.71-4.13,4.22-5.46,2.03-1.8,4.09-3.41,6.95-2.97,1.74,3.23,2.63,6.3,4.96,8.69,5.72,5.79,16.67,8.03,27.31,7.43,11.59-.65,22.72-5.82,30.55-8.69-1.42,8.29,8.56,8.71,11.92,4.23,1.21-1.62,2.25-5.88,2.23-8.18,0-2.58-1.23-5.34-2.97-6.46-2.16,3.62-1.01,6.81,.75,9.93-3.78,3.51-12.18,1.38-9.19-5.21-7.78,2.74-18.54,7.77-30.04,8.67-10.33,.83-21.13-.82-27.57-6.21-3.09-2.57-4.58-6.48-6.21-10.41-4.55,.57-8.42,3.45-11.42,7.2-2.21,2.77-4.99,8.08-4.23,12.14,1.29,6.75,13.99,2.67,17.89,7.2-6.61,4.12-19.65,11.79-31.04,12.64-8.78,.67-16.36-3.32-17.38-10.67,0,0-1.91-6.89,4.75-12.63,2.22,2.03,4.77,4.23,7.7,2.96,2.68-1.15,3.95-8.37,3.23-11.65-.96-4.37-6.94-4.18-11.42-2.99-.91-4.71-1.78-9.47-2.48-14.37l-.25-2c-.95-6.88-2.61-14.42-2.98-21.08,1.17,.21,2.3,2.92,3.23,1.73-2.07-4.47-4.06-9.01-6.71-12.9-.84,1.64-1.55,3.41-1.99,5.46,2.21,3.12,2.1,8.37,2.73,13.14,1.42,10.75,3.61,22.13,5.21,32.27-3.89,3.42-15.76,7.92-16.89-1-1.67,2.13-2.13,7.11-6.21,7.42-3.38,.26-6.05-2.92-4.47-6.43-2.38,.72-2.73,4.92-5.47,6.94-4.22,3.12-11.17,.18-8.44-5.71-5.14,2.06-11.96,9.69-19.86,6.69-2.49-.92-4.04-3.55-3.73-7.7-4.52,2.97-7.89,9.37-15.64,7.46,1.21-2.3,2.97-5.11,3.23-8.93,.21-3.08-.89-7.88-3.23-8.18-1.23-.16-4.03,1.88-4.96,2.98-2.86,3.35-4.36,9.48-3.73,14.14-6.06,2.96-13.81-.41-11.42-8.19-4.18,2.63-5.74,8.96-11.92,9.69-2.88,.32-5.53-.8-7.21-2.74-3.05-3.52-2.41-10.27-2.73-17.34-.66-14.51-.92-33.28-3.47-44.67-3.28,6.63-1.2,17.97-.74,28.28"/>
        <g class="cls-2">
          <rect class="cls-1" x="-9.82" y="-48.44" width="314.86" height="192.76" transform="translate(-7.49 53.38) rotate(-20)"/>
        </g>
      </g>
    </g>
  </g>
</svg>