<svg  viewBox="0 0 1920 551" fill="none" xmlns="http://www.w3.org/2000/svg">
    <path d="M1919.9 275.93C1907.42 275.67 1894.45 275.88 1880.9 276.64C1875.82 276.92 1870.69 277.28 1865.51 277.7C1855.83 275.09 1846 272.21 1836.06 269.14H1836.08C1835.88 269.11 1835.75 269.05 1835.57 269C1832.73 268.12 1829.85 267.21 1826.99 266.29C1810.7 260.97 1801.04 256.59 1795.37 253.33C1838.63 240.75 1880.55 228.88 1919.89 219.35V160.73C1887.78 165.9 1853.61 173.92 1817.13 185.45C1776.58 198.3 1739.03 209.41 1703.9 219.07C1675.57 206.57 1646.24 192.57 1615.82 177.12C1706.24 118.42 1792 68.4499 1863.48 45.7999C1882.96 39.6299 1901.75 34.3199 1919.89 29.7299V23.5699C1899.64 28.7799 1878.75 34.7299 1857.23 41.5399C1783.19 65.0299 1695.25 113.07 1602.77 170.5C1469.87 101.56 1363.84 23.1699 1239.16 64.2199C1155.71 91.7199 1079.82 155.86 1012.08 189.1C1001.91 194.11 991.79 198.79 981.71 203.37C820.15 131.55 640.67 18.5999 549.29 5.45987C454.45 -8.20013 379.03 24.3099 300.14 62.7299C229.58 11.9299 163.43 -14.4501 102.03 8.15987C165.96 -3.13013 223.28 20.4199 287.78 68.7699C263.78 80.5399 239.35 92.6599 213.86 104.03C172.69 122.34 133.95 138.33 101.18 151.3C67.88 137.02 34.23 122.06 0 106.41V109C31.37 125.05 62.28 140.22 92.73 154.65C39.36 175.61 0 189 0 189V217C43.44 207.9 96.8 194.76 143.53 178.08C146.98 179.65 150.48 181.28 153.93 182.81H153.9L155.8 183.65C155.99 183.75 156.2 183.85 156.41 183.94H156.43L180.71 194.55L180.84 194.52C202.14 203.6 223.36 212.12 244.53 220.09C238.39 223.23 232.21 226.4 226.06 229.58C158.3 264.73 68.47 287.63 0 302V340.5C58.55 319.84 151.01 286.24 233.33 243.64C244.29 237.98 255.18 232.78 266 227.96C353.52 259.35 440.28 280.67 528.14 288.94C714.77 464.93 836.89 557.17 966.34 550.41C1051.97 545.95 1141.61 495.6 1247.42 425.47C1280.99 430.58 1313.91 433.25 1347.06 433.66C1461.34 434.97 1578.71 409.24 1736.97 362.85C1801.78 343.87 1864.29 325.62 1919.9 313.56V275.93ZM1603.3 188.54C1626.52 200.43 1652.61 212.92 1680.78 225.31C1604.61 245.44 1540.36 258.27 1483.3 265.82C1522.63 239.13 1561.95 212.44 1600.53 187.13C1601.45 187.61 1602.38 188.08 1603.3 188.54ZM1011.58 194.61C1078.94 161.57 1149.41 127.04 1231.68 99.9799C1347.57 61.8699 1460.27 115.61 1587.11 180.27C1541.91 208.67 1495.78 239.06 1449.77 269.74C1342.42 280.57 1259.1 272.45 1162.54 261.08C1111.24 255.07 1050.42 233.64 986.62 205.54L1011.58 194.6V194.61ZM519.74 45.9299C662.69 55.6099 786.66 155.97 933.93 223.54C926.62 226.41 919.3 229.21 912.01 231.85L901.18 235.66C874.78 244.88 848.7 252.59 822.84 259.02C718.35 201.67 621.7 141.95 514.11 134.7C479.5 132.33 442.84 138.62 404.98 150.25C381.29 128.47 358.02 108.01 335.2 89.5599C399.82 61.3099 462.47 42.0799 519.75 45.9399L519.74 45.9299ZM258.29 213.1C234.08 204.63 209.75 195.6 185.22 185.99L168.36 179.29L172.7 181C166.86 178.69 160.99 176.21 155.14 173.85C179.59 164.7 203.54 154.37 226.11 142.71C258.07 126.15 290 109.95 321.52 95.6199C342.76 113.42 364.95 133.52 388.5 155.61C346.1 170.16 302.34 190.83 258.3 213.08L258.29 213.1ZM281.93 221.17C329.13 201.94 375.17 190.72 420.39 185.87C438.03 202.73 456.45 220.52 475.83 239.13C489.15 251.91 502.14 264.33 514.84 276.37C437.36 266.66 360.25 247.31 281.93 221.18V221.17ZM486.86 227.73C471.46 212.96 456.24 198.35 441.18 184.08C564.09 176.07 681.41 213.8 800.54 264.26C712.3 283.67 626.76 287.5 541.91 279.37C524.12 263.11 505.81 245.94 486.86 227.73ZM554.75 291.02C638.29 296.37 723 289.68 810.41 268.46C845.01 283.31 879.76 299.1 914.86 315.13C1032.45 368.7 1127.37 402.7 1215.84 419.97C982.3 553.81 839.72 547.99 554.75 291.03V291.02ZM922.7 309.99C891.06 295.55 860.54 279.59 830.67 263.3C859.78 255.51 889.22 246.2 919.03 235.11L939.61 226.09C1101.65 299.67 1225.93 332.86 1351.21 335.41C1316.94 358 1284.79 378.67 1254.22 397.25C1155.13 394.15 1051.6 368.74 922.69 309.99H922.7ZM1760.3 293.59C1749.25 296.16 1738.02 299.1 1726.94 302.43C1550.53 354.06 1421.64 394.79 1289.13 397.43C1318.16 377.74 1348.4 356.93 1380.11 335.43C1494.3 333.51 1611.85 307.02 1761.89 263.08C1766.07 261.86 1770.24 260.67 1774.39 259.43C1781.17 263.65 1788.7 267.22 1795.46 270.03L1794.89 270.19C1797.36 271.06 1799.86 271.9 1802.35 272.74C1810.59 275.82 1816.56 277.47 1816.56 277.47H1816.58C1820.71 278.8 1824.87 280.11 1829.02 281.4C1806.5 284.25 1783.51 288.2 1760.29 293.58L1760.3 293.59Z" fill="url(#paint0_linear_0_1)"/>
    <path d="M384.257 357.155L324.514 416.898L384.257 476.642L444.001 416.898L384.257 357.155Z" fill="url(#paint1_linear_0_1)"/>

    <defs>
        <linearGradient id="paint0_linear_0_1" x1="0" y1="275.38" x2="1919.9" y2="275.38" gradientUnits="userSpaceOnUse">
            <stop stop-color="#C7EAFB"/>
            <stop offset="0.09" stop-color="#C3E9FA"/>
            <stop offset="0.16" stop-color="#B9E6FA"/>
            <stop offset="0.23" stop-color="#A8E2F9"/>
            <stop offset="0.29" stop-color="#91DCF8"/>
            <stop offset="0.35" stop-color="#72D5F7"/>
            <stop offset="0.41" stop-color="#4CCBF5"/>
            <stop offset="0.46" stop-color="#20C1F3"/>
            <stop offset="0.5" stop-color="#00B9F2"/>
            <stop offset="0.62" stop-color="#00B5EF"/>
            <stop offset="0.72" stop-color="#00ABE6"/>
            <stop offset="0.81" stop-color="#009AD6"/>
            <stop offset="0.89" stop-color="#0083C1"/>
            <stop offset="0.97" stop-color="#0064A5"/>
            <stop offset="1" stop-color="#005799"/>
        </linearGradient>
        <linearGradient id="paint1_linear_0_1" x1="384.23" y1="357.188" x2="384.23" y2="476.668" gradientUnits="userSpaceOnUse">
            <stop stop-color="#8C004E"/>
            <stop offset="1" stop-color="#D7007A"/>
        </linearGradient>
    </defs>
</svg>
