<svg width="1229" height="77" viewBox="0 0 1229 77" fill="none" xmlns="http://www.w3.org/2000/svg">
<g clip-path="url(#clip0_614_2)">
<path d="M17.0994 -0.014779L-0.00146484 17.0801L17.0934 34.1809L34.1942 17.086L17.0994 -0.014779Z" fill="#003DA6"/>
<path d="M18.1396 42.3707L1.03467 59.4756L18.1396 76.5805L35.2445 59.4756L18.1396 42.3707Z" fill="#8D0E57"/>
<path d="M38.3778 21.2605L21.283 38.3613L38.3838 55.4562L55.4786 38.3554L38.3778 21.2605Z" fill="#CCCCCC"/>
<path d="M59.7334 0.014573L42.6296 17.1064L59.7215 34.2103L76.8253 17.1184L59.7334 0.014573Z" fill="#CCCCCC"/>
<path d="M60.7632 42.401L43.6553 59.5029L60.7572 76.6108L77.8651 59.5089L60.7632 42.401Z" fill="#CCCCCC"/>
<path d="M81.0085 21.2684L63.9106 38.3662L81.0085 55.4641L98.1063 38.3662L81.0085 21.2684Z" fill="#D8C0B4"/>
<path d="M102.37 0L85.27 17.09L102.37 34.2L119.47 17.09L102.37 0Z" fill="#CCCCCC"/>
<path d="M103.405 42.3756L86.2998 59.4805L103.405 76.5854L120.51 59.4805L103.405 42.3756Z" fill="#CCCCCC"/>
<path d="M123.642 21.284L106.544 38.3818L123.642 55.4797L140.74 38.3818L123.642 21.284Z" fill="#CCCCCC"/>
<path d="M144.994 -0.017714L127.893 17.0771L144.988 34.178L162.089 17.0831L144.994 -0.017714Z" fill="#CCCCCC"/>
<path d="M146.039 42.4059L128.931 59.5078L146.033 76.6157L163.141 59.5138L146.039 42.4059Z" fill="#00A7E1"/>
<path d="M166.283 21.2732L149.186 38.3711L166.283 55.4689L183.381 38.3711L166.283 21.2732Z" fill="#CCCCCC"/>
<path d="M187.651 0.020427L170.547 17.1123L187.639 34.2161L204.743 17.1242L187.651 0.020427Z" fill="#8D0E57"/>
<path d="M188.67 42.3707L171.565 59.4756L188.67 76.5805L205.775 59.4756L188.67 42.3707Z" fill="#CCCCCC"/>
<path d="M208.907 21.2498L191.812 38.3506L208.913 55.4454L226.008 38.3446L208.907 21.2498Z" fill="#CCCCCC"/>
<path d="M230.285 0.0165316L213.182 17.1084L230.274 34.2122L247.377 17.1203L230.285 0.0165316Z" fill="#CCCCCC"/>
<path d="M231.314 42.4117L214.206 59.5137L231.308 76.6216L248.416 59.5196L231.314 42.4117Z" fill="#CCCCCC"/>
<path d="M251.551 21.2947L234.453 38.3926L251.551 55.4904L268.649 38.3926L251.551 21.2947Z" fill="#CCCCCC"/>
<path d="M272.91 0L255.8 17.09L272.91 34.2L290.01 17.09L272.91 0Z" fill="#CCCCCC"/>
<path d="M273.96 42.4059L256.853 59.5078L273.954 76.6157L291.062 59.5138L273.96 42.4059Z" fill="#CCCCCC"/>
<path d="M294.192 21.284L277.094 38.3818L294.192 55.4797L311.29 38.3818L294.192 21.284Z" fill="#CCCCCC"/>
<path d="M315.535 -0.0167267L298.434 17.0781L315.529 34.179L332.63 17.0841L315.535 -0.0167267Z" fill="#CCCCCC"/>
<path d="M316.59 42.4176L299.482 59.5195L316.584 76.6274L333.692 59.5255L316.59 42.4176Z" fill="#CCCCCC"/>
<path d="M336.806 21.2605L319.708 38.3584L336.806 55.4562L353.904 38.3584L336.806 21.2605Z" fill="#CCCCCC"/>
<path d="M358.18 0L341.08 17.09L358.18 34.2L375.28 17.09L358.18 0Z" fill="#003DA6"/>
<path d="M359.2 42.3746L342.095 59.4795L359.2 76.5844L376.305 59.4795L359.2 42.3746Z" fill="#CCCCCC"/>
<path d="M379.457 21.2889L362.359 38.3867L379.457 55.4846L396.555 38.3867L379.457 21.2889Z" fill="#CCCCCC"/>
<path d="M400.801 -0.0216311L383.7 17.0732L400.795 34.1741L417.896 17.0792L400.801 -0.0216311Z" fill="#999999"/>
<path d="M401.833 42.357L384.729 59.4619L401.833 76.5668L418.938 59.4619L401.833 42.357Z" fill="#CCCCCC"/>
<path d="M422.081 21.2752L404.983 38.373L422.081 55.4709L439.179 38.3731L422.081 21.2752Z" fill="#CCCCCC"/>
<path d="M443.45 0L426.34 17.09L443.45 34.2L460.55 17.09L443.45 0Z" fill="#D8C0B4"/>
<path d="M444.485 42.3902L427.38 59.4951L444.485 76.6L461.589 59.4951L444.485 42.3902Z" fill="#00A7E1"/>
<path d="M464.693 21.24L447.598 38.3408L464.699 55.4357L481.794 38.3349L464.693 21.24Z" fill="#CCCCCC"/>
<path d="M486.114 0.0350862L469.01 17.127L486.102 34.2308L503.205 17.1389L486.114 0.0350862Z" fill="#CCCCCC"/>
<path d="M487.099 42.3521L469.994 59.457L487.099 76.5619L504.203 59.457L487.099 42.3521Z" fill="#CCCCCC"/>
<path d="M507.336 21.2359L490.231 38.3408L507.336 55.4457L524.441 38.3408L507.336 21.2359Z" fill="#CCCCCC"/>
<path d="M528.696 -0.0245392L511.595 17.0703L528.69 34.1711L545.79 17.0763L528.696 -0.0245392Z" fill="#CCCCCC"/>
<path d="M529.74 42.3648L512.635 59.4697L529.74 76.5746L546.845 59.4697L529.74 42.3648Z" fill="#CCCCCC"/>
<path d="M549.97 21.2557L532.873 38.3535L549.97 55.4514L567.068 38.3535L549.97 21.2557Z" fill="#CCCCCC"/>
<path d="M571.325 -0.0235626L554.224 17.0713L571.319 34.1721L588.42 17.0773L571.325 -0.0235626Z" fill="#CCCCCC"/>
<path d="M572.356 42.3638L555.251 59.4688L572.356 76.5737L589.461 59.4687L572.356 42.3638Z" fill="#CCCCCC"/>
<path d="M592.621 21.2613L575.516 38.3662L592.621 55.4711L609.726 38.3662L592.621 21.2613Z" fill="#CCCCCC"/>
<path d="M613.98 0L596.88 17.09L613.98 34.2L631.08 17.09L613.98 0Z" fill="#CCCCCC"/>
<path d="M615.01 42.3896L597.91 59.4897L615.01 76.5896L632.12 59.4897L615.01 42.3896Z" fill="#999999"/>
<path d="M635.275 21.2867L618.17 38.3916L635.275 55.4965L652.38 38.3916L635.275 21.2867Z" fill="#003DA6"/>
<path d="M656.62 0L639.51 17.09L656.62 34.2L673.72 17.09L656.62 0Z" fill="#CCCCCC"/>
<path d="M657.639 42.3521L640.534 59.457L657.639 76.5619L674.744 59.457L657.639 42.3521Z" fill="#CCCCCC"/>
<path d="M677.916 21.3006L660.818 38.3984L677.916 55.4963L695.014 38.3984L677.916 21.3006Z" fill="#CCCCCC"/>
<path d="M699.227 -0.0440704L682.126 17.0508L699.221 34.1516L716.321 17.0568L699.227 -0.0440704Z" fill="#CCCCCC"/>
<path d="M700.269 42.355L683.165 59.46L700.269 76.5649L717.374 59.46L700.269 42.355Z" fill="#CCCCCC"/>
<path d="M720.52 21.2762L703.422 38.374L720.52 55.4719L737.618 38.374L720.52 21.2762Z" fill="#CCCCCC"/>
<path d="M741.856 -0.0323517L724.755 17.0625L741.85 34.1633L758.951 17.0685L741.856 -0.0323517Z" fill="#003DA6"/>
<path d="M742.924 42.3912L725.819 59.4961L742.924 76.601L760.028 59.4961L742.924 42.3912Z" fill="#CCCCCC"/>
<path d="M763.194 21.3319L746.096 38.4297L763.194 55.5275L780.292 38.4297L763.194 21.3319Z" fill="#CCCCCC"/>
<path d="M784.485 -0.0314183L767.384 17.0635L784.479 34.1643L801.58 17.0694L784.485 -0.0314183Z" fill="#CCCCCC"/>
<path d="M785.589 42.443L768.481 59.5449L785.583 76.6528L802.691 59.5509L785.589 42.443Z" fill="#CCCCCC"/>
<path d="M805.751 21.2185L788.656 38.3193L805.757 55.4142L822.852 38.3134L805.751 21.2185Z" fill="#D8C0B4"/>
<path d="M827.16 0L810.05 17.09L827.16 34.2L844.26 17.09L827.16 0Z" fill="#CCCCCC"/>
<path d="M828.162 42.3492L811.057 59.4541L828.162 76.559L845.266 59.4541L828.162 42.3492Z" fill="#CCCCCC"/>
<path d="M848.436 21.2703L831.338 38.3682L848.436 55.466L865.534 38.3682L848.436 21.2703Z" fill="#CCCCCC"/>
<path d="M869.768 -0.0421173L852.667 17.0527L869.762 34.1536L886.862 17.0587L869.768 -0.0421173Z" fill="#003DA6"/>
<path d="M870.81 42.355L853.705 59.46L870.81 76.5649L887.914 59.46L870.81 42.355Z" fill="#CCCCCC"/>
<path d="M891.016 21.2127L873.921 38.3135L891.021 55.4083L908.116 38.3075L891.016 21.2127Z" fill="#CCCCCC"/>
<path d="M912.427 -0.00110169L895.326 17.0938L912.421 34.1946L929.522 17.0997L912.427 -0.00110169Z" fill="#CCCCCC"/>
<path d="M913.426 42.3336L896.322 59.4385L913.426 76.5434L930.531 59.4385L913.426 42.3336Z" fill="#00A7E1"/>
<path d="M933.694 21.2723L916.596 38.3701L933.694 55.468L950.792 38.3701L933.694 21.2723Z" fill="#CCCCCC"/>
<path d="M955.026 -0.0401642L937.925 17.0547L955.02 34.1555L972.121 17.0607L955.026 -0.0401642Z" fill="#CCCCCC"/>
<path d="M956.141 42.4547L939.033 59.5566L956.135 76.6645L973.243 59.5626L956.141 42.4547Z" fill="#CCCCCC"/>
<path d="M976.335 21.2573L959.23 38.3623L976.335 55.4672L993.44 38.3623L976.335 21.2573Z" fill="#8D0E57"/>
<path d="M997.69 0L980.59 17.09L997.69 34.2L1014.79 17.09L997.69 0Z" fill="#CCCCCC"/>
<path d="M998.747 42.4088L981.639 59.5107L998.741 76.6186L1015.85 59.5167L998.747 42.4088Z" fill="#CCCCCC"/>
<path d="M1019 21.3172L1001.9 38.415L1019 55.5129L1036.1 38.415L1019 21.3172Z" fill="#CCCCCC"/>
<path d="M1040.33 0L1023.22 17.09L1040.33 34.2L1057.43 17.09L1040.33 0Z" fill="#CCCCCC"/>
<path d="M1041.42 42.4596L1024.31 59.5615L1041.41 76.6694L1058.52 59.5675L1041.42 42.4596Z" fill="#CCCCCC"/>
<path d="M1061.54 21.2019L1044.45 38.3027L1061.55 55.3976L1078.65 38.2967L1061.54 21.2019Z" fill="#CCCCCC"/>
<path d="M1082.96 0L1065.86 17.09L1082.96 34.2L1100.06 17.09L1082.96 0Z" fill="#CCCCCC"/>
<path d="M1083.96 42.3336L1066.85 59.4385L1083.96 76.5434L1101.06 59.4385L1083.96 42.3336Z" fill="#CCCCCC"/>
<path d="M1104.23 21.2722L1087.14 38.3701L1104.23 55.468L1121.33 38.3701L1104.23 21.2722Z" fill="#CCCCCC"/>
<path d="M1125.56 -0.0489964L1108.46 17.0459L1125.55 34.1467L1142.65 17.0518L1125.56 -0.0489964Z" fill="#003DA6"/>
<path d="M1126.69 42.4655L1109.58 59.5674L1126.69 76.6753L1143.79 59.5734L1126.69 42.4655Z" fill="#CCCCCC"/>
<path d="M1146.87 21.2782L1129.77 38.376L1146.87 55.4738L1163.97 38.376L1146.87 21.2782Z" fill="#CCCCCC"/>
<path d="M1168.22 0L1151.13 17.09L1168.22 34.2L1185.33 17.09L1168.22 0Z" fill="#8D0E57"/>
<path d="M1169.32 42.4665L1152.21 59.5684L1169.31 76.6762L1186.42 59.5744L1169.32 42.4665Z" fill="#CCCCCC"/>
<path d="M1189.54 21.2936L1172.43 38.3955L1189.53 55.5034L1206.64 38.4015L1189.54 21.2936Z" fill="#CCCCCC"/>
<path d="M1210.87 0L1193.76 17.09L1210.87 34.2L1227.97 17.09L1210.87 0Z" fill="#CCCCCC"/>
<path d="M1211.9 42.3896L1194.79 59.4897L1211.9 76.5896L1229.01 59.4897L1211.9 42.3896Z" fill="#D8C0B4"/>
</g>
<defs>
<clipPath id="clip0_614_2">
<rect width="1229" height="76.59" fill="white"/>
</clipPath>
</defs>
</svg>
