<svg width="1920" height="1082" viewBox="0 0 1920 1082" fill="none" xmlns="http://www.w3.org/2000/svg">
<path d="M1920 1H0V1081H1920V1Z" fill="#CFD3ED"/>
<path d="M1565.63 0L484.4 1081.23L8.6499 1080L1088.65 0H1565.63Z" fill="#006F9B"/>
<path opacity="0.5" d="M1920 1L840 1081L1920 1079.19V1Z" fill="#2E5EB9"/>
<g clip-path="url(#clip0_611_85)">
<path d="M1356.4 425.45C1356.4 427.27 1354.93 428.74 1353.11 428.74C1351.29 428.74 1349.82 427.27 1349.82 425.45C1349.82 423.63 1351.29 422.16 1353.11 422.16C1354.93 422.16 1356.4 423.63 1356.4 425.45Z" fill="#999999"/>
<path d="M1389.71 425.45C1389.71 427.27 1388.23 428.74 1386.42 428.74C1384.61 428.74 1383.12 427.27 1383.12 425.45C1383.12 423.63 1384.6 422.16 1386.42 422.16C1388.24 422.16 1389.71 423.63 1389.71 425.45Z" fill="#999999"/>
<path d="M1423.01 425.45C1423.01 427.27 1421.54 428.74 1419.72 428.74C1417.9 428.74 1416.43 427.27 1416.43 425.45C1416.43 423.63 1417.9 422.16 1419.72 422.16C1421.54 422.16 1423.01 423.63 1423.01 425.45Z" fill="#999999"/>
<path d="M1456.32 425.45C1456.32 427.27 1454.84 428.74 1453.03 428.74C1451.22 428.74 1449.73 427.27 1449.73 425.45C1449.73 423.63 1451.2 422.16 1453.03 422.16C1454.86 422.16 1456.32 423.63 1456.32 425.45Z" fill="#999999"/>
<path d="M1489.62 425.45C1489.62 427.27 1488.14 428.74 1486.33 428.74C1484.52 428.74 1483.04 427.27 1483.04 425.45C1483.04 423.63 1484.52 422.16 1486.33 422.16C1488.14 422.16 1489.62 423.63 1489.62 425.45Z" fill="#999999"/>
<path d="M1522.93 425.45C1522.93 427.27 1521.45 428.74 1519.64 428.74C1517.83 428.74 1516.34 427.27 1516.34 425.45C1516.34 423.63 1517.82 422.16 1519.64 422.16C1521.46 422.16 1522.93 423.63 1522.93 425.45Z" fill="#999999"/>
<path d="M1556.23 425.45C1556.23 427.27 1554.75 428.74 1552.94 428.74C1551.13 428.74 1549.65 427.27 1549.65 425.45C1549.65 423.63 1551.13 422.16 1552.94 422.16C1554.75 422.16 1556.23 423.63 1556.23 425.45Z" fill="#999999"/>
<path d="M1589.54 425.45C1589.54 427.27 1588.06 428.74 1586.25 428.74C1584.44 428.74 1582.96 427.27 1582.96 425.45C1582.96 423.63 1584.44 422.16 1586.25 422.16C1588.06 422.16 1589.54 423.63 1589.54 425.45Z" fill="#999999"/>
<path d="M1622.84 425.45C1622.84 427.27 1621.36 428.74 1619.55 428.74C1617.74 428.74 1616.26 427.27 1616.26 425.45C1616.26 423.63 1617.74 422.16 1619.55 422.16C1621.36 422.16 1622.84 423.63 1622.84 425.45Z" fill="#999999"/>
<path d="M1656.14 425.45C1656.14 427.27 1654.67 428.74 1652.85 428.74C1651.03 428.74 1649.56 427.27 1649.56 425.45C1649.56 423.63 1651.04 422.16 1652.85 422.16C1654.66 422.16 1656.14 423.63 1656.14 425.45Z" fill="#999999"/>
<path d="M1689.45 425.45C1689.45 427.27 1687.97 428.74 1686.16 428.74C1684.35 428.74 1682.87 427.27 1682.87 425.45C1682.87 423.63 1684.35 422.16 1686.16 422.16C1687.97 422.16 1689.45 423.63 1689.45 425.45Z" fill="#999999"/>
<path d="M1356.4 450.7C1356.4 452.52 1354.93 453.99 1353.11 453.99C1351.29 453.99 1349.82 452.52 1349.82 450.7C1349.82 448.88 1351.29 447.41 1353.11 447.41C1354.93 447.41 1356.4 448.89 1356.4 450.7Z" fill="#999999"/>
<path d="M1389.71 450.7C1389.71 452.52 1388.23 453.99 1386.42 453.99C1384.61 453.99 1383.12 452.52 1383.12 450.7C1383.12 448.88 1384.6 447.41 1386.42 447.41C1388.24 447.41 1389.71 448.89 1389.71 450.7Z" fill="#999999"/>
<path d="M1456.32 450.7C1456.32 452.52 1454.84 453.99 1453.03 453.99C1451.22 453.99 1449.73 452.52 1449.73 450.7C1449.73 448.88 1451.2 447.41 1453.03 447.41C1454.86 447.41 1456.32 448.89 1456.32 450.7Z" fill="#999999"/>
<path d="M1489.62 450.7C1489.62 452.52 1488.14 453.99 1486.33 453.99C1484.52 453.99 1483.04 452.52 1483.04 450.7C1483.04 448.88 1484.52 447.41 1486.33 447.41C1488.14 447.41 1489.62 448.89 1489.62 450.7Z" fill="#999999"/>
<path d="M1556.23 450.7C1556.23 452.52 1554.75 453.99 1552.94 453.99C1551.13 453.99 1549.65 452.52 1549.65 450.7C1549.65 448.88 1551.13 447.41 1552.94 447.41C1554.75 447.41 1556.23 448.89 1556.23 450.7Z" fill="#999999"/>
<path d="M1589.54 450.7C1589.54 452.52 1588.06 453.99 1586.25 453.99C1584.44 453.99 1582.96 452.52 1582.96 450.7C1582.96 448.88 1584.44 447.41 1586.25 447.41C1588.06 447.41 1589.54 448.89 1589.54 450.7Z" fill="#999999"/>
<path d="M1656.14 450.7C1656.14 452.52 1654.67 453.99 1652.85 453.99C1651.03 453.99 1649.56 452.52 1649.56 450.7C1649.56 448.88 1651.04 447.41 1652.85 447.41C1654.66 447.41 1656.14 448.89 1656.14 450.7Z" fill="#999999"/>
<path d="M1689.45 450.7C1689.45 452.52 1687.97 453.99 1686.16 453.99C1684.35 453.99 1682.87 452.52 1682.87 450.7C1682.87 448.88 1684.35 447.41 1686.16 447.41C1687.97 447.41 1689.45 448.89 1689.45 450.7Z" fill="#999999"/>
<path d="M1356.4 400.28C1356.4 402.1 1354.93 403.57 1353.11 403.57C1351.29 403.57 1349.82 402.1 1349.82 400.28C1349.82 398.46 1351.29 396.99 1353.11 396.99C1354.93 396.99 1356.4 398.46 1356.4 400.28Z" fill="#999999"/>
<path d="M1423.01 400.28C1423.01 402.1 1421.54 403.57 1419.72 403.57C1417.9 403.57 1416.43 402.1 1416.43 400.28C1416.43 398.46 1417.9 396.99 1419.72 396.99C1421.54 396.99 1423.01 398.46 1423.01 400.28Z" fill="#999999"/>
<path d="M1456.32 400.28C1456.32 402.1 1454.84 403.57 1453.03 403.57C1451.22 403.57 1449.73 402.1 1449.73 400.28C1449.73 398.46 1451.2 396.99 1453.03 396.99C1454.86 396.99 1456.32 398.46 1456.32 400.28Z" fill="#999999"/>
<path d="M1522.93 400.28C1522.93 402.1 1521.45 403.57 1519.64 403.57C1517.83 403.57 1516.34 402.1 1516.34 400.28C1516.34 398.46 1517.82 396.99 1519.64 396.99C1521.46 396.99 1522.93 398.46 1522.93 400.28Z" fill="#999999"/>
<path d="M1556.23 400.28C1556.23 402.1 1554.75 403.57 1552.94 403.57C1551.13 403.57 1549.65 402.1 1549.65 400.28C1549.65 398.46 1551.13 396.99 1552.94 396.99C1554.75 396.99 1556.23 398.46 1556.23 400.28Z" fill="#999999"/>
<path d="M1622.84 400.28C1622.84 402.1 1621.36 403.57 1619.55 403.57C1617.74 403.57 1616.26 402.1 1616.26 400.28C1616.26 398.46 1617.74 396.99 1619.55 396.99C1621.36 396.99 1622.84 398.46 1622.84 400.28Z" fill="#999999"/>
<path d="M1656.14 400.28C1656.14 402.1 1654.67 403.57 1652.85 403.57C1651.03 403.57 1649.56 402.1 1649.56 400.28C1649.56 398.46 1651.04 396.99 1652.85 396.99C1654.66 396.99 1656.14 398.46 1656.14 400.28Z" fill="#999999"/>
<path d="M1356.4 475.95C1356.4 477.77 1354.93 479.24 1353.11 479.24C1351.29 479.24 1349.82 477.77 1349.82 475.95C1349.82 474.13 1351.29 472.66 1353.11 472.66C1354.93 472.66 1356.4 474.14 1356.4 475.95Z" fill="#999999"/>
<path d="M1389.71 475.95C1389.71 477.77 1388.23 479.24 1386.42 479.24C1384.61 479.24 1383.12 477.77 1383.12 475.95C1383.12 474.13 1384.6 472.66 1386.42 472.66C1388.24 472.66 1389.71 474.14 1389.71 475.95Z" fill="#999999"/>
<path d="M1423.01 475.95C1423.01 477.77 1421.54 479.24 1419.72 479.24C1417.9 479.24 1416.43 477.77 1416.43 475.95C1416.43 474.13 1417.9 472.66 1419.72 472.66C1421.54 472.66 1423.01 474.14 1423.01 475.95Z" fill="#999999"/>
<path d="M1456.32 475.95C1456.32 477.77 1454.84 479.24 1453.03 479.24C1451.22 479.24 1449.73 477.77 1449.73 475.95C1449.73 474.13 1451.2 472.66 1453.03 472.66C1454.86 472.66 1456.32 474.14 1456.32 475.95Z" fill="#999999"/>
<path d="M1489.62 475.95C1489.62 477.77 1488.14 479.24 1486.33 479.24C1484.52 479.24 1483.04 477.77 1483.04 475.95C1483.04 474.13 1484.52 472.66 1486.33 472.66C1488.14 472.66 1489.62 474.14 1489.62 475.95Z" fill="#999999"/>
<path d="M1522.93 475.95C1522.93 477.77 1521.45 479.24 1519.64 479.24C1517.83 479.24 1516.34 477.77 1516.34 475.95C1516.34 474.13 1517.82 472.66 1519.64 472.66C1521.46 472.66 1522.93 474.14 1522.93 475.95Z" fill="#999999"/>
<path d="M1556.23 475.95C1556.23 477.77 1554.75 479.24 1552.94 479.24C1551.13 479.24 1549.65 477.77 1549.65 475.95C1549.65 474.13 1551.13 472.66 1552.94 472.66C1554.75 472.66 1556.23 474.14 1556.23 475.95Z" fill="#999999"/>
<path d="M1589.54 475.95C1589.54 477.77 1588.06 479.24 1586.25 479.24C1584.44 479.24 1582.96 477.77 1582.96 475.95C1582.96 474.13 1584.44 472.66 1586.25 472.66C1588.06 472.66 1589.54 474.14 1589.54 475.95Z" fill="#999999"/>
<path d="M1622.84 475.95C1622.84 477.77 1621.36 479.24 1619.55 479.24C1617.74 479.24 1616.26 477.77 1616.26 475.95C1616.26 474.13 1617.74 472.66 1619.55 472.66C1621.36 472.66 1622.84 474.14 1622.84 475.95Z" fill="#999999"/>
<path d="M1656.14 475.95C1656.14 477.77 1654.67 479.24 1652.85 479.24C1651.03 479.24 1649.56 477.77 1649.56 475.95C1649.56 474.13 1651.04 472.66 1652.85 472.66C1654.66 472.66 1656.14 474.14 1656.14 475.95Z" fill="#999999"/>
<path d="M1689.45 475.95C1689.45 477.77 1687.97 479.24 1686.16 479.24C1684.35 479.24 1682.87 477.77 1682.87 475.95C1682.87 474.13 1684.35 472.66 1686.16 472.66C1687.97 472.66 1689.45 474.14 1689.45 475.95Z" fill="#999999"/>
<path d="M1389.71 501.21C1389.71 503.03 1388.23 504.5 1386.42 504.5C1384.61 504.5 1383.12 503.03 1383.12 501.21C1383.12 499.39 1384.6 497.92 1386.42 497.92C1388.24 497.92 1389.71 499.39 1389.71 501.21Z" fill="#999999"/>
<path d="M1423.01 501.21C1423.01 503.03 1421.54 504.5 1419.72 504.5C1417.9 504.5 1416.43 503.03 1416.43 501.21C1416.43 499.39 1417.9 497.92 1419.72 497.92C1421.54 497.92 1423.01 499.39 1423.01 501.21Z" fill="#999999"/>
<path d="M1489.62 501.21C1489.62 503.03 1488.14 504.5 1486.33 504.5C1484.52 504.5 1483.04 503.03 1483.04 501.21C1483.04 499.39 1484.52 497.92 1486.33 497.92C1488.14 497.92 1489.62 499.39 1489.62 501.21Z" fill="#999999"/>
<path d="M1522.93 501.21C1522.93 503.03 1521.45 504.5 1519.64 504.5C1517.83 504.5 1516.34 503.03 1516.34 501.21C1516.34 499.39 1517.82 497.92 1519.64 497.92C1521.46 497.92 1522.93 499.39 1522.93 501.21Z" fill="#999999"/>
<path d="M1589.54 501.21C1589.54 503.03 1588.06 504.5 1586.25 504.5C1584.44 504.5 1582.96 503.03 1582.96 501.21C1582.96 499.39 1584.44 497.92 1586.25 497.92C1588.06 497.92 1589.54 499.39 1589.54 501.21Z" fill="#999999"/>
<path d="M1622.84 501.21C1622.84 503.03 1621.36 504.5 1619.55 504.5C1617.74 504.5 1616.26 503.03 1616.26 501.21C1616.26 499.39 1617.74 497.92 1619.55 497.92C1621.36 497.92 1622.84 499.39 1622.84 501.21Z" fill="#999999"/>
<path d="M1689.45 501.21C1689.45 503.03 1687.97 504.5 1686.16 504.5C1684.35 504.5 1682.87 503.03 1682.87 501.21C1682.87 499.39 1684.35 497.92 1686.16 497.92C1687.97 497.92 1689.45 499.39 1689.45 501.21Z" fill="#999999"/>
<path d="M1686.17 396.008L1681.89 400.287L1686.17 404.564L1690.44 400.286L1686.17 396.008Z" fill="#003DA6"/>
<path d="M1419.65 446.413L1415.38 450.691L1419.65 454.969L1423.93 450.691L1419.65 446.413Z" fill="#003DA6"/>
<path d="M1519.77 446.416L1515.49 450.693L1519.77 454.972L1524.05 450.695L1519.77 446.416Z" fill="#00A7E1"/>
<path d="M1619.57 446.443L1615.29 450.72L1619.57 454.999L1623.85 450.723L1619.57 446.443Z" fill="#B0876F"/>
<path d="M1353.28 496.926L1349 501.205L1353.28 505.482L1357.55 501.204L1353.28 496.926Z" fill="#B0876F"/>
<path d="M1453.16 496.938L1448.88 501.216L1453.16 505.494L1457.43 501.216L1453.16 496.938Z" fill="#00A7E1"/>
<path d="M1553.04 496.933L1548.76 501.212L1553.04 505.489L1557.32 501.21L1553.04 496.933Z" fill="#8D0E57"/>
<path d="M1652.82 496.926L1648.54 501.204L1652.82 505.482L1657.1 501.204L1652.82 496.926Z" fill="#003DA6"/>
<path d="M1586.28 396.006L1582 400.284L1586.28 404.562L1590.56 400.284L1586.28 396.006Z" fill="#8D0E57"/>
<path d="M1486.38 395.989L1482.1 400.267L1486.38 404.545L1490.66 400.267L1486.38 395.989Z" fill="#00A7E1"/>
<path d="M1386.51 396L1382.23 400.277L1386.51 404.556L1390.78 400.279L1386.51 396Z" fill="#8D0E57"/>
<path d="M1723.39 425.45C1723.39 427.27 1721.91 428.74 1720.1 428.74C1718.29 428.74 1716.81 427.27 1716.81 425.45C1716.81 423.63 1718.28 422.16 1720.1 422.16C1721.92 422.16 1723.39 423.63 1723.39 425.45Z" fill="#999999"/>
<path d="M1756.7 425.45C1756.7 427.27 1755.23 428.74 1753.41 428.74C1751.59 428.74 1750.12 427.27 1750.12 425.45C1750.12 423.63 1751.59 422.16 1753.41 422.16C1755.23 422.16 1756.7 423.63 1756.7 425.45Z" fill="#999999"/>
<path d="M1790 425.45C1790 427.27 1788.53 428.74 1786.7 428.74C1784.87 428.74 1783.41 427.27 1783.41 425.45C1783.41 423.63 1784.88 422.16 1786.7 422.16C1788.52 422.16 1790 423.63 1790 425.45Z" fill="#999999"/>
<path d="M1823.31 425.45C1823.31 427.27 1821.83 428.74 1820.01 428.74C1818.19 428.74 1816.72 427.27 1816.72 425.45C1816.72 423.63 1818.2 422.16 1820.01 422.16C1821.82 422.16 1823.31 423.63 1823.31 425.45Z" fill="#999999"/>
<path d="M1756.7 450.7C1756.7 452.52 1755.23 453.99 1753.41 453.99C1751.59 453.99 1750.12 452.52 1750.12 450.7C1750.12 448.88 1751.59 447.41 1753.41 447.41C1755.23 447.41 1756.7 448.89 1756.7 450.7Z" fill="#999999"/>
<path d="M1790 450.7C1790 452.52 1788.53 453.99 1786.7 453.99C1784.87 453.99 1783.41 452.52 1783.41 450.7C1783.41 448.88 1784.88 447.41 1786.7 447.41C1788.52 447.41 1790 448.89 1790 450.7Z" fill="#999999"/>
<path d="M1723.39 400.28C1723.39 402.1 1721.91 403.57 1720.1 403.57C1718.29 403.57 1716.81 402.1 1716.81 400.28C1716.81 398.46 1718.28 396.99 1720.1 396.99C1721.92 396.99 1723.39 398.46 1723.39 400.28Z" fill="#999999"/>
<path d="M1756.7 400.28C1756.7 402.1 1755.23 403.57 1753.41 403.57C1751.59 403.57 1750.12 402.1 1750.12 400.28C1750.12 398.46 1751.59 396.99 1753.41 396.99C1755.23 396.99 1756.7 398.46 1756.7 400.28Z" fill="#999999"/>
<path d="M1823.31 400.28C1823.31 402.1 1821.83 403.57 1820.01 403.57C1818.19 403.57 1816.72 402.1 1816.72 400.28C1816.72 398.46 1818.2 396.99 1820.01 396.99C1821.82 396.99 1823.31 398.46 1823.31 400.28Z" fill="#999999"/>
<path d="M1723.39 475.95C1723.39 477.77 1721.91 479.24 1720.1 479.24C1718.29 479.24 1716.81 477.77 1716.81 475.95C1716.81 474.13 1718.28 472.66 1720.1 472.66C1721.92 472.66 1723.39 474.14 1723.39 475.95Z" fill="#999999"/>
<path d="M1756.7 475.95C1756.7 477.77 1755.23 479.24 1753.41 479.24C1751.59 479.24 1750.12 477.77 1750.12 475.95C1750.12 474.13 1751.59 472.66 1753.41 472.66C1755.23 472.66 1756.7 474.14 1756.7 475.95Z" fill="#999999"/>
<path d="M1790 475.95C1790 477.77 1788.53 479.24 1786.7 479.24C1784.87 479.24 1783.41 477.77 1783.41 475.95C1783.41 474.13 1784.88 472.66 1786.7 472.66C1788.52 472.66 1790 474.14 1790 475.95Z" fill="#999999"/>
<path d="M1823.31 475.95C1823.31 477.77 1821.83 479.24 1820.01 479.24C1818.19 479.24 1816.72 477.77 1816.72 475.95C1816.72 474.13 1818.2 472.66 1820.01 472.66C1821.82 472.66 1823.31 474.14 1823.31 475.95Z" fill="#999999"/>
<path d="M1723.39 501.21C1723.39 503.03 1721.91 504.5 1720.1 504.5C1718.29 504.5 1716.81 503.03 1716.81 501.21C1716.81 499.39 1718.28 497.92 1720.1 497.92C1721.92 497.92 1723.39 499.39 1723.39 501.21Z" fill="#999999"/>
<path d="M1790 501.21C1790 503.03 1788.53 504.5 1786.7 504.5C1784.87 504.5 1783.41 503.03 1783.41 501.21C1783.41 499.39 1784.88 497.92 1786.7 497.92C1788.52 497.92 1790 499.39 1790 501.21Z" fill="#999999"/>
<path d="M1823.31 501.21C1823.31 503.03 1821.83 504.5 1820.01 504.5C1818.19 504.5 1816.72 503.03 1816.72 501.21C1816.72 499.39 1818.2 497.92 1820.01 497.92C1821.82 497.92 1823.31 499.39 1823.31 501.21Z" fill="#999999"/>
<path d="M1720.1 446.413L1715.83 450.691L1720.1 454.969L1724.38 450.691L1720.1 446.413Z" fill="#003DA6"/>
<path d="M1753.41 496.95L1749.14 501.229L1753.42 505.506L1757.69 501.227L1753.41 496.95Z" fill="#00A7E1"/>
<path d="M1820.09 446.454L1815.81 450.732L1820.09 455.01L1824.37 450.732L1820.09 446.454Z" fill="#B0876F"/>
<path d="M1786.85 396.025L1782.57 400.302L1786.85 404.581L1791.13 400.305L1786.85 396.025Z" fill="#00A7E1"/>
</g>
<defs>
<clipPath id="clip0_611_85">
<rect width="475.35" height="109.48" fill="white" transform="translate(1349 396)"/>
</clipPath>
</defs>
</svg>
