<svg width="1920" height="1082" viewBox="0 0 1920 1082" fill="none" xmlns="http://www.w3.org/2000/svg">
<path d="M1920 1H0V1081H1920V1Z" fill="#CFD3ED"/>
<path d="M1565.63 0L484.4 1081.23L8.6499 1080L1088.65 0H1565.63Z" fill="#006F9B"/>
<path opacity="0.5" d="M1920 1L840 1081L1920 1079.19V1Z" fill="#2E5EB9"/>
<g clip-path="url(#clip0_631_2)">
<path d="M1356.4 425.45C1356.4 427.27 1354.93 428.74 1353.11 428.74C1351.29 428.74 1349.82 427.27 1349.82 425.45C1349.82 423.63 1351.29 422.16 1353.11 422.16C1354.93 422.16 1356.4 423.63 1356.4 425.45Z" fill="#999999"/>
<path d="M1389.71 425.45C1389.71 427.27 1388.23 428.74 1386.42 428.74C1384.61 428.74 1383.12 427.27 1383.12 425.45C1383.12 423.63 1384.6 422.16 1386.42 422.16C1388.24 422.16 1389.71 423.63 1389.71 425.45Z" fill="#999999"/>
<path d="M1423.01 425.45C1423.01 427.27 1421.54 428.74 1419.72 428.74C1417.9 428.74 1416.43 427.27 1416.43 425.45C1416.43 423.63 1417.9 422.16 1419.72 422.16C1421.54 422.16 1423.01 423.63 1423.01 425.45Z" fill="#999999"/>
<path d="M1456.32 425.45C1456.32 427.27 1454.84 428.74 1453.03 428.74C1451.22 428.74 1449.73 427.27 1449.73 425.45C1449.73 423.63 1451.2 422.16 1453.03 422.16C1454.86 422.16 1456.32 423.63 1456.32 425.45Z" fill="#999999"/>
<path d="M1489.62 425.45C1489.62 427.27 1488.14 428.74 1486.33 428.74C1484.52 428.74 1483.04 427.27 1483.04 425.45C1483.04 423.63 1484.52 422.16 1486.33 422.16C1488.14 422.16 1489.62 423.63 1489.62 425.45Z" fill="#999999"/>
<path d="M1522.93 425.45C1522.93 427.27 1521.45 428.74 1519.64 428.74C1517.83 428.74 1516.34 427.27 1516.34 425.45C1516.34 423.63 1517.82 422.16 1519.64 422.16C1521.46 422.16 1522.93 423.63 1522.93 425.45Z" fill="#999999"/>
<path d="M1556.23 425.45C1556.23 427.27 1554.75 428.74 1552.94 428.74C1551.13 428.74 1549.65 427.27 1549.65 425.45C1549.65 423.63 1551.13 422.16 1552.94 422.16C1554.75 422.16 1556.23 423.63 1556.23 425.45Z" fill="#999999"/>
<path d="M1589.54 425.45C1589.54 427.27 1588.06 428.74 1586.25 428.74C1584.44 428.74 1582.96 427.27 1582.96 425.45C1582.96 423.63 1584.44 422.16 1586.25 422.16C1588.06 422.16 1589.54 423.63 1589.54 425.45Z" fill="#999999"/>
<path d="M1622.84 425.45C1622.84 427.27 1621.36 428.74 1619.55 428.74C1617.74 428.74 1616.26 427.27 1616.26 425.45C1616.26 423.63 1617.74 422.16 1619.55 422.16C1621.36 422.16 1622.84 423.63 1622.84 425.45Z" fill="#999999"/>
<path d="M1656.14 425.45C1656.14 427.27 1654.67 428.74 1652.85 428.74C1651.03 428.74 1649.56 427.27 1649.56 425.45C1649.56 423.63 1651.04 422.16 1652.85 422.16C1654.66 422.16 1656.14 423.63 1656.14 425.45Z" fill="#999999"/>
<path d="M1689.45 425.45C1689.45 427.27 1687.97 428.74 1686.16 428.74C1684.35 428.74 1682.87 427.27 1682.87 425.45C1682.87 423.63 1684.35 422.16 1686.16 422.16C1687.97 422.16 1689.45 423.63 1689.45 425.45Z" fill="#999999"/>
<path d="M1356.4 450.7C1356.4 452.52 1354.93 453.99 1353.11 453.99C1351.29 453.99 1349.82 452.52 1349.82 450.7C1349.82 448.88 1351.29 447.41 1353.11 447.41C1354.93 447.41 1356.4 448.89 1356.4 450.7Z" fill="#999999"/>
<path d="M1389.71 450.7C1389.71 452.52 1388.23 453.99 1386.42 453.99C1384.61 453.99 1383.12 452.52 1383.12 450.7C1383.12 448.88 1384.6 447.41 1386.42 447.41C1388.24 447.41 1389.71 448.89 1389.71 450.7Z" fill="#999999"/>
<path d="M1456.32 450.7C1456.32 452.52 1454.84 453.99 1453.03 453.99C1451.22 453.99 1449.73 452.52 1449.73 450.7C1449.73 448.88 1451.2 447.41 1453.03 447.41C1454.86 447.41 1456.32 448.89 1456.32 450.7Z" fill="#999999"/>
<path d="M1489.62 450.7C1489.62 452.52 1488.14 453.99 1486.33 453.99C1484.52 453.99 1483.04 452.52 1483.04 450.7C1483.04 448.88 1484.52 447.41 1486.33 447.41C1488.14 447.41 1489.62 448.89 1489.62 450.7Z" fill="#999999"/>
<path d="M1556.23 450.7C1556.23 452.52 1554.75 453.99 1552.94 453.99C1551.13 453.99 1549.65 452.52 1549.65 450.7C1549.65 448.88 1551.13 447.41 1552.94 447.41C1554.75 447.41 1556.23 448.89 1556.23 450.7Z" fill="#999999"/>
<path d="M1589.54 450.7C1589.54 452.52 1588.06 453.99 1586.25 453.99C1584.44 453.99 1582.96 452.52 1582.96 450.7C1582.96 448.88 1584.44 447.41 1586.25 447.41C1588.06 447.41 1589.54 448.89 1589.54 450.7Z" fill="#999999"/>
<path d="M1656.14 450.7C1656.14 452.52 1654.67 453.99 1652.85 453.99C1651.03 453.99 1649.56 452.52 1649.56 450.7C1649.56 448.88 1651.04 447.41 1652.85 447.41C1654.66 447.41 1656.14 448.89 1656.14 450.7Z" fill="#999999"/>
<path d="M1689.45 450.7C1689.45 452.52 1687.97 453.99 1686.16 453.99C1684.35 453.99 1682.87 452.52 1682.87 450.7C1682.87 448.88 1684.35 447.41 1686.16 447.41C1687.97 447.41 1689.45 448.89 1689.45 450.7Z" fill="#999999"/>
<path d="M1356.4 400.28C1356.4 402.1 1354.93 403.57 1353.11 403.57C1351.29 403.57 1349.82 402.1 1349.82 400.28C1349.82 398.46 1351.29 396.99 1353.11 396.99C1354.93 396.99 1356.4 398.46 1356.4 400.28Z" fill="#999999"/>
<path d="M1423.01 400.28C1423.01 402.1 1421.54 403.57 1419.72 403.57C1417.9 403.57 1416.43 402.1 1416.43 400.28C1416.43 398.46 1417.9 396.99 1419.72 396.99C1421.54 396.99 1423.01 398.46 1423.01 400.28Z" fill="#999999"/>
<path d="M1456.32 400.28C1456.32 402.1 1454.84 403.57 1453.03 403.57C1451.22 403.57 1449.73 402.1 1449.73 400.28C1449.73 398.46 1451.2 396.99 1453.03 396.99C1454.86 396.99 1456.32 398.46 1456.32 400.28Z" fill="#999999"/>
<path d="M1522.93 400.28C1522.93 402.1 1521.45 403.57 1519.64 403.57C1517.83 403.57 1516.34 402.1 1516.34 400.28C1516.34 398.46 1517.82 396.99 1519.64 396.99C1521.46 396.99 1522.93 398.46 1522.93 400.28Z" fill="#999999"/>
<path d="M1556.23 400.28C1556.23 402.1 1554.75 403.57 1552.94 403.57C1551.13 403.57 1549.65 402.1 1549.65 400.28C1549.65 398.46 1551.13 396.99 1552.94 396.99C1554.75 396.99 1556.23 398.46 1556.23 400.28Z" fill="#999999"/>
<path d="M1622.84 400.28C1622.84 402.1 1621.36 403.57 1619.55 403.57C1617.74 403.57 1616.26 402.1 1616.26 400.28C1616.26 398.46 1617.74 396.99 1619.55 396.99C1621.36 396.99 1622.84 398.46 1622.84 400.28Z" fill="#999999"/>
<path d="M1656.14 400.28C1656.14 402.1 1654.67 403.57 1652.85 403.57C1651.03 403.57 1649.56 402.1 1649.56 400.28C1649.56 398.46 1651.04 396.99 1652.85 396.99C1654.66 396.99 1656.14 398.46 1656.14 400.28Z" fill="#999999"/>
<path d="M1356.4 475.95C1356.4 477.77 1354.93 479.24 1353.11 479.24C1351.29 479.24 1349.82 477.77 1349.82 475.95C1349.82 474.13 1351.29 472.66 1353.11 472.66C1354.93 472.66 1356.4 474.14 1356.4 475.95Z" fill="#999999"/>
<path d="M1389.71 475.95C1389.71 477.77 1388.23 479.24 1386.42 479.24C1384.61 479.24 1383.12 477.77 1383.12 475.95C1383.12 474.13 1384.6 472.66 1386.42 472.66C1388.24 472.66 1389.71 474.14 1389.71 475.95Z" fill="#999999"/>
<path d="M1423.01 475.95C1423.01 477.77 1421.54 479.24 1419.72 479.24C1417.9 479.24 1416.43 477.77 1416.43 475.95C1416.43 474.13 1417.9 472.66 1419.72 472.66C1421.54 472.66 1423.01 474.14 1423.01 475.95Z" fill="#999999"/>
<path d="M1456.32 475.95C1456.32 477.77 1454.84 479.24 1453.03 479.24C1451.22 479.24 1449.73 477.77 1449.73 475.95C1449.73 474.13 1451.2 472.66 1453.03 472.66C1454.86 472.66 1456.32 474.14 1456.32 475.95Z" fill="#999999"/>
<path d="M1489.62 475.95C1489.62 477.77 1488.14 479.24 1486.33 479.24C1484.52 479.24 1483.04 477.77 1483.04 475.95C1483.04 474.13 1484.52 472.66 1486.33 472.66C1488.14 472.66 1489.62 474.14 1489.62 475.95Z" fill="#999999"/>
<path d="M1522.93 475.95C1522.93 477.77 1521.45 479.24 1519.64 479.24C1517.83 479.24 1516.34 477.77 1516.34 475.95C1516.34 474.13 1517.82 472.66 1519.64 472.66C1521.46 472.66 1522.93 474.14 1522.93 475.95Z" fill="#999999"/>
<path d="M1556.23 475.95C1556.23 477.77 1554.75 479.24 1552.94 479.24C1551.13 479.24 1549.65 477.77 1549.65 475.95C1549.65 474.13 1551.13 472.66 1552.94 472.66C1554.75 472.66 1556.23 474.14 1556.23 475.95Z" fill="#999999"/>
<path d="M1589.54 475.95C1589.54 477.77 1588.06 479.24 1586.25 479.24C1584.44 479.24 1582.96 477.77 1582.96 475.95C1582.96 474.13 1584.44 472.66 1586.25 472.66C1588.06 472.66 1589.54 474.14 1589.54 475.95Z" fill="#999999"/>
<path d="M1622.84 475.95C1622.84 477.77 1621.36 479.24 1619.55 479.24C1617.74 479.24 1616.26 477.77 1616.26 475.95C1616.26 474.13 1617.74 472.66 1619.55 472.66C1621.36 472.66 1622.84 474.14 1622.84 475.95Z" fill="#999999"/>
<path d="M1656.14 475.95C1656.14 477.77 1654.67 479.24 1652.85 479.24C1651.03 479.24 1649.56 477.77 1649.56 475.95C1649.56 474.13 1651.04 472.66 1652.85 472.66C1654.66 472.66 1656.14 474.14 1656.14 475.95Z" fill="#999999"/>
<path d="M1689.45 475.95C1689.45 477.77 1687.97 479.24 1686.16 479.24C1684.35 479.24 1682.87 477.77 1682.87 475.95C1682.87 474.13 1684.35 472.66 1686.16 472.66C1687.97 472.66 1689.45 474.14 1689.45 475.95Z" fill="#999999"/>
<path d="M1389.71 501.21C1389.71 503.03 1388.23 504.5 1386.42 504.5C1384.61 504.5 1383.12 503.03 1383.12 501.21C1383.12 499.39 1384.6 497.92 1386.42 497.92C1388.24 497.92 1389.71 499.39 1389.71 501.21Z" fill="#999999"/>
<path d="M1423.01 501.21C1423.01 503.03 1421.54 504.5 1419.72 504.5C1417.9 504.5 1416.43 503.03 1416.43 501.21C1416.43 499.39 1417.9 497.92 1419.72 497.92C1421.54 497.92 1423.01 499.39 1423.01 501.21Z" fill="#999999"/>
<path d="M1489.62 501.21C1489.62 503.03 1488.14 504.5 1486.33 504.5C1484.52 504.5 1483.04 503.03 1483.04 501.21C1483.04 499.39 1484.52 497.92 1486.33 497.92C1488.14 497.92 1489.62 499.39 1489.62 501.21Z" fill="#999999"/>
<path d="M1522.93 501.21C1522.93 503.03 1521.45 504.5 1519.64 504.5C1517.83 504.5 1516.34 503.03 1516.34 501.21C1516.34 499.39 1517.82 497.92 1519.64 497.92C1521.46 497.92 1522.93 499.39 1522.93 501.21Z" fill="#999999"/>
<path d="M1589.54 501.21C1589.54 503.03 1588.06 504.5 1586.25 504.5C1584.44 504.5 1582.96 503.03 1582.96 501.21C1582.96 499.39 1584.44 497.92 1586.25 497.92C1588.06 497.92 1589.54 499.39 1589.54 501.21Z" fill="#999999"/>
<path d="M1622.84 501.21C1622.84 503.03 1621.36 504.5 1619.55 504.5C1617.74 504.5 1616.26 503.03 1616.26 501.21C1616.26 499.39 1617.74 497.92 1619.55 497.92C1621.36 497.92 1622.84 499.39 1622.84 501.21Z" fill="#999999"/>
<path d="M1689.45 501.21C1689.45 503.03 1687.97 504.5 1686.16 504.5C1684.35 504.5 1682.87 503.03 1682.87 501.21C1682.87 499.39 1684.35 497.92 1686.16 497.92C1687.97 497.92 1689.45 499.39 1689.45 501.21Z" fill="#999999"/>
<path d="M1686.17 396.008L1681.89 400.287L1686.17 404.564L1690.44 400.286L1686.17 396.008Z" fill="#003DA6"/>
<path d="M1419.65 446.413L1415.38 450.691L1419.65 454.969L1423.93 450.691L1419.65 446.413Z" fill="#003DA6"/>
<path d="M1519.77 446.416L1515.49 450.693L1519.77 454.972L1524.05 450.695L1519.77 446.416Z" fill="#00A7E1"/>
<path d="M1619.57 446.443L1615.29 450.72L1619.57 454.999L1623.85 450.723L1619.57 446.443Z" fill="#B0876F"/>
<path d="M1353.28 496.926L1349 501.205L1353.28 505.482L1357.55 501.204L1353.28 496.926Z" fill="#B0876F"/>
<path d="M1453.16 496.938L1448.88 501.216L1453.16 505.494L1457.43 501.216L1453.16 496.938Z" fill="#00A7E1"/>
<path d="M1553.04 496.933L1548.76 501.212L1553.04 505.489L1557.32 501.21L1553.04 496.933Z" fill="#8D0E57"/>
<path d="M1652.82 496.926L1648.54 501.204L1652.82 505.482L1657.1 501.204L1652.82 496.926Z" fill="#003DA6"/>
<path d="M1586.28 396.006L1582 400.284L1586.28 404.562L1590.56 400.284L1586.28 396.006Z" fill="#8D0E57"/>
<path d="M1486.38 395.989L1482.1 400.267L1486.38 404.545L1490.66 400.267L1486.38 395.989Z" fill="#00A7E1"/>
<path d="M1386.51 396L1382.23 400.277L1386.51 404.556L1390.78 400.279L1386.51 396Z" fill="#8D0E57"/>
<path d="M1723.39 425.45C1723.39 427.27 1721.91 428.74 1720.1 428.74C1718.29 428.74 1716.81 427.27 1716.81 425.45C1716.81 423.63 1718.28 422.16 1720.1 422.16C1721.92 422.16 1723.39 423.63 1723.39 425.45Z" fill="#999999"/>
<path d="M1756.7 425.45C1756.7 427.27 1755.23 428.74 1753.41 428.74C1751.59 428.74 1750.12 427.27 1750.12 425.45C1750.12 423.63 1751.59 422.16 1753.41 422.16C1755.23 422.16 1756.7 423.63 1756.7 425.45Z" fill="#999999"/>
<path d="M1790 425.45C1790 427.27 1788.53 428.74 1786.7 428.74C1784.87 428.74 1783.41 427.27 1783.41 425.45C1783.41 423.63 1784.88 422.16 1786.7 422.16C1788.52 422.16 1790 423.63 1790 425.45Z" fill="#999999"/>
<path d="M1823.31 425.45C1823.31 427.27 1821.83 428.74 1820.01 428.74C1818.19 428.74 1816.72 427.27 1816.72 425.45C1816.72 423.63 1818.2 422.16 1820.01 422.16C1821.82 422.16 1823.31 423.63 1823.31 425.45Z" fill="#999999"/>
<path d="M1756.7 450.7C1756.7 452.52 1755.23 453.99 1753.41 453.99C1751.59 453.99 1750.12 452.52 1750.12 450.7C1750.12 448.88 1751.59 447.41 1753.41 447.41C1755.23 447.41 1756.7 448.89 1756.7 450.7Z" fill="#999999"/>
<path d="M1790 450.7C1790 452.52 1788.53 453.99 1786.7 453.99C1784.87 453.99 1783.41 452.52 1783.41 450.7C1783.41 448.88 1784.88 447.41 1786.7 447.41C1788.52 447.41 1790 448.89 1790 450.7Z" fill="#999999"/>
<path d="M1723.39 400.28C1723.39 402.1 1721.91 403.57 1720.1 403.57C1718.29 403.57 1716.81 402.1 1716.81 400.28C1716.81 398.46 1718.28 396.99 1720.1 396.99C1721.92 396.99 1723.39 398.46 1723.39 400.28Z" fill="#999999"/>
<path d="M1756.7 400.28C1756.7 402.1 1755.23 403.57 1753.41 403.57C1751.59 403.57 1750.12 402.1 1750.12 400.28C1750.12 398.46 1751.59 396.99 1753.41 396.99C1755.23 396.99 1756.7 398.46 1756.7 400.28Z" fill="#999999"/>
<path d="M1823.31 400.28C1823.31 402.1 1821.83 403.57 1820.01 403.57C1818.19 403.57 1816.72 402.1 1816.72 400.28C1816.72 398.46 1818.2 396.99 1820.01 396.99C1821.82 396.99 1823.31 398.46 1823.31 400.28Z" fill="#999999"/>
<path d="M1723.39 475.95C1723.39 477.77 1721.91 479.24 1720.1 479.24C1718.29 479.24 1716.81 477.77 1716.81 475.95C1716.81 474.13 1718.28 472.66 1720.1 472.66C1721.92 472.66 1723.39 474.14 1723.39 475.95Z" fill="#999999"/>
<path d="M1756.7 475.95C1756.7 477.77 1755.23 479.24 1753.41 479.24C1751.59 479.24 1750.12 477.77 1750.12 475.95C1750.12 474.13 1751.59 472.66 1753.41 472.66C1755.23 472.66 1756.7 474.14 1756.7 475.95Z" fill="#999999"/>
<path d="M1790 475.95C1790 477.77 1788.53 479.24 1786.7 479.24C1784.87 479.24 1783.41 477.77 1783.41 475.95C1783.41 474.13 1784.88 472.66 1786.7 472.66C1788.52 472.66 1790 474.14 1790 475.95Z" fill="#999999"/>
<path d="M1823.31 475.95C1823.31 477.77 1821.83 479.24 1820.01 479.24C1818.19 479.24 1816.72 477.77 1816.72 475.95C1816.72 474.13 1818.2 472.66 1820.01 472.66C1821.82 472.66 1823.31 474.14 1823.31 475.95Z" fill="#999999"/>
<path d="M1723.39 501.21C1723.39 503.03 1721.91 504.5 1720.1 504.5C1718.29 504.5 1716.81 503.03 1716.81 501.21C1716.81 499.39 1718.28 497.92 1720.1 497.92C1721.92 497.92 1723.39 499.39 1723.39 501.21Z" fill="#999999"/>
<path d="M1790 501.21C1790 503.03 1788.53 504.5 1786.7 504.5C1784.87 504.5 1783.41 503.03 1783.41 501.21C1783.41 499.39 1784.88 497.92 1786.7 497.92C1788.52 497.92 1790 499.39 1790 501.21Z" fill="#999999"/>
<path d="M1823.31 501.21C1823.31 503.03 1821.83 504.5 1820.01 504.5C1818.19 504.5 1816.72 503.03 1816.72 501.21C1816.72 499.39 1818.2 497.92 1820.01 497.92C1821.82 497.92 1823.31 499.39 1823.31 501.21Z" fill="#999999"/>
<path d="M1720.1 446.413L1715.83 450.691L1720.1 454.969L1724.38 450.691L1720.1 446.413Z" fill="#003DA6"/>
<path d="M1753.41 496.95L1749.14 501.229L1753.42 505.506L1757.69 501.227L1753.41 496.95Z" fill="#00A7E1"/>
<path d="M1820.09 446.454L1815.81 450.732L1820.09 455.01L1824.37 450.732L1820.09 446.454Z" fill="#B0876F"/>
<path d="M1786.85 396.025L1782.57 400.302L1786.85 404.581L1791.13 400.305L1786.85 396.025Z" fill="#00A7E1"/>
</g>
<path d="M448.981 411.552L442.438 419.558L450.451 426.108L456.995 418.101L448.981 411.552Z" fill="url(#paint0_linear_631_2)"/>
<path d="M248.23 368.188C248.23 368.188 292.63 336.728 364.55 370.988C436.48 405.278 486.5 381.098 498.3 366.508C498.3 366.508 464.02 431.688 358.38 382.788C320.72 360.878 275.77 358.068 248.23 368.188Z" fill="url(#paint1_linear_631_2)"/>
<path style="mix-blend-mode:multiply" d="M340.97 374.178C346.33 376.408 351.63 378.968 356.8 381.888C362.9 378.818 370.23 376.788 375.1 375.658C371.64 374.238 368.13 372.688 364.56 370.978C362.54 370.018 360.55 369.108 358.57 368.248C351.89 369.768 344.83 372.538 340.97 374.168V374.178Z" fill="url(#paint2_linear_631_2)"/>
<path d="M451.66 382.788C451.66 382.788 407.27 351.328 335.33 385.608C263.41 419.888 213.39 395.718 201.59 381.108C201.59 381.108 235.87 446.298 341.53 397.418C379.18 375.498 424.13 372.688 451.67 382.798" fill="url(#paint3_linear_631_2)"/>
<path style="mix-blend-mode:multiply" d="M390.5 394.968C395.17 396.388 401.92 397.898 406.01 398.668C415.77 394.548 421.34 389.858 423.36 387.938C421.53 387.778 419.67 387.568 417.79 387.328C407.13 392.048 395.09 393.858 390.5 394.968Z" fill="url(#paint4_linear_631_2)"/>
<path style="mix-blend-mode:multiply" d="M304.4 410.938C311.68 409.068 319.42 406.568 327.64 403.348C318.94 401.568 311.7 398.708 307.07 396.568C300.86 398.418 294.87 399.828 289.1 400.858C295.58 405.768 300.77 408.968 304.4 410.938Z" fill="url(#paint5_linear_631_2)"/>
<path d="M180.8 381.668C180.8 381.668 225.2 350.208 297.12 384.488C369.05 418.768 419.07 394.598 430.88 379.988C430.88 379.988 396.59 445.178 290.94 396.288C253.3 374.368 208.33 371.558 180.8 381.668Z" fill="url(#paint6_linear_631_2)"/>
<path style="mix-blend-mode:multiply" d="M281.81 377.988C281.81 377.988 287.81 380.128 294.43 383.228C294.43 383.228 285.32 384.358 275.04 388.308C275.04 388.308 263.48 383.708 259.28 382.578C259.28 382.578 270.68 378.778 281.8 377.988H281.81Z" fill="url(#paint7_linear_631_2)"/>
<path d="M342.07 383.918C342.07 383.918 297.69 352.458 225.76 386.728C153.82 421.008 103.8 396.848 92 382.238C92 382.238 126.29 447.428 231.94 398.538C269.59 376.618 314.55 373.808 342.08 383.928" fill="url(#paint8_linear_631_2)"/>
<path style="mix-blend-mode:multiply" d="M212.25 392.598L207.9 394.248C207.9 394.248 211.46 401.008 215.89 405.308C215.89 405.308 223.92 402.158 226.49 400.978L212.24 392.598H212.25Z" fill="url(#paint9_linear_631_2)"/>
<path d="M239.36 400.458C220 396.218 206.91 387.688 201.59 381.098C201.59 381.098 209.4 395.928 229.03 406.138L239.36 400.448V400.458Z" fill="url(#paint10_linear_631_2)"/>
<path d="M413.52 544.028C413.52 545.738 412.13 547.138 410.42 547.138C408.71 547.138 407.31 545.748 407.31 544.028C407.31 542.308 408.7 540.918 410.42 540.918C412.14 540.918 413.52 542.308 413.52 544.028ZM432.48 511.748C431.29 511.748 428.85 511.838 428.69 511.838C428.46 511.838 425.94 511.748 424.16 511.748C423.73 511.748 423.54 511.838 423.54 512.058C423.54 512.198 423.72 512.378 423.85 512.378C424.21 512.378 424.86 512.418 425.18 512.478C426.46 512.648 426.69 513.278 426.77 514.568C426.83 515.278 426.87 518.188 426.87 518.188C426.87 522.198 425.92 525.428 423.34 527.698C421.45 529.358 418.16 530.418 414.75 530.418C413.96 530.418 241.98 530.488 241.27 530.418C239.13 530.258 237.27 529.698 235.24 528.338C232.84 526.778 231.13 524.418 231.13 518.758C231.13 515.268 231.13 515.558 231.17 514.568C231.26 513.218 231.48 512.698 232.55 512.478C232.99 512.378 233.26 512.378 233.52 512.378C233.65 512.378 233.84 512.198 233.84 512.058C233.84 511.838 233.65 511.748 233.2 511.748C232.01 511.748 229.57 511.838 229.4 511.838C229.17 511.838 226.65 511.748 224.88 511.748C224.43 511.748 224.26 511.838 224.26 512.058C224.26 512.198 224.43 512.378 224.57 512.378C224.91 512.378 225.58 512.418 225.89 512.478C227.18 512.648 227.4 513.278 227.48 514.568C227.58 515.778 227.58 516.858 227.58 522.768V525.678C227.58 535.498 226.37 537.478 223.85 540.028C223.5 540.338 222.97 540.788 222.48 541.058C222.12 541.288 222 541.468 222 541.698C222 541.868 222.17 541.908 222.25 541.908C222.39 541.908 222.48 541.858 222.52 541.858C222.92 541.638 223.58 541.238 224.12 540.878C227.26 538.768 228.99 536.968 229.82 535.038C230.42 533.658 230.74 532.348 230.92 530.558C234.03 532.628 238.29 533.118 240.82 533.238C241.46 533.268 413.23 533.238 413.6 533.238C416.88 533.238 421.18 532.928 425.22 530.398C426.8 529.408 427.91 528.168 428.69 526.798C430.1 524.308 430.4 521.368 430.4 518.638V517.658C430.4 515.968 430.41 515.278 430.44 514.548C430.53 513.198 430.75 512.678 431.82 512.458C432.25 512.358 432.53 512.358 432.78 512.358C432.92 512.358 433.1 512.178 433.1 512.038C433.1 511.818 432.92 511.728 432.48 511.728V511.748ZM170.73 507.988C170.73 509.358 171.85 510.488 173.22 510.488C174.59 510.488 175.7 509.358 175.7 507.988C175.7 506.618 174.6 505.518 173.22 505.518C171.84 505.518 170.73 506.618 170.73 507.988ZM214.33 511.748C213.14 511.748 210.7 511.838 210.52 511.838C210.37 511.838 209.15 511.798 207.84 511.768C205.92 511.708 203.53 511.628 201.76 511.628C193.86 511.628 191.02 513.558 190.01 514.268C188.63 515.228 186.86 517.298 186.86 519.748C186.86 526.298 193.76 531.308 202.72 531.308C203.64 531.308 204.41 531.038 204.41 530.588C204.41 530.218 204.03 529.928 202.7 529.928C196.59 529.928 191.78 526.658 191.78 522.418C191.78 520.898 191.97 517.798 195.32 515.318C198.67 512.818 202.52 513.008 203.98 513.008C205.04 513.008 206.14 513.118 206.78 513.248C207.05 513.298 208.01 513.508 208.53 513.798C208.57 514.028 208.6 514.268 208.62 514.558C208.71 515.768 208.71 516.848 208.71 522.758V525.668C208.71 535.488 207.52 537.468 204.99 540.018C204.64 540.328 204.1 540.778 203.62 541.048C203.27 541.278 203.13 541.458 203.13 541.688C203.13 541.858 203.3 541.898 203.39 541.898C203.52 541.898 203.62 541.848 203.65 541.848C204.05 541.628 204.72 541.228 205.26 540.868C208.39 538.758 210.13 536.958 210.96 535.028C212.12 532.348 212.25 529.968 212.25 523.778V522.748C212.25 516.838 212.25 515.758 212.3 514.548C212.38 513.198 212.6 512.678 213.67 512.458C214.1 512.358 214.37 512.358 214.65 512.358C214.78 512.358 214.96 512.178 214.96 512.038C214.96 511.818 214.78 511.728 214.33 511.728V511.748ZM165.76 505.508C164.39 505.508 163.28 506.608 163.28 507.978C163.28 509.348 164.39 510.478 165.76 510.478C167.13 510.478 168.24 509.348 168.24 507.978C168.24 506.608 167.13 505.508 165.76 505.508ZM181.79 525.068C181.79 531.318 178.17 538.708 169.58 538.708C167.92 538.708 165.8 538.298 164.67 537.648L162.58 536.328C160.53 534.858 157.13 530.628 157.13 524.538C157.13 516.488 162.43 511.508 169.45 511.508C178.04 511.508 181.8 519.468 181.8 525.078L181.79 525.068ZM178.6 524.128C178.6 516.518 174.92 513.468 169.73 513.468C164.81 513.468 160.31 517.258 160.31 525.508C160.31 535.528 166.03 536.688 168.83 536.688C174.45 536.688 178.6 532.128 178.6 524.128Z" fill="url(#paint11_linear_631_2)"/>
<path d="M300.43 448.369C300.43 448.039 300.84 447.909 301.48 447.909C304.9 447.909 308.51 448.099 309.23 448.099C309.83 448.099 312.72 447.909 316.01 447.909C316.92 447.909 317.18 448.099 317.18 448.369C317.18 448.759 316.86 448.839 316.54 448.839C316.01 448.839 314.76 448.839 313.98 449.229C313.57 449.419 313.12 449.949 313.12 450.799C313.12 451.649 313.7 453.959 314.37 456.849C315.35 461.049 322.19 485.159 323.17 488.639H323.3L337.24 451.189C338.23 448.499 338.48 448.169 338.88 448.169C339.33 448.169 339.74 449.009 340.52 451.259L353.6 488.509H353.87C355.64 482.469 361.68 463.419 363.98 455.009C364.64 452.569 364.7 451.659 364.7 450.799C364.7 449.619 363.98 448.839 360.95 448.839C360.62 448.839 360.36 448.629 360.36 448.369C360.36 448.039 360.69 447.909 361.47 447.909C364.83 447.909 367.58 448.099 368.18 448.099C368.64 448.099 371.47 447.909 373.5 447.909C374.09 447.909 374.43 448.039 374.43 448.309C374.43 448.629 374.24 448.839 373.84 448.839C373.56 448.839 372.33 448.899 371.6 449.159C369.63 449.889 368.57 452.639 367.32 456.259C364.43 464.599 357.8 485.489 355.24 492.839C353.53 497.709 353.2 498.489 352.48 498.489C351.82 498.489 351.42 497.639 350.5 495.079L337.63 458.549H337.5C335.13 464.869 326.13 488.909 323.76 495.019C322.71 497.779 322.38 498.489 321.59 498.489C320.93 498.489 320.61 497.769 319.29 493.299L307.59 454.339C306.54 450.849 305.69 449.879 303.99 449.219C303.12 448.889 301.48 448.829 301.03 448.829C300.7 448.829 300.43 448.759 300.43 448.359V448.369ZM257.79 448.439C257.79 448.039 258.13 447.919 258.85 447.919C261.8 447.919 265.94 448.109 266.27 448.109C266.99 448.109 271.99 447.919 274.02 447.919C278.16 447.919 282.57 448.319 286.05 450.799C287.68 451.989 290.57 455.209 290.57 459.739C290.57 464.609 288.54 469.459 282.62 474.919C288.01 481.809 292.48 487.659 296.29 491.739C299.84 495.479 302.67 496.209 304.3 496.469C305.55 496.659 306.48 496.659 306.87 496.659C307.2 496.659 307.46 496.859 307.46 497.059C307.46 497.449 307.07 497.589 305.88 497.589H301.22C297.54 497.589 295.9 497.259 294.19 496.339C291.36 494.829 289.06 491.609 285.32 486.689C282.57 483.069 279.47 478.669 278.17 476.959C277.9 476.689 277.71 476.559 277.31 476.559L269.22 476.429C268.89 476.429 268.76 476.619 268.76 476.949V478.519C268.76 484.829 268.76 490.019 269.09 492.779C269.28 494.689 269.68 496.129 271.64 496.389C272.56 496.519 274.02 496.659 274.61 496.659C275 496.659 275.14 496.859 275.14 497.059C275.14 497.389 274.81 497.589 274.08 497.589C270.47 497.589 266.33 497.389 266 497.389C265.94 497.389 261.8 497.589 259.83 497.589C259.11 497.589 258.78 497.459 258.78 497.059C258.78 496.859 258.91 496.659 259.3 496.659C259.89 496.659 260.68 496.519 261.27 496.389C262.58 496.129 262.92 494.689 263.18 492.779C263.5 490.019 263.5 484.829 263.5 478.519V466.959C263.5 456.709 263.5 454.859 263.37 452.769C263.24 450.529 262.72 449.479 260.55 449.009C260.02 448.889 258.91 448.829 258.31 448.829C258.06 448.829 257.79 448.689 257.79 448.429V448.439ZM268.77 472.679C268.77 473.009 268.9 473.269 269.23 473.469C270.22 474.059 273.24 474.519 276.14 474.519C277.71 474.519 279.55 474.329 281.07 473.269C283.37 471.689 285.07 468.149 285.07 463.149C285.07 454.939 280.73 450.019 273.7 450.019C271.73 450.019 269.96 450.209 269.29 450.409C268.97 450.539 268.77 450.799 268.77 451.199V472.679ZM374.32 496.329C378.06 495.849 379.68 492.759 381.15 488.679L399.6 438.189C400.58 435.509 400.91 435.019 401.4 435.019C401.89 435.019 402.2 435.419 403.17 437.949C404.4 441.039 417.16 474.619 422.12 486.969C425.06 494.209 427.41 495.509 429.12 495.999C430.34 496.399 431.56 496.479 432.37 496.479C432.86 496.479 433.19 496.559 433.19 496.969C433.19 497.459 432.44 497.619 431.55 497.619C430.33 497.619 424.4 497.619 418.79 497.459C417.25 497.379 416.35 497.379 416.35 496.899C416.35 496.569 416.61 496.409 416.93 496.319C417.42 496.149 417.91 495.429 417.42 494.129L409.86 474.129C409.7 473.799 409.54 473.629 409.12 473.629H391.65C391.23 473.629 390.99 473.889 390.83 474.289L385.94 488.679C385.22 490.709 384.81 492.669 384.81 494.139C384.81 495.749 386.52 496.489 387.9 496.489H388.72C389.28 496.489 389.53 496.649 389.53 496.979C389.53 497.469 389.04 497.629 388.31 497.629C386.35 497.629 382.87 497.389 381.97 497.389C381.07 497.389 376.6 497.629 372.79 497.629C371.73 497.629 371.25 497.469 371.25 496.979C371.25 496.649 371.58 496.489 371.98 496.489C372.54 496.489 373.67 496.409 374.33 496.329H374.32ZM392.54 470.719H408.06C408.46 470.719 408.46 470.469 408.38 470.149L400.66 448.199C400.26 446.989 399.84 446.989 399.44 448.199L392.28 470.149C392.12 470.559 392.28 470.719 392.53 470.719H392.54ZM234.66 478.199H220.54C220.2 478.199 220 478.389 219.88 478.719L215.93 490.349C215.35 491.999 215.02 493.579 215.02 494.749C215.02 496.069 216.4 496.649 217.51 496.649H218.17C218.63 496.649 218.83 496.779 218.83 497.049C218.83 497.439 218.43 497.579 217.85 497.579C216.27 497.579 213.44 497.379 212.71 497.379C211.98 497.379 208.37 497.579 205.29 497.579C204.43 497.579 204.04 497.449 204.04 497.049C204.04 496.779 204.3 496.649 204.63 496.649C205.1 496.649 206.02 496.589 206.54 496.509C209.57 496.129 210.88 493.629 212.05 490.339L226.98 449.539C227.76 447.369 228.02 446.979 228.41 446.979C228.8 446.979 229.07 447.299 229.86 449.339C230.84 451.839 241.16 478.969 245.17 488.969C247.53 494.809 249.44 495.859 250.83 496.269C251.81 496.599 252.8 496.659 253.45 496.659C253.85 496.659 254.11 496.729 254.11 497.059C254.11 497.449 253.51 497.589 252.8 497.589C251.81 497.589 247.02 497.589 242.48 497.459C241.23 497.389 240.51 497.389 240.51 496.999C240.51 496.739 240.71 496.609 240.97 496.529C241.37 496.399 241.77 495.819 241.37 494.759L235.25 478.589C235.12 478.339 235 478.199 234.65 478.199H234.66ZM234.07 475.369L227.82 457.629C227.5 456.649 227.18 456.649 226.84 457.629L221.05 475.369C220.92 475.709 221.05 475.839 221.26 475.839H233.8C234.12 475.839 234.12 475.639 234.06 475.369H234.07ZM157.37 436.819C157.37 436.329 157.78 436.169 158.67 436.169C162.33 436.169 167.44 436.409 167.86 436.409C169.81 436.409 172.99 436.169 176.72 436.169C190.06 436.169 192.98 444.299 192.98 448.369C192.98 455.029 189.16 459.019 185.34 462.989C191.36 464.869 199.41 470.639 199.41 480.139C199.41 488.849 192.58 497.869 178.67 497.869C177.78 497.869 175.18 497.699 172.82 497.619C170.46 497.459 168.18 497.379 167.86 497.379C167.7 497.379 166.31 497.379 164.61 497.459C162.99 497.459 161.12 497.619 159.9 497.619C159.01 497.619 158.6 497.459 158.6 496.969C158.6 496.729 158.75 496.479 159.24 496.479C159.98 496.479 160.95 496.319 161.68 496.149C163.31 495.829 163.71 494.039 164.04 491.679C164.45 488.269 164.45 481.849 164.45 474.039V459.729C164.45 447.049 164.45 444.769 164.29 442.169C164.12 439.409 163.47 438.109 160.79 437.529C160.15 437.369 158.75 437.289 158.03 437.289C157.7 437.289 157.37 437.119 157.37 436.799V436.819ZM170.94 461.539C170.94 462.109 171.11 462.269 171.51 462.429C172 462.509 173.46 462.749 176.48 462.749C181.03 462.749 182.17 462.589 183.88 460.639C185.59 458.679 186.8 455.769 186.8 452.429C186.8 445.679 183.79 438.439 175.83 438.439C174.93 438.439 173.23 438.519 171.92 438.849C171.2 439.009 170.94 439.259 170.94 439.749V461.539ZM170.94 470.149C170.94 476.419 170.94 486.489 171.03 487.709C171.28 491.679 171.28 492.819 173.8 494.049C175.99 495.109 179.48 495.269 180.95 495.269C185.33 495.269 192.41 492.919 192.41 483.719C192.41 478.849 190.79 471.769 184.53 467.469C181.76 465.599 179.73 465.359 177.77 465.109C176.71 464.949 172.64 464.949 171.43 464.949C171.1 464.949 170.93 465.109 170.93 465.519V470.149H170.94Z" fill="url(#paint12_linear_631_2)"/>
<path d="M445.84 541.968C445.84 539.148 447.99 537.108 450.92 537.108C453.85 537.108 456 539.148 456 541.968C456 544.788 453.85 546.768 450.92 546.768C447.99 546.768 445.84 544.668 445.84 541.968ZM455.06 541.918C455.06 539.548 453.29 537.938 450.92 537.938C448.55 537.938 446.78 539.538 446.78 541.918C446.78 544.298 448.55 545.948 450.97 545.948C453.39 545.948 455.06 544.238 455.06 541.918ZM449.04 541.148C449.04 540.318 448.98 539.938 448.98 539.658C448.98 539.328 448.81 539.278 448.37 539.278C448.31 539.278 448.2 539.218 448.2 539.168C448.2 539.058 448.31 539.008 448.48 539.008H448.76C448.87 539.008 449.31 539.058 449.48 539.058C449.98 539.058 450.2 539.008 450.64 539.008C451.58 539.008 452.96 539.168 452.96 540.498C452.96 541.048 452.79 541.488 451.97 542.158L452.91 543.318C453.63 544.198 453.85 544.258 453.96 544.258C454.07 544.258 454.13 544.318 454.13 544.368C454.13 544.478 454.07 544.538 453.74 544.538C453.02 544.538 452.64 544.598 451.81 543.488L451.04 542.438H450.04V542.928C450.04 544.028 450.1 544.088 450.15 544.138C450.26 544.198 450.54 544.248 450.7 544.248C450.81 544.248 450.86 544.248 450.86 544.358C450.86 544.468 450.75 544.528 450.64 544.528H450.42C450.31 544.528 449.81 544.468 449.54 544.468C449.38 544.468 448.82 544.528 448.71 544.528H448.43C448.32 544.528 448.21 544.528 448.21 544.418C448.21 544.308 448.32 544.248 448.43 544.248C448.763 544.248 448.947 544.138 448.98 543.918C448.98 543.638 449.04 543.258 449.04 542.378V541.158V541.148ZM450.03 541.808C450.2 541.918 450.53 541.978 450.86 541.978C451.03 541.978 451.25 541.928 451.41 541.808C451.69 541.638 451.91 541.368 451.91 540.818C451.91 540.048 451.41 539.488 450.53 539.488C450.47 539.488 450.14 539.488 450.03 539.598V541.808Z" fill="#003DA6"/>
<defs>
<linearGradient id="paint0_linear_631_2" x1="449.721" y1="426.109" x2="449.721" y2="411.559" gradientUnits="userSpaceOnUse">
<stop stop-color="#8C004E"/>
<stop offset="1" stop-color="#D7007A"/>
</linearGradient>
<linearGradient id="paint1_linear_631_2" x1="270.89" y1="319.608" x2="475.65" y2="415.088" gradientUnits="userSpaceOnUse">
<stop stop-color="#00A5E5"/>
<stop offset="0.09" stop-color="#00C0F3"/>
<stop offset="0.17" stop-color="#B9E5FB"/>
<stop offset="0.25" stop-color="#00C0F3"/>
<stop offset="0.33" stop-color="#00A5E5"/>
<stop offset="0.5" stop-color="#003854"/>
<stop offset="0.64" stop-color="#00A5E5"/>
<stop offset="0.73" stop-color="#005679"/>
<stop offset="0.83" stop-color="#00C0F3"/>
<stop offset="0.93" stop-color="#B9E5FB"/>
<stop offset="1" stop-color="#00A5E5"/>
</linearGradient>
<linearGradient id="paint2_linear_631_2" x1="358.03" y1="381.898" x2="358.03" y2="368.268" gradientUnits="userSpaceOnUse">
<stop stop-color="#333333"/>
<stop offset="1" stop-color="#999999"/>
</linearGradient>
<linearGradient id="paint3_linear_631_2" x1="201.59" y1="392.598" x2="451.66" y2="392.598" gradientUnits="userSpaceOnUse">
<stop stop-color="#BA8748"/>
<stop offset="0.18" stop-color="#CE9461"/>
<stop offset="0.23" stop-color="#FEDBB4"/>
<stop offset="0.3" stop-color="#BA8748"/>
<stop offset="0.47" stop-color="#3D2901"/>
<stop offset="0.62" stop-color="#BA8748"/>
<stop offset="0.75" stop-color="#CFA565"/>
<stop offset="0.82" stop-color="#FEDBB4"/>
<stop offset="0.88" stop-color="#CFA565"/>
<stop offset="1" stop-color="#BA8748"/>
</linearGradient>
<linearGradient id="paint4_linear_631_2" x1="406.94" y1="398.658" x2="406.94" y2="387.328" gradientUnits="userSpaceOnUse">
<stop stop-color="#333333"/>
<stop offset="1" stop-color="#999999"/>
</linearGradient>
<linearGradient id="paint5_linear_631_2" x1="308.37" y1="396.568" x2="308.37" y2="410.938" gradientUnits="userSpaceOnUse">
<stop stop-color="#333333"/>
<stop offset="1" stop-color="#999999"/>
</linearGradient>
<linearGradient id="paint6_linear_631_2" x1="180.8" y1="391.478" x2="430.88" y2="391.478" gradientUnits="userSpaceOnUse">
<stop offset="0.14" stop-color="#006CB7"/>
<stop offset="0.31" stop-color="#001841"/>
<stop offset="0.58" stop-color="#0066B3"/>
<stop offset="0.73" stop-color="#0091D0"/>
<stop offset="0.8" stop-color="#92C5EB"/>
<stop offset="0.88" stop-color="#0091D0"/>
<stop offset="1" stop-color="#00599A"/>
</linearGradient>
<linearGradient id="paint7_linear_631_2" x1="276.86" y1="377.988" x2="276.86" y2="388.308" gradientUnits="userSpaceOnUse">
<stop stop-color="#333333"/>
<stop offset="1" stop-color="#999999"/>
</linearGradient>
<linearGradient id="paint8_linear_631_2" x1="111.77" y1="339.838" x2="317.82" y2="435.928" gradientUnits="userSpaceOnUse">
<stop stop-color="#D9BB93"/>
<stop offset="0.26" stop-color="#F0E5D5"/>
<stop offset="0.37" stop-color="#D9BB93"/>
<stop offset="0.53" stop-color="#493F2E"/>
<stop offset="0.68" stop-color="#D9BB93"/>
<stop offset="0.79" stop-color="#F0E5D5"/>
<stop offset="1" stop-color="#D9BB93"/>
</linearGradient>
<linearGradient id="paint9_linear_631_2" x1="218.13" y1="395.998" x2="213.54" y2="403.948" gradientUnits="userSpaceOnUse">
<stop stop-color="#333333"/>
<stop offset="1" stop-color="#999999"/>
</linearGradient>
<linearGradient id="paint10_linear_631_2" x1="199.86" y1="390.898" x2="239.8" y2="397.948" gradientUnits="userSpaceOnUse">
<stop stop-color="#BA8748"/>
<stop offset="1" stop-color="#CE9461"/>
</linearGradient>
<linearGradient id="paint11_linear_631_2" x1="295.12" y1="547.138" x2="295.12" y2="505.518" gradientUnits="userSpaceOnUse">
<stop offset="0.14" stop-color="#006CB7"/>
<stop offset="0.31" stop-color="#00467D"/>
<stop offset="0.58" stop-color="#0066B3"/>
<stop offset="0.73" stop-color="#0091D0"/>
<stop offset="0.8" stop-color="#92C5EB"/>
<stop offset="0.88" stop-color="#0091D0"/>
<stop offset="1" stop-color="#00599A"/>
</linearGradient>
<linearGradient id="paint12_linear_631_2" x1="295.28" y1="498.499" x2="295.28" y2="435.029" gradientUnits="userSpaceOnUse">
<stop offset="0.14" stop-color="#006CB7"/>
<stop offset="0.31" stop-color="#00467D"/>
<stop offset="0.49" stop-color="#0066B3"/>
<stop offset="0.65" stop-color="#0091D0"/>
<stop offset="0.75" stop-color="#92C5EB"/>
<stop offset="0.85" stop-color="#0091D0"/>
<stop offset="1" stop-color="#00599A"/>
</linearGradient>
<clipPath id="clip0_631_2">
<rect width="475.35" height="109.48" fill="white" transform="translate(1349 396)"/>
</clipPath>
</defs>
</svg>
