<svg width="1920" height="349" viewBox="0 0 1920 349" fill="none" xmlns="http://www.w3.org/2000/svg">
<path d="M1919.97 174.859C1910.52 174.697 1900.7 174.859 1890.44 175.317C1886.59 175.488 1882.71 175.722 1878.79 175.982C1871.46 174.329 1864 172.504 1856.48 170.589C1856.35 170.569 1856.22 170.542 1856.09 170.509C1853.94 169.951 1851.8 169.367 1849.65 168.792C1837.31 165.412 1829.99 162.644 1825.7 160.577C1858.46 152.604 1890.16 145.09 1920 139.05V101.857C1893.64 105.479 1867.63 110.712 1842.18 117.514C1811.47 125.657 1783.09 132.695 1756.43 138.816C1734.94 130.889 1712.71 122.029 1689.72 112.238C1758.2 75.0448 1823.15 43.3884 1877.28 29.0342C1892.03 25.1333 1906.29 21.7717 1920 18.8595V14.9497C1904.67 18.2454 1888.85 22.0414 1872.54 26.3377C1816.47 41.2222 1749.88 71.6563 1679.84 108.041C1579.18 64.3579 1498.89 14.698 1404.46 40.7099C1341.25 58.129 1283.79 98.7647 1232.49 119.806C1224.79 122.979 1217.12 125.945 1209.49 128.839C1087.12 83.341 951.197 11.7859 881.993 3.45379C810.179 -5.19286 753.063 15.3991 693.304 39.7392C639.873 7.55241 589.773 -9.15669 543.283 5.17052C591.696 -2.02005 635.103 12.9364 683.957 43.5682C665.777 51.0284 647.276 58.7043 627.969 65.9128C596.81 77.5076 567.457 87.6373 542.638 95.8526C517.411 86.8104 491.865 77.3309 466 67.4139L466.097 69.0497C489.852 79.2244 513.167 88.8238 536.224 97.9738C495.815 111.258 466 119.521 466 119.521V137.688C498.899 131.926 539.361 123.374 574.753 112.804C577.363 113.802 580.017 114.836 582.628 115.806L584.068 116.337L584.53 116.516L602.838 123.303H602.935C619.072 129.043 635.153 134.436 651.176 139.481C646.52 141.477 641.864 143.481 637.209 145.494C585.894 167.767 517.862 183.084 466 192.189V216.093C510.352 203.006 580.372 181.438 642.71 154.402C651.015 150.806 659.256 147.526 667.421 144.47C733.702 164.352 799.414 177.861 865.942 183.119C1007.28 294.618 1099.77 353.059 1197.81 348.781C1262.66 345.949 1330.54 314.05 1410.67 269.622C1435.65 272.815 1460.87 274.548 1486.14 274.808C1572.68 275.635 1661.57 259.339 1781.43 229.948C1830.51 217.921 1877.85 206.363 1919.97 198.723V174.859ZM1680.2 119.492C1697.79 127.024 1717.55 134.942 1738.87 142.789C1681.19 155.543 1632.51 163.678 1589.32 168.459C1619.1 151.543 1648.88 134.637 1678.11 118.602L1680.2 119.492ZM1232.07 123.339C1283.08 102.405 1336.45 80.5277 1398.76 63.3782C1486.53 39.2358 1571.88 73.2652 1667.93 114.251C1633.71 132.228 1598.77 151.499 1563.93 170.94C1482.63 177.798 1419.53 172.657 1346.39 165.448C1307.54 161.646 1261.51 148.065 1213.16 130.268L1232.07 123.339ZM859.624 29.1421C967.882 35.272 1061.77 98.8546 1173.35 141.665C1167.82 143.463 1162.28 145.261 1156.75 146.933L1148.56 149.35C1128.55 155.193 1108.8 160.073 1089.23 164.145C1010.04 127.815 936.81 89.9743 855.326 85.3813C829.111 83.8802 801.348 87.862 772.682 95.2683C754.729 81.4714 737.108 68.5015 719.831 56.8168C768.771 38.8763 816.207 26.6973 859.624 29.1421ZM661.587 135.05C643.25 129.657 624.803 123.935 606.244 117.883L593.48 113.64L596.757 114.728C592.341 113.254 587.893 111.69 583.455 110.234C601.812 104.549 619.75 97.9613 637.176 90.5046C661.383 80.0063 685.525 69.7418 709.431 60.6727C725.547 71.9529 742.319 84.6802 760.154 98.6838C728.072 107.861 694.937 120.957 661.587 135.05ZM679.487 140.173C713.003 128.621 748.303 121.089 784.339 117.802C797.705 128.489 811.651 139.751 826.328 151.544C836.406 159.639 846.255 167.504 855.874 175.138C797.19 168.99 738.795 156.685 679.487 140.173ZM834.676 144.326C823.019 134.969 811.49 125.711 800.08 116.669C893.167 111.591 982.011 135.5 1072.23 167.471C1005.41 179.766 940.624 182.193 876.363 177.043C862.897 166.737 849.002 155.831 834.676 144.326ZM886.098 184.422C951.129 187.94 1016.42 183.133 1079.72 170.167C1105.91 179.569 1132.24 189.582 1158.82 199.729C1247.87 233.669 1319.75 255.213 1386.76 266.152C1209.88 350.911 1101.91 347.235 886.098 184.422ZM1164.76 196.44C1140.8 187.299 1117.69 177.187 1095.06 166.859C1117.11 161.925 1139.4 156.029 1161.99 149L1177.57 143.283C1300.29 189.896 1394.41 210.929 1489.29 212.546C1463.33 226.856 1438.98 239.952 1415.83 251.726C1340.79 249.758 1262.38 233.66 1164.76 196.44ZM1799.1 186.049C1790.73 187.676 1782.22 189.546 1773.83 191.658C1640.23 224.366 1542.61 250.171 1442.26 251.879C1464.24 239.403 1487.15 226.218 1511.16 212.6C1597.64 211.387 1686.67 194.624 1800.3 166.761C1803.46 165.997 1806.62 165.233 1809.76 164.451C1814.86 167.04 1820.2 169.288 1825.72 171.174L1825.29 171.273C1827.16 171.821 1829.05 172.351 1830.94 172.891C1837.18 174.832 1841.69 175.884 1841.69 175.884C1844.81 176.728 1847.96 177.555 1851.11 178.373C1833.63 180.198 1816.27 182.76 1799.1 186.049Z" fill="url(#paint0_linear_636_12)"/>
<rect x="701" y="264.427" width="60" height="60" transform="rotate(-45 701 264.427)" fill="url(#paint1_linear_636_12)"/>
<path d="M3.42172 238.446C3.42172 233.204 3.42173 232.232 3.35482 231.136C3.28791 230.039 3.01073 229.385 1.91158 229.164C1.47267 229.09 1.02789 229.058 0.583032 229.068C0.210274 229.068 0 229 0 228.76C0 228.519 0.238948 228.442 0.755074 228.442C2.57107 228.442 4.7216 228.548 5.40977 228.548C7.0824 228.548 8.4205 228.442 9.58656 228.442C15.7801 228.442 16.8888 231.78 16.8888 233.608C16.8888 236.435 15.2639 238.128 13.3906 239.648C16.1911 240.61 19.6223 243.053 19.6223 247.093C19.6223 250.777 16.755 254.605 10.4754 254.605C10.0645 254.605 9.07043 254.528 8.07641 254.489C7.08239 254.451 6.02147 254.393 5.5149 254.393C5.00833 254.393 4.38707 254.393 3.60332 254.393C2.81957 254.393 1.93069 254.451 1.25208 254.451C0.80286 254.451 0.554359 254.355 0.554359 254.114C0.554359 253.874 0.697729 253.835 1.10872 253.835C1.52024 253.836 1.93061 253.791 2.33213 253.701C3.02985 253.566 3.19234 252.806 3.28792 251.777C3.46951 250.324 3.46951 247.602 3.46951 244.438L3.42172 238.446ZM7.53161 239.023C7.53161 239.292 7.62719 239.369 7.77056 239.398C8.30061 239.49 8.83883 239.525 9.37628 239.504C10.2509 239.608 11.1321 239.374 11.8422 238.85C12.3356 238.387 12.7184 237.818 12.9617 237.184C13.2051 236.551 13.3027 235.871 13.2472 235.195C13.2472 232.886 11.9091 229.856 8.96529 229.856C8.58766 229.838 8.20923 229.864 7.83746 229.933C7.59852 229.991 7.53161 230.135 7.53161 230.51V239.023ZM12.0429 241.783C11.1968 241.212 10.1938 240.923 9.17557 240.956C8.56386 240.956 8.21978 240.956 7.70365 240.956C7.56984 240.956 7.50294 241.023 7.50294 241.197V249.363C7.50294 251.633 7.59852 252.248 8.69767 252.671C9.49426 252.985 10.3475 253.126 11.2018 253.085C12.7407 253.085 15.3404 252.258 15.3404 248.67C15.3796 247.343 15.0973 246.026 14.5178 244.832C13.9384 243.639 13.0791 242.606 12.0143 241.822M24.5829 240.86C24.5829 236.407 24.5829 235.579 24.5829 234.656C24.5829 233.733 24.2292 233.338 23.2735 233.069C22.8929 232.992 22.5051 232.956 22.1169 232.963C21.7729 232.963 21.6008 232.857 21.6008 232.646C21.6008 232.444 21.8015 232.376 22.2508 232.376C23.8565 232.376 25.8828 232.444 26.7716 232.444C27.6605 232.444 29.5434 232.376 30.5948 232.376C31.044 232.376 31.2447 232.444 31.2447 232.646C31.2447 232.848 31.0727 232.963 30.7573 232.963C30.4613 232.967 30.1666 233.003 29.878 233.069C29.0846 233.204 28.8457 233.617 28.7884 234.656C28.731 235.695 28.7119 236.407 28.7119 240.86V244.948C28.7119 249.228 29.5339 250.873 31.0058 252.046C32.1673 252.87 33.5689 253.281 34.9885 253.213C36.4082 253.145 37.7647 252.602 38.8432 251.671C40.5159 250.084 40.5828 247.535 40.5828 244.544V240.86C40.5828 236.407 40.5828 235.579 40.5159 234.656C40.449 233.733 40.2196 233.338 39.2542 233.069C38.8957 232.995 38.5305 232.96 38.1646 232.963C37.8206 232.963 37.6485 232.857 37.6485 232.646C37.6485 232.444 37.8492 232.376 38.2602 232.376C39.799 232.376 41.8253 232.444 41.854 232.444C42.1981 232.444 44.2148 232.376 45.3808 232.376C45.7918 232.376 46.0021 232.444 46.0021 232.646C46.0021 232.848 45.8301 232.963 45.486 232.963C45.1868 232.967 44.889 233.003 44.5971 233.069C43.7751 233.204 43.5744 233.617 43.4979 234.656C43.4215 235.695 43.431 236.407 43.431 240.86V243.996C43.431 247.256 43.087 250.728 40.5637 252.806C38.7674 254.271 36.4984 255.021 34.1886 254.912C32.6115 254.912 29.4956 254.845 27.2973 252.912C25.7585 251.575 24.5638 249.391 24.5638 245.159L24.5829 240.86ZM50.198 240.86C50.198 236.407 50.198 235.579 50.198 234.656C50.198 233.733 49.8157 233.309 49.1753 233.098C48.8166 233.003 48.4469 232.958 48.0762 232.963C47.7703 232.963 47.5983 232.896 47.5983 232.617C47.5983 232.338 47.8372 232.376 48.3247 232.376C49.4525 232.376 51.4979 232.444 52.3581 232.444C53.2183 232.444 55.063 232.376 56.1813 232.376C56.554 232.376 56.8025 232.444 56.8025 232.617C56.8025 232.79 56.6305 232.963 56.3151 232.963C56.0159 232.967 55.718 233.003 55.4262 233.069C54.6042 233.204 54.3653 233.617 54.2983 234.656C54.2314 235.695 54.2219 236.407 54.2219 240.86V246.025C54.2219 248.843 54.2219 251.19 54.3653 252.431C54.4704 253.22 54.6807 253.672 55.5695 253.806C56.0763 253.876 56.5873 253.912 57.0988 253.912C57.4429 253.912 57.5863 254.085 57.5863 254.22C57.5863 254.355 57.3378 254.528 57.0032 254.528C55.0152 254.528 52.9602 254.432 52.1383 254.432C51.3163 254.432 49.4047 254.528 48.2004 254.528C47.8277 254.528 47.6174 254.432 47.6174 254.22C47.6174 254.008 47.7225 253.912 48.0953 253.912C48.455 253.919 48.8143 253.884 49.1658 253.806C49.7679 253.672 49.9495 253.258 50.0547 252.402C50.1885 251.19 50.1885 248.843 50.1885 246.025L50.198 240.86ZM67.1442 246.025C67.1442 249.776 67.1442 251.633 67.8036 252.19C68.3102 252.633 69.4763 252.806 71.8084 252.806C73.4141 252.806 74.5802 252.806 75.3257 251.979C75.7367 251.479 75.9985 250.872 76.0808 250.228C76.0808 249.949 76.1859 249.776 76.4249 249.776C76.6638 249.776 76.702 250.084 76.702 250.43C76.6427 251.566 76.4925 252.695 76.2528 253.806C76.0521 254.47 75.9183 254.595 74.3412 254.595C72.1812 254.595 70.4321 254.595 68.9219 254.499C67.4118 254.403 66.1884 254.393 64.9936 254.393C64.64 254.393 64.0378 254.393 63.2732 254.393C62.5086 254.393 61.8013 254.451 61.18 254.451C60.8073 254.451 60.6066 254.355 60.6066 254.143C60.6066 253.931 60.7117 253.835 61.0845 253.835C61.441 253.843 61.7973 253.807 62.1454 253.729C62.7571 253.595 62.9291 253.047 63.0343 252.181C63.1681 250.95 63.1681 248.632 63.1681 245.948V240.783C63.1681 236.33 63.1681 235.502 63.1681 234.579C63.1681 233.656 62.824 233.261 61.8682 232.992C61.5548 232.919 61.234 232.884 60.9124 232.886C60.5683 232.886 60.4058 232.78 60.4058 232.569C60.4058 232.357 60.597 232.299 61.0462 232.299C62.4512 232.299 64.3628 232.367 65.1943 232.367C66.0259 232.367 68.3771 232.299 69.5432 232.299C69.9828 232.299 70.1931 232.367 70.1931 232.569C70.1931 232.771 70.0211 232.886 69.6483 232.886C69.2573 232.887 68.8671 232.922 68.4822 232.992C67.6603 233.127 67.4213 233.54 67.3449 234.579C67.2684 235.618 67.278 236.33 67.278 240.783L67.1442 246.025ZM80.984 240.86C80.984 236.407 80.984 235.579 80.984 234.656C80.984 233.733 80.6399 233.338 79.6841 233.069C79.2876 232.991 78.8838 232.955 78.4798 232.963C78.174 232.963 77.9637 232.857 77.9637 232.646C77.9637 232.434 78.2122 232.376 78.6614 232.376C80.2289 232.376 82.15 232.444 83.0102 232.444C83.8705 232.444 86.0879 232.376 87.9039 232.376C91.6697 232.376 96.7354 232.376 100.023 235.714C100.97 236.702 101.711 237.871 102.203 239.15C102.696 240.43 102.929 241.796 102.891 243.168C102.91 244.681 102.629 246.182 102.064 247.585C101.499 248.987 100.663 250.262 99.6027 251.334C98.236 252.71 95.0532 254.778 89.5 254.778C88.4009 254.778 87.101 254.672 85.9158 254.595C84.7307 254.518 83.6124 254.432 82.8573 254.432C82.5228 254.432 81.9015 254.432 81.1464 254.432C80.3914 254.432 79.6745 254.489 79.0533 254.489C78.6901 254.489 78.4798 254.393 78.4798 254.181C78.4798 253.97 78.5849 253.874 78.9577 253.874C79.3142 253.88 79.6703 253.845 80.0186 253.768C80.6303 253.633 80.8119 253.085 80.9075 252.219C81.0509 250.988 81.0509 248.67 81.0509 245.987L80.984 240.86ZM85.027 244.092C85.027 247.189 85.027 249.43 85.0843 250.017C85.0645 250.722 85.1814 251.424 85.4284 252.085C85.8107 252.633 87.0054 253.258 89.3662 253.258C92.1093 253.258 94.1452 252.777 95.9421 251.257C97.8536 249.642 98.5131 247.025 98.5131 243.996C98.5131 240.264 97.0412 237.849 95.7031 236.686C93.3461 234.721 90.3385 233.724 87.2826 233.896C86.6581 233.874 86.0337 233.942 85.4284 234.098C85.3051 234.132 85.1987 234.211 85.1298 234.319C85.061 234.428 85.0345 234.558 85.0556 234.685C85.0556 235.647 85.0556 238.099 85.0556 240.408L85.027 244.092ZM108.061 240.86C108.061 236.407 108.061 235.579 108.061 234.656C108.061 233.733 107.679 233.309 107.029 233.098C106.674 233.004 106.307 232.959 105.94 232.963C105.624 232.963 105.452 232.896 105.452 232.617C105.452 232.338 105.691 232.376 106.179 232.376C107.306 232.376 109.361 232.444 110.212 232.444C111.063 232.444 112.917 232.376 114.083 232.376C114.456 232.376 114.695 232.444 114.695 232.617C114.695 232.79 114.532 232.963 114.217 232.963C113.918 232.968 113.62 233.003 113.328 233.069C112.515 233.204 112.267 233.617 112.2 234.656C112.133 235.695 112.133 236.407 112.133 240.86V246.025C112.133 248.843 112.133 251.19 112.267 252.431C112.372 253.22 112.573 253.672 113.471 253.806C113.981 253.876 114.495 253.912 115.01 253.912C115.354 253.912 115.488 254.085 115.488 254.22C115.488 254.355 115.249 254.528 114.905 254.528C112.917 254.528 110.862 254.432 110.04 254.432C109.361 254.432 107.306 254.528 106.102 254.528C105.739 254.528 105.529 254.432 105.529 254.22C105.529 254.008 105.624 253.912 106.007 253.912C106.363 253.919 106.719 253.883 107.067 253.806C107.679 253.672 107.861 253.258 107.956 252.402C108.09 251.19 108.09 248.843 108.09 246.025L108.061 240.86ZM122.886 250.546C122.943 252.816 123.325 253.508 123.908 253.71C124.42 253.863 124.952 253.934 125.485 253.922C125.83 253.922 126.002 254.056 126.002 254.23C126.002 254.403 125.724 254.537 125.313 254.537C123.402 254.537 121.968 254.441 121.414 254.441C121.137 254.441 119.703 254.537 118.155 254.537C117.744 254.537 117.476 254.537 117.476 254.23C117.476 253.922 117.677 253.922 117.944 253.922C118.406 253.925 118.868 253.88 119.321 253.787C120.114 253.576 120.219 252.825 120.276 250.238L120.554 232.867C120.554 232.28 120.754 231.905 121.06 231.905C121.366 231.905 121.844 232.348 122.36 232.867C122.876 233.386 127.263 237.888 131.65 242.197C133.696 244.236 137.7 248.372 138.15 248.785H138.283L137.978 235.752C137.978 233.963 137.672 233.444 136.945 233.175C136.435 233.033 135.906 232.975 135.378 233.002C135.005 233.002 134.9 232.867 134.9 232.684C134.9 232.501 135.206 232.415 135.655 232.415C137.223 232.415 138.838 232.482 139.478 232.482C139.813 232.482 140.941 232.415 142.422 232.415C142.833 232.415 143.11 232.415 143.11 232.684C143.11 232.954 142.929 233.002 142.594 233.002C142.272 232.984 141.949 233.02 141.638 233.107C140.816 233.348 140.577 233.867 140.539 235.512L140.195 253.989C140.195 254.634 139.956 254.951 139.727 254.951C139.248 254.918 138.802 254.697 138.484 254.335C136.573 252.575 132.845 248.959 129.691 245.89C126.537 242.822 123.22 239.157 122.637 238.657H122.532L122.886 250.546ZM166.852 252.575C166.852 253.374 166.852 253.402 166.479 253.614C164.138 254.556 161.63 255.001 159.11 254.922C151.722 254.922 145.175 251.546 145.175 243.447C145.124 241.518 145.585 239.609 146.511 237.919C147.436 236.228 148.793 234.816 150.441 233.829C152.915 232.431 155.731 231.765 158.565 231.905C160.356 231.927 162.142 232.088 163.908 232.386C164.529 232.492 165.581 232.665 166.307 232.703C166.651 232.703 166.709 232.838 166.709 233.04C166.556 234.638 166.492 236.244 166.517 237.849C166.517 238.301 166.345 238.503 166.097 238.503C165.848 238.503 165.829 238.369 165.791 238.119C165.731 237.222 165.366 236.373 164.759 235.714C162.946 234.151 160.605 233.349 158.221 233.473C156.136 233.305 154.063 233.918 152.4 235.195C150.728 236.58 149.629 238.744 149.629 242.322C149.629 248.632 153.672 253.22 160.142 253.22C160.864 253.275 161.588 253.169 162.264 252.912C162.463 252.83 162.629 252.683 162.735 252.494C162.841 252.306 162.88 252.087 162.847 251.873V249.18C162.847 247.737 162.847 246.631 162.847 245.736C162.847 244.842 162.503 244.428 161.547 244.159C161.164 244.078 160.773 244.042 160.381 244.053C160.104 244.053 159.903 243.919 159.903 243.736C159.903 243.553 160.142 243.467 160.553 243.467C162.13 243.467 164.281 243.534 165.17 243.534C166.059 243.534 167.712 243.467 168.697 243.467C169.117 243.467 169.318 243.466 169.318 243.736C169.308 243.829 169.263 243.914 169.191 243.973C169.12 244.033 169.028 244.061 168.936 244.053C168.659 244.057 168.383 244.092 168.114 244.159C167.292 244.294 166.986 244.707 166.957 245.736C166.928 246.766 166.957 247.804 166.957 249.257L166.852 252.575ZM189.791 230.453L184.687 230.587C182.699 230.655 181.877 230.828 181.361 231.549C181.1 231.917 180.903 232.327 180.778 232.761C180.711 233.03 180.606 233.165 180.405 233.165C180.204 233.165 180.09 233.002 180.09 232.617C180.09 232.069 180.749 228.933 180.816 228.654C180.921 228.212 181.017 228 181.218 228C181.697 228.184 182.193 228.323 182.699 228.414C183.655 228.519 184.993 228.587 186.121 228.587H199.683C200.473 228.586 201.262 228.528 202.044 228.414C202.359 228.336 202.678 228.279 203 228.24C203.229 228.24 203.268 228.452 203.268 228.962C203.268 229.683 203.162 232.069 203.162 232.963C203.162 233.309 203.067 233.521 202.866 233.521C202.665 233.521 202.512 233.338 202.484 232.828V232.444C202.417 231.549 201.528 230.587 198.45 230.52L194.025 230.347V244.476C194.025 247.641 194.025 250.363 194.197 251.844C194.302 252.806 194.503 253.575 195.535 253.71C196.112 253.79 196.693 253.835 197.275 253.845C197.657 253.845 197.829 253.951 197.829 254.124C197.829 254.297 197.552 254.46 197.179 254.46C194.924 254.46 192.763 254.364 191.808 254.364C191.014 254.364 188.854 254.46 187.487 254.46C187.038 254.46 186.809 254.364 186.809 254.124C186.809 253.883 186.933 253.845 187.354 253.845C187.768 253.845 188.182 253.8 188.587 253.71C189.275 253.575 189.476 252.816 189.542 251.786C189.714 250.334 189.714 247.612 189.714 244.448L189.791 230.453ZM223.444 241.995C223.511 241.995 223.616 241.995 223.616 241.793V241.168C223.616 236.734 223.616 235.656 223.54 234.733C223.463 233.81 223.205 233.415 222.25 233.146C221.866 233.07 221.475 233.034 221.083 233.04C220.739 233.04 220.567 232.934 220.567 232.723C220.567 232.521 220.778 232.453 221.217 232.453C222.823 232.453 224.954 232.521 225.738 232.521C226.522 232.521 228.443 232.453 229.609 232.453C230.049 232.453 230.259 232.521 230.259 232.723C230.259 232.925 230.049 233.04 229.714 233.04C229.415 233.049 229.118 233.084 228.825 233.146C228.032 233.281 227.784 233.694 227.717 234.733C227.65 235.772 227.65 236.483 227.65 240.937V246.102C227.65 248.786 227.65 251.104 227.784 252.373C227.898 253.2 228.061 253.749 228.988 253.883C229.498 253.954 230.012 253.99 230.527 253.989C230.842 253.989 231.005 254.162 231.005 254.297C231.005 254.432 230.775 254.605 230.393 254.605C228.481 254.605 226.455 254.508 225.614 254.508C224.935 254.508 222.804 254.605 221.638 254.605C221.236 254.605 220.997 254.509 220.997 254.297C220.997 254.085 221.131 253.989 221.475 253.989C221.845 253.998 222.214 253.962 222.574 253.883C223.186 253.749 223.358 253.2 223.454 252.335C223.597 251.104 223.597 248.862 223.597 246.169V243.813C223.595 243.768 223.576 243.725 223.544 243.693C223.512 243.661 223.47 243.642 223.425 243.64H212.032C211.927 243.64 211.822 243.64 211.822 243.813V246.054C211.822 248.747 211.822 250.988 211.984 252.258C212.099 253.085 212.271 253.633 213.16 253.768C213.67 253.838 214.184 253.873 214.699 253.874C215.043 253.874 215.177 254.047 215.177 254.181C215.177 254.316 214.938 254.489 214.565 254.489C212.653 254.489 210.522 254.393 209.662 254.393C208.983 254.393 206.995 254.489 205.839 254.489C205.456 254.489 205.246 254.393 205.246 254.181C205.246 253.97 205.351 253.874 205.733 253.874C206.09 253.88 206.446 253.845 206.794 253.768C207.406 253.633 207.578 253.085 207.683 252.219C207.817 250.988 207.817 248.67 207.817 245.987V240.821C207.817 236.368 207.817 235.541 207.817 234.618C207.817 233.694 207.473 233.3 206.517 233.03C206.121 232.952 205.717 232.917 205.313 232.925C205.007 232.925 204.806 232.819 204.806 232.607C204.806 232.396 205.036 232.338 205.447 232.338C207.062 232.338 209.05 232.405 209.872 232.405C210.694 232.405 212.682 232.338 213.877 232.338C214.288 232.338 214.489 232.405 214.489 232.607C214.489 232.809 214.316 232.925 213.944 232.925C213.657 232.932 213.373 232.967 213.093 233.03C212.262 233.165 212.023 233.579 211.956 234.618C211.889 235.656 211.889 236.618 211.889 241.052V241.677C211.889 241.851 211.994 241.879 212.099 241.879L223.444 241.995ZM236.491 240.937C236.491 236.483 236.491 235.656 236.491 234.733C236.491 233.81 236.147 233.415 235.191 233.146C234.798 233.068 234.397 233.032 233.996 233.04C233.681 233.04 233.48 232.934 233.48 232.723C233.48 232.511 233.719 232.453 234.159 232.453C235.736 232.453 237.657 232.521 238.517 232.521C239.377 232.521 246.163 232.521 246.727 232.521C247.154 232.489 247.579 232.431 247.998 232.348C248.155 232.294 248.315 232.249 248.476 232.213C248.648 232.213 248.687 232.348 248.687 232.492C248.558 233.126 248.478 233.769 248.448 234.416C248.4 234.733 248.343 236.003 248.266 236.339C248.266 236.483 248.171 236.82 247.922 236.82C247.674 236.82 247.693 236.686 247.693 236.445C247.693 236.079 247.622 235.716 247.482 235.377C247.243 234.858 247.004 234.416 245.494 234.31C244.988 234.242 241.384 234.175 240.773 234.175C240.639 234.175 240.572 234.271 240.572 234.444V241.677C240.572 241.86 240.572 241.995 240.773 241.995C241.461 241.995 245.361 241.995 246.039 241.928C246.718 241.86 247.215 241.793 247.482 241.475C247.75 241.158 247.826 241.1 247.97 241.1C248.113 241.1 248.199 241.235 248.199 241.408C248.199 241.581 248.132 242.062 247.97 243.543C247.893 244.13 247.826 245.304 247.826 245.467C247.826 245.631 247.826 246.121 247.521 246.121C247.215 246.121 247.243 246.015 247.243 245.881C247.228 245.523 247.193 245.167 247.138 244.813C246.976 244.226 246.593 243.774 245.466 243.678C244.911 243.611 241.49 243.543 240.744 243.543C240.601 243.543 240.572 243.678 240.572 243.851V246.188C240.572 247.15 240.572 249.67 240.572 250.536C240.639 252.537 241.528 252.979 244.644 252.979C245.614 253.029 246.586 252.902 247.511 252.604C248.266 252.258 248.61 251.642 248.811 250.43C248.878 250.122 248.945 249.988 249.155 249.988C249.365 249.988 249.432 250.363 249.432 250.671C249.38 251.76 249.242 252.844 249.021 253.912C248.811 254.662 248.543 254.662 247.415 254.662C245.15 254.662 243.334 254.662 241.872 254.566C240.41 254.47 239.263 254.499 238.374 254.499C238.03 254.499 237.418 254.499 236.653 254.499C235.889 254.499 235.191 254.557 234.57 254.557C234.187 254.557 233.987 254.46 233.987 254.249C233.987 254.037 234.092 253.941 234.465 253.941C234.821 253.949 235.177 253.913 235.525 253.835C236.147 253.701 236.309 253.152 236.414 252.287C236.558 251.055 236.558 248.737 236.558 246.054L236.491 240.937ZM269.427 244.621C269.427 247.929 269.427 250.507 269.599 251.96C269.704 252.921 269.905 253.72 270.928 253.883C271.498 253.962 272.073 254.007 272.648 254.018C273.088 254.018 273.222 254.124 273.222 254.297C273.222 254.47 272.983 254.634 272.476 254.634C270.316 254.634 268.166 254.537 267.267 254.537C266.369 254.537 264.228 254.634 262.918 254.634C262.44 254.634 262.201 254.576 262.201 254.297C262.201 254.018 262.335 254.018 262.718 254.018C263.132 254.018 263.546 253.973 263.951 253.883C264.639 253.749 264.801 252.989 264.906 251.96C265.069 250.507 265.069 247.929 265.069 244.621V238.561C265.069 233.319 265.069 232.348 265.011 231.251C264.954 230.155 264.667 229.529 263.54 229.279C263.094 229.206 262.643 229.174 262.192 229.183C261.857 229.183 261.618 229.116 261.618 228.904C261.618 228.693 261.886 228.558 262.402 228.558C263.291 228.558 264.314 228.558 265.174 228.558C266.034 228.558 266.856 228.625 267.334 228.625C268.634 228.625 275.583 228.625 276.376 228.625C276.848 228.634 277.319 228.589 277.781 228.491C277.952 228.398 278.136 228.33 278.326 228.289C278.398 228.298 278.463 228.336 278.508 228.393C278.552 228.451 278.573 228.524 278.565 228.596C278.565 228.837 278.393 229.241 278.287 230.145C278.287 230.491 278.192 232.521 278.115 232.934C278.039 233.348 278.02 233.415 277.781 233.415C277.542 233.415 277.475 233.242 277.427 232.867C277.444 232.42 277.379 231.973 277.236 231.549C276.979 231.196 276.635 230.916 276.238 230.737C275.841 230.558 275.404 230.487 274.971 230.53L269.704 230.424C269.494 230.424 269.389 230.53 269.389 230.905V239.513C269.389 239.725 269.389 239.831 269.628 239.831H274.005C274.598 239.831 275.076 239.831 275.554 239.831C275.83 239.848 276.107 239.8 276.363 239.692C276.618 239.583 276.845 239.417 277.026 239.206C277.188 239.004 277.265 238.859 277.475 238.859C277.685 238.859 277.676 238.965 277.676 239.167C277.676 239.369 277.504 240.244 277.399 241.312C277.332 241.995 277.265 243.582 277.265 243.822C277.265 244.063 277.265 244.476 276.921 244.476C276.577 244.476 276.643 244.236 276.643 243.996C276.627 243.631 276.556 243.271 276.433 242.928C276.29 242.578 276.052 242.276 275.746 242.057C275.44 241.837 275.078 241.709 274.703 241.687C273.843 241.591 270.211 241.591 269.628 241.591C269.456 241.591 269.389 241.649 269.389 241.899L269.427 244.621ZM283.401 240.937C283.401 236.483 283.401 235.656 283.401 234.733C283.401 233.81 283.057 233.415 282.101 233.146C281.717 233.069 281.326 233.034 280.935 233.04C280.591 233.04 280.419 232.934 280.419 232.723C280.419 232.521 280.629 232.453 281.069 232.453C282.684 232.453 284.701 232.521 285.59 232.521C286.479 232.521 288.361 232.453 289.461 232.453C289.91 232.453 290.111 232.521 290.111 232.723C290.111 232.925 289.938 233.04 289.633 233.04C289.333 233.044 289.036 233.079 288.744 233.146C287.96 233.281 287.711 233.694 287.645 234.733C287.578 235.772 287.578 236.483 287.578 240.937V245.025C287.578 249.305 288.4 250.95 289.872 252.123C291.035 252.948 292.438 253.359 293.859 253.291C295.28 253.223 296.639 252.68 297.719 251.748C299.391 250.161 299.458 247.612 299.458 244.621V240.937C299.458 236.483 299.458 235.656 299.391 234.733C299.324 233.81 299.085 233.415 298.13 233.146C297.768 233.073 297.399 233.037 297.03 233.04C296.686 233.04 296.514 232.934 296.514 232.723C296.514 232.521 296.725 232.453 297.136 232.453C298.674 232.453 300.691 232.521 300.72 232.521C301.073 232.521 303.081 232.453 304.256 232.453C304.658 232.453 304.868 232.521 304.868 232.723C304.868 232.925 304.705 233.04 304.352 233.04C304.053 233.045 303.755 233.08 303.463 233.146C302.65 233.281 302.44 233.694 302.373 234.733C302.306 235.772 302.306 236.483 302.306 240.937V244.072C302.306 247.333 301.953 250.805 299.439 252.883C297.647 254.349 295.381 255.099 293.073 254.989C291.496 254.989 288.381 254.922 286.192 252.989C284.653 251.652 283.458 249.468 283.458 245.236L283.401 240.937ZM313.699 234.204L309.217 234.31C307.468 234.31 306.751 234.55 306.302 235.204C306.083 235.496 305.912 235.82 305.795 236.166C305.719 236.407 305.652 236.541 305.451 236.541C305.25 236.541 305.174 236.378 305.174 236.07C305.174 235.579 305.757 232.761 305.824 232.511C305.891 232.261 305.996 231.963 306.168 231.963C306.34 231.963 306.713 232.203 307.468 232.309C308.468 232.409 309.473 232.454 310.478 232.444H322.712C323.4 232.45 324.087 232.405 324.767 232.309C325.245 232.242 325.475 232.165 325.58 232.165C325.685 232.165 325.819 232.338 325.819 232.79C325.819 233.406 325.752 235.579 325.752 236.339C325.752 236.657 325.647 236.82 325.475 236.82C325.303 236.82 325.169 236.685 325.131 236.233V235.926C325.064 235.166 324.27 234.271 321.566 234.242L317.742 234.165V246.025C317.742 248.709 317.742 251.027 317.914 252.296C318.02 253.123 318.201 253.672 319.09 253.806C319.597 253.876 320.108 253.912 320.619 253.912C320.973 253.912 321.107 254.085 321.107 254.22C321.107 254.355 320.868 254.528 320.524 254.528C318.536 254.528 316.519 254.432 315.659 254.432C314.971 254.432 312.925 254.528 311.73 254.528C311.348 254.528 311.138 254.432 311.138 254.22C311.138 254.008 311.243 253.912 311.616 253.912C311.972 253.922 312.329 253.886 312.677 253.806C313.298 253.672 313.47 253.123 313.575 252.258C313.709 251.027 313.709 248.709 313.709 246.025L313.699 234.204ZM328.992 240.937C328.992 236.483 328.992 235.656 328.992 234.733C328.992 233.81 328.657 233.415 327.692 233.146C327.312 233.069 326.924 233.034 326.536 233.04C326.192 233.04 326.01 232.934 326.01 232.723C326.01 232.511 326.22 232.453 326.669 232.453C328.275 232.453 330.301 232.521 331.181 232.521C332.06 232.521 333.953 232.453 335.061 232.453C335.491 232.453 335.702 232.521 335.702 232.723C335.702 232.925 335.539 233.04 335.224 233.04C334.925 233.044 334.627 233.08 334.335 233.146C333.551 233.281 333.312 233.694 333.245 234.733C333.178 235.772 333.178 236.483 333.178 240.937V245.025C333.178 249.305 334 250.95 335.472 252.123C336.634 252.947 338.035 253.358 339.455 253.29C340.875 253.222 342.231 252.679 343.31 251.748C344.982 250.161 345.059 247.612 345.059 244.621V240.937C345.059 236.483 345.059 235.656 344.982 234.733C344.906 233.81 344.676 233.415 343.721 233.146C343.356 233.072 342.984 233.036 342.612 233.04C342.277 233.04 342.115 232.934 342.115 232.723C342.115 232.511 342.316 232.453 342.727 232.453C344.265 232.453 346.282 232.521 346.32 232.521C346.665 232.521 348.681 232.453 349.857 232.453C350.258 232.453 350.459 232.521 350.459 232.723C350.459 232.925 350.297 233.04 349.952 233.04C349.65 233.044 349.349 233.08 349.054 233.146C348.242 233.281 348.031 233.694 347.974 234.733C347.917 235.772 347.897 236.483 347.897 240.937V244.072C347.897 247.333 347.553 250.805 345.03 252.883C343.237 254.348 340.971 255.098 338.665 254.989C337.088 254.989 333.962 254.922 331.783 252.989C330.235 251.652 329.04 249.468 329.04 245.236L328.992 240.937ZM354.607 240.937C354.607 236.483 354.607 235.656 354.607 234.733C354.607 233.81 354.263 233.415 353.307 233.146C352.914 233.068 352.513 233.032 352.113 233.04C351.797 233.04 351.596 232.934 351.596 232.723C351.596 232.511 351.835 232.453 352.275 232.453C353.852 232.453 355.773 232.521 356.394 232.521C357.417 232.521 360.151 232.453 361.087 232.453C362.999 232.453 365.188 232.626 366.822 233.694C367.462 234.154 367.987 234.758 368.355 235.458C368.723 236.157 368.925 236.933 368.944 237.724C368.944 239.898 367.721 241.831 364.767 244.207C367.443 247.516 369.546 250.161 371.381 251.988C372.205 252.981 373.342 253.66 374.602 253.912C374.837 253.965 375.078 253.987 375.319 253.979C375.409 253.971 375.498 253.999 375.568 254.057C375.638 254.114 375.682 254.197 375.692 254.287C375.692 254.537 375.482 254.595 375.109 254.595H372.241C371.111 254.691 369.976 254.492 368.944 254.018C367.644 253.364 366.526 251.979 364.834 249.709C363.639 248.131 362.378 246.16 361.967 245.717C361.899 245.642 361.814 245.583 361.719 245.546C361.625 245.51 361.523 245.496 361.422 245.506L358.707 245.438C358.677 245.435 358.645 245.439 358.616 245.45C358.587 245.46 358.561 245.477 358.539 245.499C358.517 245.521 358.5 245.548 358.49 245.577C358.479 245.607 358.475 245.638 358.478 245.669V246.092C358.478 248.814 358.478 251.094 358.65 252.325C358.755 253.191 358.889 253.739 359.816 253.874C360.304 253.94 360.796 253.976 361.288 253.979C361.378 253.971 361.467 253.999 361.537 254.057C361.607 254.114 361.651 254.197 361.661 254.287C361.661 254.499 361.422 254.595 361.04 254.595C359.3 254.595 356.796 254.499 356.356 254.499C355.773 254.499 353.852 254.595 352.657 254.595C352.275 254.595 352.074 254.499 352.074 254.287C352.074 254.076 352.17 253.979 352.552 253.979C352.909 253.987 353.265 253.952 353.613 253.874C354.234 253.739 354.397 253.191 354.512 252.325C354.645 251.094 354.645 248.776 354.645 246.092L354.607 240.937ZM358.43 243.207C358.43 243.515 358.497 243.62 358.707 243.717C359.452 243.92 360.221 244.014 360.992 243.996C361.737 244.104 362.495 243.933 363.123 243.515C363.779 243.009 364.297 242.346 364.631 241.587C364.965 240.827 365.104 239.995 365.035 239.167C365.035 235.041 362.225 233.973 360.447 233.973C359.853 233.958 359.258 233.99 358.669 234.069C358.58 234.09 358.501 234.144 358.45 234.221C358.398 234.298 358.378 234.391 358.392 234.483L358.43 243.207ZM377.059 240.937C377.059 236.483 377.059 235.656 377.059 234.733C377.059 233.81 376.715 233.415 375.759 233.146C375.365 233.068 374.965 233.032 374.564 233.04C374.249 233.04 374.048 232.934 374.048 232.723C374.048 232.511 374.287 232.453 374.736 232.453C376.304 232.453 378.225 232.521 379.075 232.521C379.926 232.521 386.722 232.521 387.295 232.521C387.722 232.489 388.146 232.431 388.566 232.348C388.72 232.294 388.876 232.249 389.035 232.213C389.216 232.213 389.245 232.348 389.245 232.492C389.123 233.127 389.046 233.77 389.016 234.416C389.016 234.733 388.901 236.003 388.834 236.339C388.834 236.483 388.738 236.82 388.49 236.82C388.241 236.82 388.251 236.686 388.251 236.445C388.256 236.079 388.187 235.716 388.05 235.377C387.811 234.858 387.572 234.416 386.062 234.31C385.546 234.242 381.962 234.175 381.341 234.175C381.197 234.175 381.13 234.271 381.13 234.444V241.677C381.13 241.86 381.13 241.995 381.341 241.995C382.029 241.995 385.928 241.995 386.616 241.928C387.305 241.86 387.773 241.793 388.05 241.475C388.327 241.158 388.394 241.1 388.528 241.1C388.662 241.1 388.767 241.235 388.767 241.408C388.767 241.581 388.7 242.062 388.528 243.543C388.461 244.13 388.394 245.304 388.394 245.467C388.394 245.631 388.394 246.121 388.088 246.121C387.783 246.121 387.811 246.015 387.811 245.881C387.811 245.573 387.811 245.198 387.706 244.813C387.544 244.226 387.161 243.774 386.033 243.678C385.489 243.611 382.057 243.543 381.302 243.543C381.178 243.543 381.13 243.678 381.13 243.851V246.188C381.13 247.15 381.13 249.67 381.13 250.536C381.197 252.537 382.086 252.979 385.211 252.979C386.182 253.028 387.153 252.901 388.079 252.604C388.834 252.258 389.178 251.642 389.379 250.43C389.455 250.122 389.513 249.988 389.723 249.988C389.933 249.988 390 250.363 390 250.671C389.947 251.76 389.81 252.844 389.589 253.912C389.379 254.662 389.111 254.662 387.974 254.662C385.718 254.662 383.902 254.662 382.43 254.566C380.958 254.47 379.83 254.499 378.942 254.499C378.597 254.499 377.986 254.499 377.221 254.499C376.456 254.499 375.759 254.557 375.137 254.557C374.765 254.557 374.554 254.46 374.554 254.249C374.554 254.037 374.65 253.941 375.032 253.941C375.389 253.948 375.745 253.912 376.093 253.835C376.705 253.701 376.887 253.152 376.982 252.287C377.126 251.055 377.126 248.737 377.126 246.054L377.059 240.937Z" fill="#00A7E1"/>
<path d="M299.883 193.855C297.542 192.9 295.525 191.505 292.734 190.941C291.156 192.944 290.046 195.275 289.485 197.762C292.075 198.621 294.025 200.14 296.634 201C298.306 199.424 298.44 196.319 300.533 195.154C303.133 195.918 304.863 197.552 307.051 198.727C308.475 196.463 310.253 194.571 310.96 191.591C308.485 190.483 306.44 188.935 303.783 188.018C302.053 189.499 301.575 192.288 299.883 193.855ZM81.9749 186.06C84.0202 187.703 86.6867 188.735 89.143 189.967C90.604 187.893 91.7027 185.587 92.3925 183.147C90.5575 181.179 87.8814 180.061 84.8995 179.24C83.4061 181.254 82.4047 183.59 81.9749 186.06ZM341.85 184.15C343.941 185.467 346.111 186.654 348.349 187.703C350.06 185.691 351.388 183.382 352.267 180.892C349.849 179.717 347.881 178.151 345.099 177.329C343.298 179.185 342.156 181.582 341.85 184.15ZM339.566 134.133C336.24 134.276 336.45 142.033 335.341 144.841C333.028 142.501 332.742 138.155 328.498 137.696C328.231 139.043 327.657 140.122 327.848 141.909C332.111 143.189 334.137 146.685 335.657 150.697C337.683 147.296 336.526 140.734 338.916 137.696C339.221 137.664 339.529 137.725 339.8 137.87C340.071 138.014 340.292 138.237 340.435 138.508C340.569 138.765 340.773 138.977 341.023 139.121C341.274 139.265 341.561 139.334 341.85 139.32C342.681 136.454 341.41 134.133 339.652 134.133H339.566ZM374.374 134.133C376.61 135.365 378.197 137.238 380.548 138.355C382.379 136.476 383.627 134.107 384.141 131.535C382.086 129.796 380.185 127.895 377.298 126.978C376.342 129.357 374.431 130.799 374.374 134.133ZM149.966 129.596C147.261 128.717 145.618 126.73 142.483 126.348C141.339 128.614 140.464 131.005 139.874 133.474C142.378 134.668 144.413 136.34 147.367 137.047C148.953 135.719 149.116 132.949 150.607 131.535C153.598 132.022 155.041 134.038 157.765 134.792C158.721 132.5 160.193 130.723 160.365 127.637C158.597 125.622 155.586 124.877 152.9 123.73C151.734 125.507 151.218 127.914 149.966 129.596ZM276.774 127.322C279.077 128.898 281.763 130.188 284.267 131.535C285.721 129.375 286.716 126.94 287.191 124.38C285.098 122.47 282.202 121.352 279.383 120.167C278.146 122.402 277.266 124.816 276.774 127.322ZM186.064 131.22C183.818 127.504 182.022 123.329 177.291 122.107C174.424 125.412 177.816 128.927 180.54 127.972C183.293 129.987 184.363 133.627 186.399 136.397C189.085 133.464 186.619 125.364 189.658 122.756C190.024 122.765 190.381 122.864 190.7 123.044C191.018 123.224 191.287 123.479 191.483 123.788C192.038 124.437 192.487 125.087 193.232 124.743C192.802 120.922 191.885 119.403 190.853 119.403C188.473 119.403 185.453 127.045 186.074 131.258M112.243 121.409C109.701 120.454 107.464 119.231 105.094 118.161C104.139 120.588 102.542 122.326 102.485 125.631C104.826 126.698 107.107 127.89 109.319 129.204C110.561 127.418 110.991 124.819 112.568 123.348C114.936 124.358 117.221 125.553 119.402 126.921C120.549 124.504 121.992 122.384 122.651 119.451C119.985 118.429 117.92 116.824 115.168 115.878C114.097 117.655 113.495 119.862 112.243 121.409ZM324.618 122.364C316.456 125.135 304.108 127.36 303.133 135.996C303.917 137.83 305.675 138.67 307.376 139.578C307.873 138.441 309.001 137.973 309.001 136.321C307.94 135.241 305.666 135.365 305.417 133.397C310.721 128.889 318.186 127.284 325.258 124.972C342.901 119.145 362.331 114.14 380.882 109.364C383.835 108.609 389.933 108.848 390 104.167C369.079 109.211 345.291 115.343 324.618 122.317M302.158 110.949C303.783 110.128 304.815 106.527 303.467 104.788C302.837 105.657 303.467 107.778 301.852 107.654C297.743 104.893 303.095 97.5186 300.896 93.6785C299.406 98.3114 296.185 108.962 302.196 110.873M279.756 92.3698C276.821 94.6242 277.414 100.384 276.506 104.712C274.212 101.34 273.094 96.8595 268.363 95.9233C266.452 98.961 268.315 103.326 271.632 101.454C273.543 104.014 275.063 106.909 276.821 109.564C279.306 106.431 276.821 98.2732 280.08 95.9233C281.925 95.7036 281.868 97.3849 283.34 97.5568C283.715 97.0597 283.942 96.4661 283.993 95.8453C284.044 95.2244 283.917 94.6019 283.627 94.0502C283.338 93.4986 282.897 93.0405 282.357 92.7295C281.817 92.4184 281.2 92.2672 280.577 92.2934C280.302 92.2917 280.026 92.3173 279.756 92.3698ZM137.35 99.1807C137.245 100.184 135.707 101.406 136.701 102.429C136.777 102.161 136.968 102.046 137.35 102.094C148.552 98.044 162.419 94.7484 174.108 91.0516C177.931 89.8575 183.589 90.0295 184.851 85.5303C168.922 90.0199 153.088 94.5701 137.35 99.1807ZM246.008 93.0003C247.796 96.8213 247.843 102.419 248.608 108.284C250.988 126.434 256.904 148.347 254.142 165.455C257.343 162.666 258.672 157.097 258.691 152.139C258.758 135.155 253.817 115.592 251.858 100.155C253.501 100.327 254.677 103.833 256.082 102.113C253.501 96.3818 251.255 90.2683 248.273 84.9189C248.273 87.2402 245.014 90.8797 246.008 93.0194M105.161 92.3889C100.688 93.5448 95.4891 94.5573 90.1847 96.2768C84.8804 97.9962 75.6384 99.4386 75.151 104.215H76.1067C84.8708 100.671 95.4795 97.7574 105.735 95.1305C113.562 93.1245 120.95 90.8701 128.185 88.6253C130.249 87.9948 134.11 88.0521 134.044 84.7279C125.49 86.4569 116.018 89.6856 105.104 92.5418M235.189 154.241C238.267 152.961 244.422 154.069 244.623 157.823C243.878 158.185 243.061 158.374 242.233 158.377C239.28 158.377 236.633 156.018 235.189 154.241ZM113.199 151.643C113.199 148.605 117.653 144.956 119.392 145.147C122.011 145.462 122.47 149.704 122.642 153.257C120.663 154.527 118.742 155.874 116.792 157.154C115.761 156.633 114.886 155.849 114.255 154.881C113.624 153.913 113.26 152.796 113.199 151.643ZM61.4934 113.968C61.9617 125.087 62.9748 135.575 62.7837 145.491C62.6021 154.356 58.7027 157.336 52.7006 161.415C49.2448 163.677 45.6612 165.737 41.9677 167.586C29.5431 173.995 4.74166 180.071 2.61037 161.415C1.86489 154.996 4.16822 150.716 5.53492 144.22C6.37598 144.068 8.03896 144.287 8.78444 143.265C10.132 140.151 13.2286 134.047 10.6959 130.283C9.20496 131.506 10.3327 135.337 8.42126 136.129C-2.60797 134.286 4.19689 117.025 4.84679 108.857C0.249688 117.053 -3.24832 137.515 4.84679 144.259C-1.67135 155.32 -2.42638 174.645 8.42126 180.309C12.9706 182.688 19.4696 182.669 25.6246 181.265C37.4375 178.6 52.758 169.611 59.1328 162.112C61.7133 159.074 62.3441 154.021 64.3415 151.05C64.1026 161.558 68.585 170.232 77.3587 169.897C85.1862 169.601 87.6902 162.466 92.3256 158.186C91.2169 171.712 106.967 170.165 114.441 165.331C117.108 166.869 119.65 168.283 122.9 168.273C130.431 168.273 135.143 161.988 139.491 158.53C139.381 160.845 140.055 163.13 141.403 165.016C148.332 173.565 164.283 164.061 169.377 159.495C168.422 168.436 177.836 170.356 183.054 165.675C185.692 163.268 185.921 160.02 187.928 158.53C187.928 163.66 191.264 166.22 195.077 165.99C200.181 165.723 201.05 160.622 203.851 158.186C208.629 169.038 222.784 159.485 229.235 156.581C230.372 157.536 230.908 159.246 231.51 160.813C228.066 163.888 225.495 167.817 224.059 172.203C222.622 176.59 222.37 181.278 223.329 185.793C224.772 192.709 231.51 198.45 238.621 200.121C249.134 202.567 262.399 197.685 270.81 193.625C277.949 190.225 285.547 185.984 288.711 182.908C291.874 179.832 295.621 170.633 291.626 167.328C287.803 164.185 270.103 166.802 269.835 160.507C269.758 158.53 273.381 155.101 275.369 153.353C278.026 150.993 280.73 148.882 284.477 149.465C286.752 153.696 287.918 157.718 290.976 160.842C298.478 168.426 312.815 171.349 326.759 170.566C341.936 169.716 356.52 162.924 366.776 159.189C364.912 170.041 377.977 170.585 382.392 164.729C383.979 162.609 385.336 157.088 385.307 154.012C385.307 150.64 383.702 147.019 381.408 145.558C378.588 150.334 380.089 154.48 382.364 158.559C377.403 163.153 366.403 160.364 370.321 151.738C360.124 155.32 346.026 161.911 330.964 163.096C317.44 164.185 303.248 162.026 294.847 154.967C290.804 151.604 288.854 146.484 286.723 141.345C280.759 142.1 275.694 145.854 271.756 150.764C268.889 154.394 265.219 161.348 266.222 166.669C267.914 175.505 284.544 170.165 289.657 176.097C280.998 181.484 263.919 191.534 249 192.642C237.531 193.52 227.572 188.295 226.225 178.676C226.225 178.676 223.721 169.659 232.446 162.141C235.314 164.796 238.687 167.681 242.539 166.019C246.047 164.51 247.71 155.062 246.763 150.735C245.502 145.004 237.674 145.262 231.797 146.828C230.602 140.667 229.474 134.41 228.547 128.01L228.222 125.383C226.97 116.375 224.801 106.507 224.313 97.7956C225.852 98.0631 227.324 101.617 228.547 100.06C225.842 94.2039 223.233 88.2623 219.764 83.1708C218.575 85.4273 217.698 87.8341 217.155 90.3256C220.022 94.4141 219.907 101.282 220.739 107.52C222.602 121.6 225.47 136.492 227.563 149.77C222.478 154.241 206.919 160.135 205.447 148.471C203.249 151.261 202.656 157.775 197.313 158.186C196.269 158.305 195.211 158.139 194.253 157.706C193.295 157.273 192.473 156.588 191.873 155.725C191.273 154.862 190.918 153.853 190.846 152.804C190.774 151.756 190.988 150.707 191.464 149.77C188.349 150.726 187.88 156.209 184.296 158.855C178.772 162.943 169.674 159.094 173.238 151.385C166.548 154.078 157.574 164.07 147.223 160.144C143.955 158.931 141.928 155.492 142.339 150.057C136.414 153.945 131.998 162.322 121.839 159.82C123.435 156.811 125.729 153.133 126.073 148.127C126.35 144.096 124.916 137.811 121.839 137.419C120.224 137.209 116.573 139.884 115.34 141.316C111.593 145.691 109.605 153.735 110.456 159.82C102.523 163.698 92.3638 159.285 95.4986 149.092C90.0222 152.541 87.977 160.823 79.8819 161.778C78.1357 161.993 76.3633 161.778 74.7191 161.152C73.075 160.526 71.6089 159.508 70.4487 158.186C66.4537 153.582 67.2948 144.736 66.8647 135.48C65.995 116.49 65.6509 91.9113 62.3249 77C58.0241 85.6832 60.748 100.528 61.3692 114.035" fill="#00A7E1"/>
<defs>
<linearGradient id="paint0_linear_636_12" x1="465.968" y1="174.508" x2="1919.97" y2="174.508" gradientUnits="userSpaceOnUse">
<stop stop-color="#C7EAFB"/>
<stop offset="0.09" stop-color="#C4E9FB"/>
<stop offset="0.16" stop-color="#BAE7FA"/>
<stop offset="0.23" stop-color="#A9E3FA"/>
<stop offset="0.29" stop-color="#91DDF9"/>
<stop offset="0.35" stop-color="#72D5F7"/>
<stop offset="0.41" stop-color="#4CCCF5"/>
<stop offset="0.46" stop-color="#21C1F3"/>
<stop offset="0.5" stop-color="#00B9F2"/>
<stop offset="0.62" stop-color="#00B6EF"/>
<stop offset="0.72" stop-color="#00ACE6"/>
<stop offset="0.81" stop-color="#009BD7"/>
<stop offset="0.89" stop-color="#0083C1"/>
<stop offset="0.97" stop-color="#0065A5"/>
<stop offset="1" stop-color="#005799"/>
</linearGradient>
<linearGradient id="paint1_linear_636_12" x1="760.924" y1="264.419" x2="700.915" y2="324.429" gradientUnits="userSpaceOnUse">
<stop stop-color="#8C004E"/>
<stop offset="1" stop-color="#D7007A"/>
</linearGradient>
</defs>
</svg>
